700.ufo
<glyph name="exclam" format="2">
  <advance width="343"/>
  <unicode hex="0021"/>
  <outline>
    <contour>
      <point x="78" y="700" type="line"/>
      <point x="266" y="700" type="line"/>
      <point x="233" y="231" type="line"/>
      <point x="111" y="231" type="line"/>
    </contour>
    <contour>
      <point x="78" y="62" type="curve" smooth="yes"/>
      <point x="78" y="113"/>
      <point x="117" y="148"/>
      <point x="172" y="148" type="curve" smooth="yes"/>
      <point x="227" y="148"/>
      <point x="266" y="113"/>
      <point x="266" y="62" type="curve" smooth="yes"/>
      <point x="266" y="11"/>
      <point x="227" y="-24"/>
      <point x="172" y="-24" type="curve" smooth="yes"/>
      <point x="117" y="-24"/>
      <point x="78" y="11"/>
    </contour>
  </outline>
</glyph>
<glyph name="quotedbl" format="2">
  <advance width="518"/>
  <unicode hex="0022"/>
  <outline>
    <contour>
      <point x="105" y="700" type="line"/>
      <point x="266" y="700" type="line"/>
      <point x="160" y="381" type="line"/>
      <point x="61" y="381" type="line"/>
    </contour>
    <contour>
      <point x="316" y="700" type="line"/>
      <point x="477" y="700" type="line"/>
      <point x="371" y="381" type="line"/>
      <point x="272" y="381" type="line"/>
    </contour>
  </outline>
</glyph>
<glyph name="dollar" format="2">
  <advance width="621"/>
  <unicode hex="0024"/>
  <outline>
    <contour>
      <point x="262" y="818" type="line"/>
      <point x="386" y="818" type="line"/>
      <point x="380" y="637" type="line"/>
      <point x="268" y="637" type="line"/>
    </contour>
    <contour>
      <point x="268" y="62" type="line"/>
      <point x="379" y="62" type="line"/>
      <point x="386" y="-112" type="line"/>
      <point x="262" y="-112" type="line"/>
    </contour>
    <contour>
      <point x="449" y="489" type="line"/>
      <point x="419" y="547"/>
      <point x="378" y="585"/>
      <point x="326" y="585" type="curve" smooth="yes"/>
      <point x="271" y="585"/>
      <point x="248" y="558"/>
      <point x="248" y="522" type="curve" smooth="yes"/>
      <point x="248" y="463"/>
      <point x="323" y="445"/>
      <point x="408" y="414" type="curve" smooth="yes"/>
      <point x="503" y="380"/>
      <point x="586" y="317"/>
      <point x="586" y="196" type="curve" smooth="yes"/>
      <point x="586" y="64"/>
      <point x="482" y="-10"/>
      <point x="318" y="-10" type="curve" smooth="yes"/>
      <point x="190" y="-10"/>
      <point x="77" y="71"/>
      <point x="33" y="167" type="curve"/>
      <point x="153" y="251" type="line"/>
      <point x="201" y="167"/>
      <point x="248" y="125"/>
      <point x="322" y="125" type="curve" smooth="yes"/>
      <point x="381" y="125"/>
      <point x="408" y="149"/>
      <point x="408" y="194" type="curve" smooth="yes"/>
      <point x="408" y="250"/>
      <point x="345" y="270"/>
      <point x="263" y="302" type="curve" smooth="yes"/>
      <point x="194" y="328"/>
      <point x="74" y="385"/>
      <point x="74" y="521" type="curve" smooth="yes"/>
      <point x="74" y="623"/>
      <point x="176" y="710"/>
      <point x="321" y="710" type="curve" smooth="yes"/>
      <point x="465" y="710"/>
      <point x="534" y="637"/>
      <point x="576" y="562" type="curve"/>
    </contour>
  </outline>
</glyph>
<glyph name="ampersand" format="2">
  <advance width="752"/>
  <unicode hex="0026"/>
  <outline>
    <contour>
      <point x="223" y="372" type="line" smooth="yes"/>
      <point x="176" y="423"/>
      <point x="126" y="473"/>
      <point x="126" y="544" type="curve" smooth="yes"/>
      <point x="126" y="632"/>
      <point x="208" y="717"/>
      <point x="342" y="717" type="curve" smooth="yes"/>
      <point x="473" y="717"/>
      <point x="544" y="632"/>
      <point x="544" y="548" type="curve" smooth="yes"/>
      <point x="544" y="456"/>
      <point x="484" y="418"/>
      <point x="372" y="344" type="curve" smooth="yes"/>
      <point x="301" y="298"/>
      <point x="199" y="282"/>
      <point x="199" y="201" type="curve" smooth="yes"/>
      <point x="199" y="153"/>
      <point x="236" y="115"/>
      <point x="304" y="115" type="curve" smooth="yes"/>
      <point x="418" y="115"/>
      <point x="528" y="217"/>
      <point x="608" y="341" type="curve"/>
      <point x="709" y="263" type="line"/>
      <point x="622" y="135"/>
      <point x="482" y="-13"/>
      <point x="284" y="-13" type="curve" smooth="yes"/>
      <point x="150" y="-13"/>
      <point x="40" y="62"/>
      <point x="40" y="187" type="curve" smooth="yes"/>
      <point x="40" y="347"/>
      <point x="222" y="387"/>
      <point x="292" y="420" type="curve" smooth="yes"/>
      <point x="367" y="456"/>
      <point x="406" y="497"/>
      <point x="406" y="534" type="curve" smooth="yes"/>
      <point x="406" y="566"/>
      <point x="381" y="596"/>
      <point x="340" y="596" type="curve" smooth="yes"/>
      <point x="294" y="596"/>
      <point x="273" y="566"/>
      <point x="273" y="534" type="curve" smooth="yes"/>
      <point x="273" y="494"/>
      <point x="312" y="458"/>
      <point x="366" y="400" type="curve" smooth="yes"/>
      <point x="736" y="0" type="line"/>
      <point x="562" y="0" type="line"/>
    </contour>
  </outline>
</glyph>
<glyph name="parenleft" format="2">
  <advance width="341"/>
  <unicode hex="0028"/>
  <outline>
    <contour>
      <point x="189" y="780" type="curve"/>
      <point x="327" y="780" type="line"/>
      <point x="257" y="630"/>
      <point x="218" y="460"/>
      <point x="218" y="290" type="curve" smooth="yes"/>
      <point x="218" y="120"/>
      <point x="257" y="-50"/>
      <point x="327" y="-200" type="curve"/>
      <point x="189" y="-200" type="line"/>
      <point x="109" y="-50"/>
      <point x="68" y="120"/>
      <point x="68" y="290" type="curve" smooth="yes"/>
      <point x="68" y="460"/>
      <point x="109" y="630"/>
    </contour>
  </outline>
</glyph>
<glyph name="asterisk" format="2">
  <advance width="592"/>
  <unicode hex="002A"/>
  <outline>
    <contour>
      <point x="498" y="603" type="line"/>
      <point x="541" y="471" type="line"/>
      <point x="308" y="428" type="line"/>
      <point x="284" y="500" type="line"/>
    </contour>
    <contour>
      <point x="491" y="315" type="line"/>
      <point x="378" y="233" type="line"/>
      <point x="266" y="442" type="line"/>
      <point x="326" y="486" type="line"/>
    </contour>
    <contour>
      <point x="214" y="233" type="line"/>
      <point x="101" y="315" type="line"/>
      <point x="266" y="486" type="line"/>
      <point x="326" y="442" type="line"/>
    </contour>
    <contour>
      <point x="51" y="471" type="line"/>
      <point x="94" y="603" type="line"/>
      <point x="308" y="500" type="line"/>
      <point x="284" y="428" type="line"/>
    </contour>
    <contour>
      <point x="227" y="700" type="line"/>
      <point x="365" y="700" type="line"/>
      <point x="334" y="464" type="line"/>
      <point x="258" y="464" type="line"/>
    </contour>
  </outline>
</glyph>
<glyph name="plus" format="2">
  <advance width="674"/>
  <unicode hex="002B"/>
  <outline>
    <contour>
      <point x="65" y="196" type="line"/>
      <point x="65" y="342" type="line"/>
      <point x="609" y="342" type="line"/>
      <point x="609" y="196" type="line"/>
    </contour>
    <contour>
      <point x="259" y="541" type="line"/>
      <point x="416" y="541" type="line"/>
      <point x="416" y="-2" type="line"/>
      <point x="259" y="-2" type="line"/>
    </contour>
  </outline>
</glyph>
<glyph name="comma" format="2">
  <advance width="323"/>
  <unicode hex="002C"/>
  <outline>
    <contour>
      <point x="120" y="110" type="line"/>
      <point x="272" y="78" type="line"/>
      <point x="146" y="-172" type="line"/>
      <point x="32" y="-149" type="line"/>
    </contour>
  </outline>
</glyph>
<glyph name="period" format="2">
  <advance width="322"/>
  <unicode hex="002E"/>
  <outline>
    <contour>
      <point x="67" y="68" type="curve" smooth="yes"/>
      <point x="67" y="119"/>
      <point x="106" y="161"/>
      <point x="161" y="161" type="curve" smooth="yes"/>
      <point x="216" y="161"/>
      <point x="256" y="119"/>
      <point x="256" y="68" type="curve" smooth="yes"/>
      <point x="256" y="17"/>
      <point x="216" y="-24"/>
      <point x="161" y="-24" type="curve" smooth="yes"/>
      <point x="106" y="-24"/>
      <point x="67" y="17"/>
    </contour>
  </outline>
</glyph>
<glyph name="three" format="2">
  <advance width="621"/>
  <unicode hex="0033"/>
  <outline>
    <contour>
      <point x="275" y="339" type="curve"/>
      <point x="275" y="415" type="line"/>
      <point x="353" y="415"/>
      <point x="404" y="458"/>
      <point x="404" y="508" type="curve" smooth="yes"/>
      <point x="404" y="549"/>
      <point x="378" y="578"/>
      <point x="325" y="578" type="curve" smooth="yes"/>
      <point x="273" y="578"/>
      <point x="234" y="543"/>
      <point x="234" y="495" type="curve"/>
      <point x="78" y="495" type="line"/>
      <point x="78" y="620"/>
      <point x="176" y="713"/>
      <point x="325" y="713" type="curve" smooth="yes"/>
      <point x="483" y="713"/>
      <point x="572" y="627"/>
      <point x="572" y="519" type="curve" smooth="yes"/>
      <point x="572" y="398"/>
      <point x="441" y="339"/>
    </contour>
    <contour>
      <point x="317" y="-16" type="curve" smooth="yes"/>
      <point x="148" y="-16"/>
      <point x="48" y="97"/>
      <point x="48" y="222" type="curve"/>
      <point x="215" y="222" type="line"/>
      <point x="215" y="153"/>
      <point x="266" y="120"/>
      <point x="324" y="120" type="curve" smooth="yes"/>
      <point x="382" y="120"/>
      <point x="424" y="148"/>
      <point x="424" y="208" type="curve" smooth="yes"/>
      <point x="424" y="266"/>
      <point x="377" y="306"/>
      <point x="275" y="306" type="curve"/>
      <point x="275" y="392" type="line"/>
      <point x="460" y="392"/>
      <point x="592" y="333"/>
      <point x="592" y="191" type="curve" smooth="yes"/>
      <point x="592" y="69"/>
      <point x="489" y="-16"/>
    </contour>
  </outline>
</glyph>
<glyph name="four" format="2">
  <advance width="698"/>
  <unicode hex="0034"/>
  <outline>
    <contour>
      <point x="14" y="124" type="line"/>
      <point x="420" y="700" type="line"/>
      <point x="546" y="700" type="line"/>
      <point x="546" y="0" type="line"/>
      <point x="370" y="0" type="line"/>
      <point x="370" y="176" type="line"/>
      <point x="389" y="187" type="line"/>
      <point x="389" y="455" type="line"/>
      <point x="238" y="246" type="line"/>
      <point x="496" y="246" type="line"/>
      <point x="513" y="268" type="line"/>
      <point x="656" y="268" type="line"/>
      <point x="656" y="124" type="line"/>
    </contour>
  </outline>
</glyph>
<glyph name="five" format="2">
  <advance width="645"/>
  <unicode hex="0035"/>
  <outline>
    <contour>
      <point x="605" y="224" type="curve" smooth="yes"/>
      <point x="605" y="59"/>
      <point x="458" y="-13"/>
      <point x="323" y="-13" type="curve" smooth="yes"/>
      <point x="194" y="-13"/>
      <point x="107" y="29"/>
      <point x="42" y="78" type="curve"/>
      <point x="108" y="217" type="line"/>
      <point x="164" y="169"/>
      <point x="233" y="142"/>
      <point x="285" y="142" type="curve" smooth="yes"/>
      <point x="369" y="142"/>
      <point x="420" y="174"/>
      <point x="420" y="242" type="curve" smooth="yes"/>
      <point x="420" y="310"/>
      <point x="353" y="340"/>
      <point x="285" y="340" type="curve" smooth="yes"/>
      <point x="231" y="340"/>
      <point x="159" y="332"/>
      <point x="88" y="296" type="curve"/>
      <point x="186" y="700" type="line"/>
      <point x="591" y="700" type="line"/>
      <point x="591" y="553" type="line"/>
      <point x="310" y="553" type="line"/>
      <point x="270" y="429" type="line"/>
      <point x="307" y="447"/>
      <point x="348" y="453"/>
      <point x="392" y="453" type="curve" smooth="yes"/>
      <point x="503" y="453"/>
      <point x="605" y="369"/>
    </contour>
  </outline>
</glyph>
<glyph name="six" format="2">
  <advance width="669"/>
  <unicode hex="0036"/>
  <outline>
    <contour>
      <point x="217" y="246" type="curve" smooth="yes"/>
      <point x="217" y="175"/>
      <point x="268" y="128"/>
      <point x="335" y="128" type="curve" smooth="yes"/>
      <point x="402" y="128"/>
      <point x="452" y="175"/>
      <point x="452" y="246" type="curve" smooth="yes"/>
      <point x="452" y="317"/>
      <point x="402" y="365"/>
      <point x="335" y="365" type="curve" smooth="yes"/>
      <point x="268" y="365"/>
      <point x="217" y="317"/>
    </contour>
    <contour>
      <point x="333" y="697" type="line"/>
      <point x="548" y="697" type="line"/>
      <point x="321" y="444" type="line"/>
      <point x="286" y="429" type="line"/>
      <point x="324" y="465"/>
      <point x="353" y="473"/>
      <point x="403" y="473" type="curve" smooth="yes"/>
      <point x="508" y="473"/>
      <point x="620" y="388"/>
      <point x="620" y="246" type="curve" smooth="yes"/>
      <point x="620" y="74"/>
      <point x="492" y="-16"/>
      <point x="335" y="-16" type="curve" smooth="yes"/>
      <point x="178" y="-16"/>
      <point x="50" y="74"/>
      <point x="50" y="246" type="curve" smooth="yes"/>
      <point x="50" y="322"/>
      <point x="86" y="385"/>
      <point x="132" y="441" type="curve" smooth="yes"/>
    </contour>
  </outline>
</glyph>
<glyph name="seven" format="2">
  <advance width="603"/>
  <unicode hex="0037"/>
  <outline>
    <contour>
      <point x="30" y="542" type="line"/>
      <point x="30" y="700" type="line"/>
      <point x="601" y="700" type="line"/>
      <point x="263" y="0" type="line"/>
      <point x="80" y="0" type="line"/>
      <point x="353" y="542" type="line"/>
    </contour>
  </outline>
</glyph>
<glyph name="eight" format="2">
  <advance width="627"/>
  <unicode hex="0038"/>
  <outline>
    <contour>
      <point x="77" y="531" type="curve" smooth="yes"/>
      <point x="77" y="649"/>
      <point x="185" y="716"/>
      <point x="314" y="716" type="curve" smooth="yes"/>
      <point x="443" y="716"/>
      <point x="550" y="649"/>
      <point x="550" y="531" type="curve" smooth="yes"/>
      <point x="550" y="403"/>
      <point x="429" y="342"/>
      <point x="314" y="342" type="curve" smooth="yes"/>
      <point x="199" y="342"/>
      <point x="77" y="403"/>
    </contour>
    <contour>
      <point x="236" y="515" type="curve" smooth="yes"/>
      <point x="236" y="468"/>
      <point x="270" y="435"/>
      <point x="314" y="435" type="curve" smooth="yes"/>
      <point x="358" y="435"/>
      <point x="391" y="468"/>
      <point x="391" y="515" type="curve" smooth="yes"/>
      <point x="391" y="562"/>
      <point x="360" y="594"/>
      <point x="314" y="594" type="curve" smooth="yes"/>
      <point x="268" y="594"/>
      <point x="236" y="562"/>
    </contour>
    <contour>
      <point x="52" y="190" type="curve" smooth="yes"/>
      <point x="52" y="338"/>
      <point x="199" y="396"/>
      <point x="314" y="396" type="curve" smooth="yes"/>
      <point x="429" y="396"/>
      <point x="575" y="338"/>
      <point x="575" y="190" type="curve" smooth="yes"/>
      <point x="575" y="62"/>
      <point x="452" y="-16"/>
      <point x="314" y="-16" type="curve" smooth="yes"/>
      <point x="176" y="-16"/>
      <point x="52" y="62"/>
    </contour>
    <contour>
      <point x="220" y="216" type="curve" smooth="yes"/>
      <point x="220" y="155"/>
      <point x="263" y="121"/>
      <point x="314" y="121" type="curve" smooth="yes"/>
      <point x="365" y="121"/>
      <point x="407" y="155"/>
      <point x="407" y="216" type="curve" smooth="yes"/>
      <point x="407" y="267"/>
      <point x="365" y="307"/>
      <point x="314" y="307" type="curve" smooth="yes"/>
      <point x="263" y="307"/>
      <point x="220" y="267"/>
    </contour>
  </outline>
</glyph>
<glyph name="nine" format="2">
  <advance width="669"/>
  <unicode hex="0039"/>
  <outline>
    <contour>
      <point x="452" y="454" type="curve" smooth="yes"/>
      <point x="452" y="525"/>
      <point x="402" y="572"/>
      <point x="335" y="572" type="curve" smooth="yes"/>
      <point x="268" y="572"/>
      <point x="217" y="525"/>
      <point x="217" y="454" type="curve" smooth="yes"/>
      <point x="217" y="383"/>
      <point x="268" y="335"/>
      <point x="335" y="335" type="curve" smooth="yes"/>
      <point x="402" y="335"/>
      <point x="452" y="383"/>
    </contour>
    <contour>
      <point x="337" y="3" type="line"/>
      <point x="122" y="3" type="line"/>
      <point x="349" y="256" type="line"/>
      <point x="383" y="271" type="line"/>
      <point x="345" y="235"/>
      <point x="316" y="227"/>
      <point x="266" y="227" type="curve" smooth="yes"/>
      <point x="161" y="227"/>
      <point x="50" y="312"/>
      <point x="50" y="454" type="curve" smooth="yes"/>
      <point x="50" y="626"/>
      <point x="178" y="716"/>
      <point x="335" y="716" type="curve" smooth="yes"/>
      <point x="492" y="716"/>
      <point x="620" y="626"/>
      <point x="620" y="454" type="curve" smooth="yes"/>
      <point x="620" y="378"/>
      <point x="584" y="315"/>
      <point x="538" y="259" type="curve" smooth="yes"/>
    </contour>
  </outline>
</glyph>
<glyph name="colon" format="2">
  <advance width="322"/>
  <unicode hex="003A"/>
  <outline>
    <contour>
      <point x="67" y="68" type="curve" smooth="yes"/>
      <point x="67" y="119"/>
      <point x="106" y="161"/>
      <point x="161" y="161" type="curve" smooth="yes"/>
      <point x="216" y="161"/>
      <point x="256" y="119"/>
      <point x="256" y="68" type="curve" smooth="yes"/>
      <point x="256" y="17"/>
      <point x="216" y="-24"/>
      <point x="161" y="-24" type="curve" smooth="yes"/>
      <point x="106" y="-24"/>
      <point x="67" y="17"/>
    </contour>
    <contour>
      <point x="67" y="442" type="curve" smooth="yes"/>
      <point x="67" y="493"/>
      <point x="106" y="534"/>
      <point x="161" y="534" type="curve" smooth="yes"/>
      <point x="216" y="534"/>
      <point x="256" y="493"/>
      <point x="256" y="442" type="curve" smooth="yes"/>
      <point x="256" y="391"/>
      <point x="216" y="349"/>
      <point x="161" y="349" type="curve" smooth="yes"/>
      <point x="106" y="349"/>
      <point x="67" y="391"/>
    </contour>
  </outline>
</glyph>
<glyph name="semicolon" format="2">
  <advance width="393"/>
  <unicode hex="003B"/>
  <outline>
    <contour>
      <point x="119" y="436" type="curve" smooth="yes"/>
      <point x="119" y="487"/>
      <point x="158" y="528"/>
      <point x="213" y="528" type="curve" smooth="yes"/>
      <point x="268" y="528"/>
      <point x="308" y="487"/>
      <point x="308" y="436" type="curve" smooth="yes"/>
      <point x="308" y="385"/>
      <point x="268" y="343"/>
      <point x="213" y="343" type="curve" smooth="yes"/>
      <point x="158" y="343"/>
      <point x="119" y="385"/>
    </contour>
    <contour>
      <point x="142" y="110" type="line"/>
      <point x="294" y="78" type="line"/>
      <point x="168" y="-172" type="line"/>
      <point x="54" y="-149" type="line"/>
    </contour>
  </outline>
</glyph>
<glyph name="less" format="2">
  <advance width="640"/>
  <unicode hex="003C"/>
  <outline>
    <contour>
      <point x="281" y="268" type="line"/>
      <point x="575" y="148" type="line"/>
      <point x="575" y="-1" type="line"/>
      <point x="65" y="213" type="line"/>
      <point x="65" y="314" type="line"/>
      <point x="575" y="528" type="line"/>
      <point x="575" y="379" type="line"/>
    </contour>
  </outline>
</glyph>
<glyph name="question" format="2">
  <advance width="627"/>
  <unicode hex="003F"/>
  <outline>
    <contour>
      <point x="420" y="500" type="curve" smooth="yes"/>
      <point x="420" y="558"/>
      <point x="379" y="591"/>
      <point x="308" y="591" type="curve" smooth="yes"/>
      <point x="247" y="591"/>
      <point x="187" y="560"/>
      <point x="150" y="504" type="curve"/>
      <point x="48" y="589" type="line"/>
      <point x="119" y="671"/>
      <point x="199" y="719"/>
      <point x="318" y="719" type="curve" smooth="yes"/>
      <point x="449" y="719"/>
      <point x="573" y="638"/>
      <point x="573" y="500" type="curve" smooth="yes"/>
      <point x="573" y="378"/>
      <point x="466" y="303"/>
      <point x="359" y="285" type="curve"/>
      <point x="354" y="201" type="line"/>
      <point x="232" y="201" type="line"/>
      <point x="212" y="379" type="line"/>
      <point x="244" y="379" type="line" smooth="yes"/>
      <point x="364" y="379"/>
      <point x="420" y="449"/>
    </contour>
    <contour>
      <point x="199" y="59" type="curve" smooth="yes"/>
      <point x="199" y="103"/>
      <point x="239" y="142"/>
      <point x="294" y="142" type="curve" smooth="yes"/>
      <point x="349" y="142"/>
      <point x="388" y="103"/>
      <point x="388" y="59" type="curve" smooth="yes"/>
      <point x="388" y="15"/>
      <point x="349" y="-24"/>
      <point x="294" y="-24" type="curve" smooth="yes"/>
      <point x="239" y="-24"/>
      <point x="199" y="15"/>
    </contour>
  </outline>
</glyph>
<glyph name="at" format="2">
  <advance width="770"/>
  <unicode hex="0040"/>
  <outline>
    <contour>
      <point x="316" y="320" type="curve" smooth="yes"/>
      <point x="316" y="276"/>
      <point x="332" y="252"/>
      <point x="361" y="252" type="curve" smooth="yes"/>
      <point x="395" y="252"/>
      <point x="435" y="296"/>
      <point x="435" y="364" type="curve" smooth="yes"/>
      <point x="435" y="411"/>
      <point x="416" y="432"/>
      <point x="388" y="432" type="curve" smooth="yes"/>
      <point x="349" y="432"/>
      <point x="316" y="381"/>
    </contour>
    <contour>
      <point x="196" y="313" type="curve" smooth="yes"/>
      <point x="196" y="452"/>
      <point x="280" y="530"/>
      <point x="359" y="530" type="curve" smooth="yes"/>
      <point x="431" y="530"/>
      <point x="482" y="455"/>
      <point x="482" y="370" type="curve" smooth="yes"/>
      <point x="482" y="231"/>
      <point x="410" y="154"/>
      <point x="328" y="154" type="curve" smooth="yes"/>
      <point x="248" y="154"/>
      <point x="196" y="214"/>
    </contour>
    <contour>
      <point x="19" y="320" type="curve" smooth="yes"/>
      <point x="19" y="545"/>
      <point x="185" y="722"/>
      <point x="415" y="722" type="curve" smooth="yes"/>
      <point x="629" y="722"/>
      <point x="751" y="555"/>
      <point x="751" y="390" type="curve" smooth="yes"/>
      <point x="751" y="212"/>
      <point x="653" y="144"/>
      <point x="559" y="144" type="curve" smooth="yes"/>
      <point x="492" y="144"/>
      <point x="437" y="198"/>
      <point x="447" y="264" type="curve"/>
      <point x="434" y="295" type="line"/>
      <point x="458" y="520" type="line"/>
      <point x="574" y="520" type="line"/>
      <point x="548" y="308" type="line" smooth="yes"/>
      <point x="547" y="301"/>
      <point x="546" y="289"/>
      <point x="546" y="281" type="curve" smooth="yes"/>
      <point x="546" y="257"/>
      <point x="552" y="241"/>
      <point x="572" y="241" type="curve" smooth="yes"/>
      <point x="596" y="241"/>
      <point x="640" y="270"/>
      <point x="640" y="390" type="curve" smooth="yes"/>
      <point x="640" y="517"/>
      <point x="564" y="623"/>
      <point x="415" y="623" type="curve" smooth="yes"/>
      <point x="239" y="623"/>
      <point x="130" y="497"/>
      <point x="130" y="320" type="curve" smooth="yes"/>
      <point x="130" y="170"/>
      <point x="214" y="74"/>
      <point x="378" y="74" type="curve" smooth="yes"/>
      <point x="448" y="74"/>
      <point x="504" y="88"/>
      <point x="562" y="118" type="curve"/>
      <point x="599" y="28" type="line"/>
      <point x="539" y="-6"/>
      <point x="467" y="-26"/>
      <point x="365" y="-26" type="curve" smooth="yes"/>
      <point x="139" y="-26"/>
      <point x="19" y="121"/>
    </contour>
  </outline>
</glyph>
<glyph name="B" format="2">
  <advance width="664"/>
  <unicode hex="0042"/>
  <outline>
    <contour>
      <point x="200" y="348" type="line"/>
      <point x="200" y="422" type="line"/>
      <point x="313" y="422" type="line" smooth="yes"/>
      <point x="371" y="422"/>
      <point x="405" y="450"/>
      <point x="405" y="497" type="curve" smooth="yes"/>
      <point x="405" y="544"/>
      <point x="371" y="569"/>
      <point x="313" y="569" type="curve" smooth="yes"/>
      <point x="243" y="569" type="line"/>
      <point x="243" y="131" type="line"/>
      <point x="329" y="131" type="line" smooth="yes"/>
      <point x="394" y="131"/>
      <point x="445" y="154"/>
      <point x="445" y="221" type="curve" smooth="yes"/>
      <point x="445" y="282"/>
      <point x="394" y="304"/>
      <point x="329" y="304" type="curve" smooth="yes"/>
      <point x="200" y="304" type="line"/>
      <point x="200" y="396" type="line"/>
      <point x="348" y="396" type="line" smooth="yes"/>
      <point x="483" y="396"/>
      <point x="620" y="339"/>
      <point x="620" y="197" type="curve" smooth="yes"/>
      <point x="620" y="58"/>
      <point x="514" y="0"/>
      <point x="348" y="0" type="curve" smooth="yes"/>
      <point x="74" y="0" type="line"/>
      <point x="74" y="700" type="line"/>
      <point x="332" y="700" type="line" smooth="yes"/>
      <point x="476" y="700"/>
      <point x="580" y="641"/>
      <point x="580" y="522" type="curve" smooth="yes"/>
      <point x="580" y="410"/>
      <point x="476" y="348"/>
      <point x="332" y="348" type="curve" smooth="yes"/>
    </contour>
  </outline>
</glyph>
<glyph name="C" format="2">
  <advance width="700"/>
  <unicode hex="0043"/>
  <outline>
    <contour>
      <point x="219" y="350" type="curve" smooth="yes"/>
      <point x="219" y="221"/>
      <point x="315" y="145"/>
      <point x="428" y="145" type="curve" smooth="yes"/>
      <point x="527" y="145"/>
      <point x="591" y="188"/>
      <point x="637" y="238" type="curve"/>
      <point x="637" y="54" type="line"/>
      <point x="581" y="11"/>
      <point x="520" y="-16"/>
      <point x="418" y="-16" type="curve" smooth="yes"/>
      <point x="193" y="-16"/>
      <point x="34" y="132"/>
      <point x="34" y="350" type="curve" smooth="yes"/>
      <point x="34" y="568"/>
      <point x="193" y="716"/>
      <point x="418" y="716" type="curve" smooth="yes"/>
      <point x="520" y="716"/>
      <point x="581" y="689"/>
      <point x="637" y="646" type="curve"/>
      <point x="637" y="462" type="line"/>
      <point x="591" y="512"/>
      <point x="527" y="555"/>
      <point x="428" y="555" type="curve" smooth="yes"/>
      <point x="315" y="555"/>
      <point x="219" y="479"/>
    </contour>
  </outline>
</glyph>
<glyph name="F" format="2">
  <advance width="553"/>
  <unicode hex="0046"/>
  <outline>
    <contour>
      <point x="186" y="554" type="line"/>
      <point x="186" y="700" type="line"/>
      <point x="499" y="700" type="line"/>
      <point x="499" y="554" type="line"/>
    </contour>
    <contour>
      <point x="186" y="281" type="line"/>
      <point x="186" y="417" type="line"/>
      <point x="489" y="417" type="line"/>
      <point x="489" y="281" type="line"/>
    </contour>
    <contour>
      <point x="74" y="700" type="line"/>
      <point x="237" y="700" type="line"/>
      <point x="237" y="0" type="line"/>
      <point x="74" y="0" type="line"/>
    </contour>
  </outline>
</glyph>
<glyph name="J" format="2">
  <advance width="330"/>
  <unicode hex="004A"/>
  <outline>
    <contour>
      <point x="-72" y="-63" type="line"/>
      <point x="-52" y="-81"/>
      <point x="-21" y="-96"/>
      <point x="9" y="-96" type="curve" smooth="yes"/>
      <point x="39" y="-96"/>
      <point x="74" y="-76"/>
      <point x="74" y="-16" type="curve" smooth="yes"/>
      <point x="74" y="700" type="line"/>
      <point x="257" y="700" type="line"/>
      <point x="257" y="-54" type="line" smooth="yes"/>
      <point x="257" y="-188"/>
      <point x="151" y="-239"/>
      <point x="26" y="-239" type="curve" smooth="yes"/>
      <point x="-52" y="-239"/>
      <point x="-124" y="-208"/>
      <point x="-164" y="-182" type="curve"/>
    </contour>
  </outline>
</glyph>
<glyph name="L" format="2">
  <advance width="528"/>
  <unicode hex="004C"/>
  <outline>
    <contour>
      <point x="74" y="700" type="line"/>
      <point x="243" y="700" type="line"/>
      <point x="243" y="146" type="line"/>
      <point x="524" y="146" type="line"/>
      <point x="524" y="0" type="line"/>
      <point x="74" y="0" type="line"/>
    </contour>
  </outline>
</glyph>
<glyph name="N" format="2">
  <advance width="793"/>
  <unicode hex="004E"/>
  <outline>
    <contour>
      <point x="557" y="700" type="line"/>
      <point x="720" y="700" type="line"/>
      <point x="720" y="-35" type="line"/>
      <point x="237" y="393" type="line"/>
      <point x="237" y="0" type="line"/>
      <point x="74" y="0" type="line"/>
      <point x="74" y="735" type="line"/>
      <point x="557" y="307" type="line"/>
    </contour>
  </outline>
</glyph>
<glyph name="P" format="2">
  <advance width="623"/>
  <unicode hex="0050"/>
  <outline>
    <contour>
      <point x="74" y="700" type="line"/>
      <point x="243" y="700" type="line"/>
      <point x="243" y="0" type="line"/>
      <point x="74" y="0" type="line"/>
    </contour>
    <contour>
      <point x="180" y="561" type="line"/>
      <point x="180" y="700" type="line"/>
      <point x="317" y="700" type="line" smooth="yes"/>
      <point x="496" y="700"/>
      <point x="589" y="613"/>
      <point x="589" y="471" type="curve" smooth="yes"/>
      <point x="589" y="329"/>
      <point x="496" y="242"/>
      <point x="317" y="242" type="curve" smooth="yes"/>
      <point x="180" y="242" type="line"/>
      <point x="180" y="382" type="line"/>
      <point x="317" y="382" type="line" smooth="yes"/>
      <point x="385" y="382"/>
      <point x="426" y="413"/>
      <point x="426" y="471" type="curve" smooth="yes"/>
      <point x="426" y="529"/>
      <point x="385" y="561"/>
      <point x="317" y="561" type="curve" smooth="yes"/>
    </contour>
  </outline>
</glyph>
<glyph name="Q" format="2">
  <advance width="863"/>
  <unicode hex="0051"/>
  <outline>
    <contour>
      <point x="213" y="350" type="curve" smooth="yes"/>
      <point x="213" y="214"/>
      <point x="307" y="127"/>
      <point x="426" y="127" type="curve" smooth="yes"/>
      <point x="545" y="127"/>
      <point x="627" y="207"/>
      <point x="627" y="331" type="curve" smooth="yes"/>
      <point x="627" y="455"/>
      <point x="548" y="561"/>
      <point x="414" y="561" type="curve" smooth="yes"/>
      <point x="295" y="561"/>
      <point x="213" y="474"/>
    </contour>
    <contour>
      <point x="34" y="350" type="curve" smooth="yes"/>
      <point x="34" y="566"/>
      <point x="201" y="716"/>
      <point x="414" y="716" type="curve" smooth="yes"/>
      <point x="630" y="716"/>
      <point x="788" y="566"/>
      <point x="788" y="350" type="curve" smooth="yes"/>
      <point x="788" y="134"/>
      <point x="634" y="-22"/>
      <point x="414" y="-22" type="curve" smooth="yes"/>
      <point x="194" y="-22"/>
      <point x="34" y="134"/>
    </contour>
    <contour>
      <point x="356" y="300" type="line"/>
      <point x="532" y="300" type="line"/>
      <point x="870" y="-12" type="line"/>
      <point x="688" y="-12" type="line"/>
    </contour>
  </outline>
</glyph>
<glyph name="S" format="2">
  <advance width="625"/>
  <unicode hex="0053"/>
  <outline>
    <contour>
      <point x="151" y="246" type="line"/>
      <point x="194" y="170"/>
      <point x="252" y="122"/>
      <point x="323" y="122" type="curve" smooth="yes"/>
      <point x="373" y="122"/>
      <point x="408" y="148"/>
      <point x="408" y="191" type="curve" smooth="yes"/>
      <point x="408" y="243"/>
      <point x="369" y="262"/>
      <point x="268" y="300" type="curve" smooth="yes"/>
      <point x="199" y="326"/>
      <point x="81" y="380"/>
      <point x="81" y="516" type="curve" smooth="yes"/>
      <point x="81" y="641"/>
      <point x="189" y="716"/>
      <point x="325" y="716" type="curve" smooth="yes"/>
      <point x="466" y="716"/>
      <point x="547" y="636"/>
      <point x="584" y="564" type="curve"/>
      <point x="455" y="492" type="line"/>
      <point x="424" y="542"/>
      <point x="381" y="575"/>
      <point x="327" y="575" type="curve" smooth="yes"/>
      <point x="279" y="575"/>
      <point x="254" y="552"/>
      <point x="254" y="521" type="curve" smooth="yes"/>
      <point x="254" y="473"/>
      <point x="311" y="448"/>
      <point x="408" y="414" type="curve" smooth="yes"/>
      <point x="506" y="380"/>
      <point x="587" y="314"/>
      <point x="587" y="199" type="curve" smooth="yes"/>
      <point x="587" y="56"/>
      <point x="460" y="-22"/>
      <point x="328" y="-22" type="curve" smooth="yes"/>
      <point x="191" y="-22"/>
      <point x="79" y="59"/>
      <point x="33" y="161" type="curve"/>
    </contour>
  </outline>
</glyph>
<glyph name="Y" format="2">
  <advance width="660"/>
  <unicode hex="0059"/>
  <outline>
    <contour>
      <point x="467" y="700" type="line"/>
      <point x="662" y="700" type="line"/>
      <point x="417" y="285" type="line"/>
      <point x="417" y="0" type="line"/>
      <point x="244" y="0" type="line"/>
      <point x="244" y="284" type="line"/>
      <point x="-1" y="700" type="line"/>
      <point x="194" y="700" type="line"/>
      <point x="330" y="437" type="line"/>
    </contour>
  </outline>
</glyph>
<glyph name="Z" format="2">
  <advance width="620"/>
  <unicode hex="005A"/>
  <outline>
    <contour>
      <point x="57" y="548" type="line"/>
      <point x="57" y="700" type="line"/>
      <point x="606" y="700" type="line"/>
      <point x="276" y="146" type="line"/>
      <point x="571" y="146" type="line"/>
      <point x="571" y="0" type="line"/>
      <point x="9" y="0" type="line"/>
      <point x="335" y="548" type="line"/>
    </contour>
  </outline>
</glyph>
<glyph name="bracketleft" format="2">
  <advance width="362"/>
  <unicode hex="005B"/>
  <outline>
    <contour>
      <point x="242" y="649" type="line"/>
      <point x="242" y="-89" type="line"/>
      <point x="342" y="-89" type="line"/>
      <point x="342" y="-220" type="line"/>
      <point x="91" y="-220" type="line"/>
      <point x="91" y="780" type="line"/>
      <point x="342" y="780" type="line"/>
      <point x="342" y="649" type="line"/>
    </contour>
  </outline>
</glyph>
<glyph name="asciicircum" format="2">
  <advance width="510"/>
  <unicode hex="005E"/>
  <outline>
    <contour>
      <point x="255" y="580" type="line"/>
      <point x="176" y="448" type="line"/>
      <point x="40" y="448" type="line"/>
      <point x="210" y="710" type="line"/>
      <point x="300" y="710" type="line"/>
      <point x="470" y="448" type="line"/>
      <point x="334" y="448" type="line"/>
    </contour>
  </outline>
</glyph>
<glyph name="grave" format="2">
  <advance width="375"/>
  <unicode hex="0060"/>
  <outline>
    <contour>
      <point x="53" y="654" type="line"/>
      <point x="169" y="706" type="line"/>
      <point x="319" y="546" type="line"/>
      <point x="233" y="504" type="line"/>
    </contour>
  </outline>
</glyph>
<glyph name="a" format="2">
  <advance width="539"/>
  <unicode hex="0061"/>
  <outline>
    <contour>
      <point x="177" y="144" type="curve" smooth="yes"/>
      <point x="177" y="108"/>
      <point x="205" y="88"/>
      <point x="242" y="88" type="curve" smooth="yes"/>
      <point x="293" y="88"/>
      <point x="340" y="121"/>
      <point x="340" y="186" type="curve"/>
      <point x="356" y="126" type="line"/>
      <point x="356" y="37"/>
      <point x="276" y="-10"/>
      <point x="188" y="-10" type="curve" smooth="yes"/>
      <point x="99" y="-10"/>
      <point x="24" y="41"/>
      <point x="24" y="136" type="curve" smooth="yes"/>
      <point x="24" y="224"/>
      <point x="88" y="279"/>
      <point x="204" y="279" type="curve" smooth="yes"/>
      <point x="286" y="279"/>
      <point x="349" y="252"/>
      <point x="373" y="226" type="curve"/>
      <point x="373" y="159" type="line"/>
      <point x="341" y="183"/>
      <point x="297" y="196"/>
      <point x="251" y="196" type="curve" smooth="yes"/>
      <point x="198" y="196"/>
      <point x="177" y="177"/>
    </contour>
    <contour>
      <point x="109" y="319" type="curve"/>
      <point x="58" y="420" type="line"/>
      <point x="111" y="445"/>
      <point x="185" y="473"/>
      <point x="272" y="473" type="curve" smooth="yes"/>
      <point x="393" y="473"/>
      <point x="485" y="419"/>
      <point x="485" y="324" type="curve" smooth="yes"/>
      <point x="485" y="0" type="line"/>
      <point x="340" y="0" type="line"/>
      <point x="340" y="290" type="line" smooth="yes"/>
      <point x="340" y="336"/>
      <point x="310" y="358"/>
      <point x="253" y="358" type="curve" smooth="yes"/>
      <point x="192" y="358"/>
      <point x="127" y="331"/>
    </contour>
  </outline>
</glyph>
<glyph name="b" format="2">
  <advance width="616"/>
  <unicode hex="0062"/>
  <outline>
    <contour>
      <point x="209" y="780" type="line"/>
      <point x="209" y="0" type="line"/>
      <point x="58" y="0" type="line"/>
      <point x="58" y="780" type="line"/>
    </contour>
    <contour>
      <point x="585" y="230" type="curve" smooth="yes"/>
      <point x="585" y="75"/>
      <point x="478" y="-10"/>
      <point x="366" y="-10" type="curve" smooth="yes"/>
      <point x="251" y="-10"/>
      <point x="167" y="81"/>
      <point x="167" y="230" type="curve" smooth="yes"/>
      <point x="167" y="379"/>
      <point x="251" y="470"/>
      <point x="366" y="470" type="curve" smooth="yes"/>
      <point x="478" y="470"/>
      <point x="585" y="385"/>
    </contour>
    <contour>
      <point x="426" y="230" type="curve" smooth="yes"/>
      <point x="426" y="302"/>
      <point x="376" y="348"/>
      <point x="316" y="348" type="curve" smooth="yes"/>
      <point x="265" y="348"/>
      <point x="209" y="305"/>
      <point x="209" y="230" type="curve" smooth="yes"/>
      <point x="209" y="155"/>
      <point x="265" y="112"/>
      <point x="316" y="112" type="curve" smooth="yes"/>
      <point x="376" y="112"/>
      <point x="426" y="158"/>
    </contour>
  </outline>
</glyph>
<glyph name="e" format="2">
  <advance width="573"/>
  <unicode hex="0065"/>
  <outline>
    <contour>
      <point x="294" y="-10" type="curve" smooth="yes"/>
      <point x="132" y="-10"/>
      <point x="32" y="83"/>
      <point x="32" y="230" type="curve" smooth="yes"/>
      <point x="32" y="379"/>
      <point x="130" y="470"/>
      <point x="291" y="470" type="curve" smooth="yes"/>
      <point x="450" y="470"/>
      <point x="539" y="385"/>
      <point x="539" y="237" type="curve" smooth="yes"/>
      <point x="539" y="222"/>
      <point x="539" y="208"/>
      <point x="538" y="198" type="curve"/>
      <point x="117" y="198" type="line"/>
      <point x="117" y="282" type="line"/>
      <point x="401" y="282" type="line"/>
      <point x="365" y="236" type="line"/>
      <point x="371" y="246"/>
      <point x="377" y="261"/>
      <point x="377" y="271" type="curve" smooth="yes"/>
      <point x="377" y="331"/>
      <point x="342" y="369"/>
      <point x="288" y="369" type="curve" smooth="yes"/>
      <point x="220" y="369"/>
      <point x="185" y="324"/>
      <point x="185" y="232" type="curve" smooth="yes"/>
      <point x="183" y="148"/>
      <point x="222" y="99"/>
      <point x="291" y="99" type="curve" smooth="yes"/>
      <point x="344" y="99"/>
      <point x="382" y="119"/>
      <point x="405" y="159" type="curve"/>
      <point x="541" y="126" type="line"/>
      <point x="492" y="35"/>
      <point x="411" y="-10"/>
    </contour>
  </outline>
</glyph>
<glyph name="i" format="2">
  <advance width="276"/>
  <unicode hex="0069"/>
  <outline>
    <contour>
      <point x="50" y="632" type="curve" smooth="yes"/>
      <point x="50" y="680"/>
      <point x="89" y="714"/>
      <point x="138" y="714" type="curve" smooth="yes"/>
      <point x="187" y="714"/>
      <point x="226" y="680"/>
      <point x="226" y="632" type="curve" smooth="yes"/>
      <point x="226" y="584"/>
      <point x="187" y="551"/>
      <point x="138" y="551" type="curve" smooth="yes"/>
      <point x="89" y="551"/>
      <point x="50" y="584"/>
    </contour>
    <contour>
      <point x="64" y="460" type="line"/>
      <point x="211" y="460" type="line"/>
      <point x="211" y="0" type="line"/>
      <point x="64" y="0" type="line"/>
    </contour>
  </outline>
</glyph>
<glyph name="j" format="2">
  <advance width="271"/>
  <unicode hex="006A"/>
  <outline>
    <contour>
      <point x="45" y="632" type="curve" smooth="yes"/>
      <point x="45" y="680"/>
      <point x="84" y="714"/>
      <point x="133" y="714" type="curve" smooth="yes"/>
      <point x="182" y="714"/>
      <point x="221" y="680"/>
      <point x="221" y="632" type="curve" smooth="yes"/>
      <point x="221" y="584"/>
      <point x="182" y="551"/>
      <point x="133" y="551" type="curve" smooth="yes"/>
      <point x="84" y="551"/>
      <point x="45" y="584"/>
    </contour>
    <contour>
      <point x="-33" y="-77" type="line"/>
      <point x="-21" y="-92"/>
      <point x="-7" y="-102"/>
      <point x="13" y="-102" type="curve" smooth="yes"/>
      <point x="45" y="-102"/>
      <point x="61" y="-80"/>
      <point x="61" y="-34" type="curve" smooth="yes"/>
      <point x="61" y="460" type="line"/>
      <point x="207" y="460" type="line"/>
      <point x="207" y="-72" type="line" smooth="yes"/>
      <point x="207" y="-172"/>
      <point x="148" y="-239"/>
      <point x="33" y="-239" type="curve" smooth="yes"/>
      <point x="-34" y="-239"/>
      <point x="-71" y="-211"/>
      <point x="-94" y="-188" type="curve"/>
    </contour>
  </outline>
</glyph>
<glyph name="k" format="2">
  <advance width="577"/>
  <unicode hex="006B"/>
  <outline>
    <contour>
      <point x="58" y="780" type="line"/>
      <point x="203" y="780" type="line"/>
      <point x="203" y="0" type="line"/>
      <point x="58" y="0" type="line"/>
    </contour>
    <contour>
      <point x="371" y="460" type="line"/>
      <point x="551" y="460" type="line"/>
      <point x="354" y="270" type="line"/>
      <point x="571" y="0" type="line"/>
      <point x="393" y="0" type="line"/>
      <point x="174" y="270" type="line"/>
    </contour>
  </outline>
</glyph>
<glyph name="m" format="2">
  <advance width="820"/>
  <unicode hex="006D"/>
  <outline>
    <contour>
      <point x="761" y="296" type="curve" smooth="yes"/>
      <point x="761" y="0" type="line"/>
      <point x="609" y="0" type="line"/>
      <point x="609" y="280" type="line" smooth="yes"/>
      <point x="609" y="335"/>
      <point x="592" y="364"/>
      <point x="551" y="364" type="curve" smooth="yes"/>
      <point x="511" y="364"/>
      <point x="483" y="336"/>
      <point x="483" y="280" type="curve" smooth="yes"/>
      <point x="483" y="0" type="line"/>
      <point x="331" y="0" type="line"/>
      <point x="331" y="280" type="line" smooth="yes"/>
      <point x="331" y="335"/>
      <point x="314" y="364"/>
      <point x="273" y="364" type="curve" smooth="yes"/>
      <point x="233" y="364"/>
      <point x="205" y="336"/>
      <point x="205" y="280" type="curve" smooth="yes"/>
      <point x="205" y="0" type="line"/>
      <point x="59" y="0" type="line"/>
      <point x="59" y="460" type="line"/>
      <point x="205" y="460" type="line"/>
      <point x="205" y="392" type="line"/>
      <point x="231" y="442"/>
      <point x="275" y="471"/>
      <point x="338" y="471" type="curve" smooth="yes"/>
      <point x="410" y="471"/>
      <point x="452" y="445"/>
      <point x="470" y="395" type="curve"/>
      <point x="503" y="443"/>
      <point x="553" y="471"/>
      <point x="616" y="471" type="curve" smooth="yes"/>
      <point x="723" y="471"/>
      <point x="761" y="407"/>
    </contour>
  </outline>
</glyph>
<glyph name="n" format="2">
  <advance width="575"/>
  <unicode hex="006E"/>
  <outline>
    <contour>
      <point x="358" y="280" type="line" smooth="yes"/>
      <point x="358" y="334"/>
      <point x="340" y="364"/>
      <point x="291" y="364" type="curve" smooth="yes"/>
      <point x="243" y="364"/>
      <point x="211" y="334"/>
      <point x="211" y="280" type="curve" smooth="yes"/>
      <point x="211" y="0" type="line"/>
      <point x="59" y="0" type="line"/>
      <point x="59" y="460" type="line"/>
      <point x="211" y="460" type="line"/>
      <point x="211" y="391" type="line"/>
      <point x="238" y="441"/>
      <point x="283" y="471"/>
      <point x="351" y="471" type="curve" smooth="yes"/>
      <point x="465" y="471"/>
      <point x="516" y="406"/>
      <point x="516" y="296" type="curve" smooth="yes"/>
      <point x="516" y="0" type="line"/>
      <point x="358" y="0" type="line"/>
    </contour>
  </outline>
</glyph>
<glyph name="s" format="2">
  <advance width="456"/>
  <unicode hex="0073"/>
  <outline>
    <contour>
      <point x="84" y="167" type="line"/>
      <point x="154" y="108"/>
      <point x="204" y="92"/>
      <point x="236" y="92" type="curve" smooth="yes"/>
      <point x="266" y="92"/>
      <point x="281" y="106"/>
      <point x="281" y="128" type="curve" smooth="yes"/>
      <point x="281" y="157"/>
      <point x="257" y="171"/>
      <point x="183" y="195" type="curve" smooth="yes"/>
      <point x="118" y="217"/>
      <point x="53" y="252"/>
      <point x="53" y="340" type="curve" smooth="yes"/>
      <point x="53" y="424"/>
      <point x="126" y="470"/>
      <point x="225" y="470" type="curve" smooth="yes"/>
      <point x="304" y="470"/>
      <point x="369" y="440"/>
      <point x="422" y="402" type="curve"/>
      <point x="368" y="303" type="line"/>
      <point x="330" y="339"/>
      <point x="275" y="366"/>
      <point x="234" y="366" type="curve" smooth="yes"/>
      <point x="207" y="366"/>
      <point x="193" y="354"/>
      <point x="193" y="337" type="curve" smooth="yes"/>
      <point x="193" y="306"/>
      <point x="231" y="298"/>
      <point x="299" y="272" type="curve" smooth="yes"/>
      <point x="370" y="245"/>
      <point x="432" y="215"/>
      <point x="432" y="130" type="curve" smooth="yes"/>
      <point x="432" y="32"/>
      <point x="369" y="-19"/>
      <point x="259" y="-19" type="curve" smooth="yes"/>
      <point x="159" y="-19"/>
      <point x="83" y="18"/>
      <point x="21" y="67" type="curve"/>
    </contour>
  </outline>
</glyph>
<glyph name="u" format="2">
  <advance width="575"/>
  <unicode hex="0075"/>
  <outline>
    <contour>
      <point x="218" y="180" type="line" smooth="yes"/>
      <point x="218" y="127"/>
      <point x="235" y="96"/>
      <point x="284" y="96" type="curve" smooth="yes"/>
      <point x="332" y="96"/>
      <point x="364" y="126"/>
      <point x="364" y="180" type="curve" smooth="yes"/>
      <point x="364" y="460" type="line"/>
      <point x="516" y="460" type="line"/>
      <point x="516" y="0" type="line"/>
      <point x="364" y="0" type="line"/>
      <point x="364" y="69" type="line"/>
      <point x="337" y="19"/>
      <point x="292" y="-11"/>
      <point x="224" y="-11" type="curve" smooth="yes"/>
      <point x="110" y="-11"/>
      <point x="59" y="55"/>
      <point x="59" y="164" type="curve" smooth="yes"/>
      <point x="59" y="460" type="line"/>
      <point x="218" y="460" type="line"/>
    </contour>
  </outline>
</glyph>
<glyph name="w" format="2">
  <advance width="761"/>
  <unicode hex="0077"/>
  <outline>
    <contour>
      <point x="-8" y="460" type="line"/>
      <point x="151" y="460" type="line"/>
      <point x="247" y="225" type="line"/>
      <point x="379" y="495" type="line"/>
      <point x="514" y="224" type="line"/>
      <point x="610" y="460" type="line"/>
      <point x="769" y="460" type="line"/>
      <point x="531" y="-29" type="line"/>
      <point x="379" y="244" type="line"/>
      <point x="230" y="-29" type="line"/>
    </contour>
  </outline>
</glyph>
<glyph name="exclamdown" format="2">
  <advance width="343"/>
  <unicode hex="00A1"/>
  <outline>
    <contour>
      <point x="266" y="-229" type="line"/>
      <point x="78" y="-229" type="line"/>
      <point x="111" y="239" type="line"/>
      <point x="233" y="239" type="line"/>
    </contour>
    <contour>
      <point x="266" y="409" type="curve" smooth="yes"/>
      <point x="266" y="358"/>
      <point x="227" y="322"/>
      <point x="172" y="322" type="curve" smooth="yes"/>
      <point x="117" y="322"/>
      <point x="78" y="358"/>
      <point x="78" y="409" type="curve" smooth="yes"/>
      <point x="78" y="460"/>
      <point x="117" y="495"/>
      <point x="172" y="495" type="curve" smooth="yes"/>
      <point x="227" y="495"/>
      <point x="266" y="460"/>
    </contour>
  </outline>
</glyph>
<glyph name="cent" format="2">
  <advance width="580"/>
  <unicode hex="00A2"/>
  <outline>
    <contour>
      <point x="236" y="38" type="line"/>
      <point x="347" y="38" type="line"/>
      <point x="356" y="-112" type="line"/>
      <point x="227" y="-112" type="line"/>
    </contour>
    <contour>
      <point x="205" y="230" type="curve" smooth="yes"/>
      <point x="205" y="153"/>
      <point x="263" y="111"/>
      <point x="328" y="111" type="curve" smooth="yes"/>
      <point x="390" y="111"/>
      <point x="436" y="141"/>
      <point x="463" y="180" type="curve"/>
      <point x="463" y="30" type="line"/>
      <point x="431" y="4"/>
      <point x="379" y="-10"/>
      <point x="316" y="-10" type="curve" smooth="yes"/>
      <point x="162" y="-10"/>
      <point x="50" y="85"/>
      <point x="50" y="230" type="curve" smooth="yes"/>
      <point x="50" y="375"/>
      <point x="162" y="470"/>
      <point x="316" y="470" type="curve" smooth="yes"/>
      <point x="379" y="470"/>
      <point x="431" y="454"/>
      <point x="463" y="430" type="curve"/>
      <point x="463" y="280" type="line"/>
      <point x="436" y="319"/>
      <point x="390" y="349"/>
      <point x="328" y="349" type="curve" smooth="yes"/>
      <point x="263" y="349"/>
      <point x="205" y="301"/>
    </contour>
    <contour>
      <point x="227" y="578" type="line"/>
      <point x="356" y="578" type="line"/>
      <point x="347" y="428" type="line"/>
      <point x="236" y="428" type="line"/>
    </contour>
  </outline>
</glyph>
<glyph name="sterling" format="2">
  <advance width="611"/>
  <unicode hex="00A3"/>
  <outline>
    <contour>
      <point x="67" y="370" type="line"/>
      <point x="446" y="370" type="line"/>
      <point x="446" y="270" type="line"/>
      <point x="67" y="270" type="line"/>
    </contour>
    <contour>
      <point x="434" y="466" type="line"/>
      <point x="430" y="520"/>
      <point x="408" y="576"/>
      <point x="334" y="576" type="curve" smooth="yes"/>
      <point x="286" y="576"/>
      <point x="244" y="552"/>
      <point x="244" y="495" type="curve" smooth="yes"/>
      <point x="244" y="410"/>
      <point x="336" y="382"/>
      <point x="336" y="270" type="curve" smooth="yes"/>
      <point x="336" y="164"/>
      <point x="214" y="70"/>
      <point x="140" y="50" type="curve"/>
      <point x="192" y="139" type="line"/>
      <point x="539" y="139" type="line"/>
      <point x="539" y="0" type="line"/>
      <point x="52" y="0" type="line"/>
      <point x="150" y="102"/>
      <point x="189" y="186"/>
      <point x="189" y="286" type="curve" smooth="yes"/>
      <point x="189" y="380"/>
      <point x="85" y="404"/>
      <point x="85" y="521" type="curve" smooth="yes"/>
      <point x="85" y="640"/>
      <point x="195" y="710"/>
      <point x="327" y="710" type="curve" smooth="yes"/>
      <point x="479" y="710"/>
      <point x="566" y="603"/>
      <point x="571" y="517" type="curve"/>
    </contour>
  </outline>
</glyph>
<glyph name="yen" format="2">
  <advance width="669"/>
  <unicode hex="00A5"/>
  <outline>
    <contour>
      <point x="45" y="265" type="line"/>
      <point x="45" y="365" type="line"/>
      <point x="621" y="365" type="line"/>
      <point x="621" y="265" type="line"/>
    </contour>
    <contour>
      <point x="45" y="115" type="line"/>
      <point x="45" y="215" type="line"/>
      <point x="621" y="215" type="line"/>
      <point x="621" y="115" type="line"/>
    </contour>
    <contour>
      <point x="471" y="700" type="line"/>
      <point x="665" y="700" type="line"/>
      <point x="422" y="287" type="line"/>
      <point x="422" y="0" type="line"/>
      <point x="248" y="0" type="line"/>
      <point x="248" y="284" type="line"/>
      <point x="2" y="700" type="line"/>
      <point x="198" y="700" type="line"/>
      <point x="334" y="437" type="line"/>
    </contour>
  </outline>
</glyph>
<glyph name="brokenbar" format="2">
  <advance width="352"/>
  <unicode hex="00A6"/>
  <outline>
    <contour>
      <point x="100" y="695" type="line"/>
      <point x="253" y="695" type="line"/>
      <point x="253" y="430" type="line"/>
      <point x="100" y="430" type="line"/>
    </contour>
    <contour>
      <point x="253" y="270" type="line"/>
      <point x="253" y="5" type="line"/>
      <point x="100" y="5" type="line"/>
      <point x="100" y="270" type="line"/>
    </contour>
  </outline>
</glyph>
<glyph name="section" format="2">
  <advance width="577"/>
  <unicode hex="00A7"/>
  <outline>
    <contour>
      <point x="401" y="549" type="line"/>
      <point x="373" y="579"/>
      <point x="326" y="598"/>
      <point x="295" y="598" type="curve" smooth="yes"/>
      <point x="261" y="598"/>
      <point x="243" y="587"/>
      <point x="243" y="569" type="curve" smooth="yes"/>
      <point x="243" y="543"/>
      <point x="290" y="534"/>
      <point x="344" y="519" type="curve" smooth="yes"/>
      <point x="420" y="498"/>
      <point x="480" y="451"/>
      <point x="480" y="378" type="curve" smooth="yes"/>
      <point x="480" y="275"/>
      <point x="376" y="229"/>
      <point x="268" y="229" type="curve"/>
      <point x="268" y="271" type="line"/>
      <point x="306" y="277"/>
      <point x="343" y="303"/>
      <point x="343" y="344" type="curve" smooth="yes"/>
      <point x="343" y="398"/>
      <point x="274" y="416"/>
      <point x="222" y="436" type="curve" smooth="yes"/>
      <point x="164" y="458"/>
      <point x="99" y="495"/>
      <point x="99" y="578" type="curve" smooth="yes"/>
      <point x="99" y="675"/>
      <point x="195" y="724"/>
      <point x="285" y="724" type="curve" smooth="yes"/>
      <point x="365" y="724"/>
      <point x="444" y="689"/>
      <point x="472" y="648" type="curve"/>
    </contour>
    <contour>
      <point x="128" y="174" type="line"/>
      <point x="178" y="124"/>
      <point x="240" y="102"/>
      <point x="278" y="102" type="curve" smooth="yes"/>
      <point x="316" y="102"/>
      <point x="333" y="116"/>
      <point x="333" y="137" type="curve" smooth="yes"/>
      <point x="333" y="168"/>
      <point x="290" y="179"/>
      <point x="235" y="194" type="curve" smooth="yes"/>
      <point x="159" y="215"/>
      <point x="85" y="257"/>
      <point x="85" y="334" type="curve" smooth="yes"/>
      <point x="85" y="429"/>
      <point x="190" y="480"/>
      <point x="304" y="480" type="curve"/>
      <point x="304" y="442" type="line"/>
      <point x="263" y="428"/>
      <point x="227" y="410"/>
      <point x="227" y="369" type="curve" smooth="yes"/>
      <point x="227" y="309"/>
      <point x="307" y="299"/>
      <point x="358" y="278" type="curve" smooth="yes"/>
      <point x="423" y="251"/>
      <point x="485" y="210"/>
      <point x="485" y="130" type="curve" smooth="yes"/>
      <point x="485" y="25"/>
      <point x="385" y="-22"/>
      <point x="286" y="-22" type="curve" smooth="yes"/>
      <point x="176" y="-22"/>
      <point x="101" y="20"/>
      <point x="56" y="76" type="curve"/>
    </contour>
  </outline>
</glyph>
<glyph name="dieresis" format="2">
  <advance width="511"/>
  <unicode hex="00A8"/>
  <outline>
    <contour>
      <point x="289" y="632" type="curve" smooth="yes"/>
      <point x="289" y="680"/>
      <point x="329" y="714"/>
      <point x="378" y="714" type="curve" smooth="yes"/>
      <point x="427" y="714"/>
      <point x="466" y="680"/>
      <point x="466" y="632" type="curve" smooth="yes"/>
      <point x="466" y="584"/>
      <point x="427" y="550"/>
      <point x="378" y="550" type="curve" smooth="yes"/>
      <point x="329" y="550"/>
      <point x="289" y="584"/>
    </contour>
    <contour>
      <point x="46" y="632" type="curve" smooth="yes"/>
      <point x="46" y="680"/>
      <point x="85" y="714"/>
      <point x="134" y="714" type="curve" smooth="yes"/>
      <point x="183" y="714"/>
      <point x="222" y="680"/>
      <point x="222" y="632" type="curve" smooth="yes"/>
      <point x="222" y="584"/>
      <point x="183" y="550"/>
      <point x="134" y="550" type="curve" smooth="yes"/>
      <point x="85" y="550"/>
      <point x="46" y="584"/>
    </contour>
  </outline>
</glyph>
<glyph name="copyright" format="2">
  <advance width="800"/>
  <unicode hex="00A9"/>
  <outline>
    <contour>
      <point x="289" y="350" type="curve" smooth="yes"/>
      <point x="289" y="273"/>
      <point x="345" y="227"/>
      <point x="415" y="227" type="curve" smooth="yes"/>
      <point x="474" y="227"/>
      <point x="513" y="253"/>
      <point x="540" y="283" type="curve"/>
      <point x="540" y="172" type="line"/>
      <point x="506" y="146"/>
      <point x="470" y="130"/>
      <point x="409" y="130" type="curve" smooth="yes"/>
      <point x="274" y="130"/>
      <point x="178" y="219"/>
      <point x="178" y="350" type="curve" smooth="yes"/>
      <point x="178" y="481"/>
      <point x="274" y="570"/>
      <point x="409" y="570" type="curve" smooth="yes"/>
      <point x="470" y="570"/>
      <point x="506" y="554"/>
      <point x="540" y="528" type="curve"/>
      <point x="540" y="417" type="line"/>
      <point x="513" y="447"/>
      <point x="474" y="473"/>
      <point x="415" y="473" type="curve" smooth="yes"/>
      <point x="345" y="473"/>
      <point x="289" y="427"/>
    </contour>
    <contour>
      <point x="95" y="350" type="curve" smooth="yes"/>
      <point x="95" y="172"/>
      <point x="227" y="40"/>
      <point x="400" y="40" type="curve" smooth="yes"/>
      <point x="573" y="40"/>
      <point x="705" y="172"/>
      <point x="705" y="350" type="curve" smooth="yes"/>
      <point x="705" y="528"/>
      <point x="573" y="660"/>
      <point x="400" y="660" type="curve" smooth="yes"/>
      <point x="227" y="660"/>
      <point x="95" y="528"/>
    </contour>
    <contour>
      <point x="40" y="350" type="curve" smooth="yes"/>
      <point x="40" y="559"/>
      <point x="196" y="710"/>
      <point x="400" y="710" type="curve" smooth="yes"/>
      <point x="604" y="710"/>
      <point x="760" y="559"/>
      <point x="760" y="350" type="curve" smooth="yes"/>
      <point x="760" y="141"/>
      <point x="604" y="-10"/>
      <point x="400" y="-10" type="curve" smooth="yes"/>
      <point x="196" y="-10"/>
      <point x="40" y="141"/>
    </contour>
  </outline>
</glyph>
<glyph name="guillemotleft" format="2">
  <advance width="541"/>
  <unicode hex="00AB"/>
  <outline>
    <contour>
      <point x="352" y="259" type="line"/>
      <point x="502" y="65" type="line"/>
      <point x="409" y="1" type="line"/>
      <point x="231" y="255" type="line"/>
      <point x="409" y="509" type="line"/>
      <point x="502" y="445" type="line"/>
    </contour>
    <contour>
      <point x="149" y="259" type="line"/>
      <point x="299" y="65" type="line"/>
      <point x="205" y="1" type="line"/>
      <point x="28" y="255" type="line"/>
      <point x="205" y="509" type="line"/>
      <point x="299" y="445" type="line"/>
    </contour>
  </outline>
</glyph>
<glyph name="macron" format="2">
  <advance width="531"/>
  <unicode hex="00AF"/>
  <outline>
    <contour>
      <point x="80" y="572" type="line"/>
      <point x="80" y="703" type="line"/>
      <point x="452" y="703" type="line"/>
      <point x="452" y="572" type="line"/>
    </contour>
  </outline>
</glyph>
<glyph name="uni00B3" format="2">
  <advance width="365"/>
  <unicode hex="00B3"/>
  <outline>
    <contour>
      <point x="154" y="483" type="curve"/>
      <point x="154" y="529" type="line"/>
      <point x="200" y="529"/>
      <point x="232" y="555"/>
      <point x="232" y="586" type="curve" smooth="yes"/>
      <point x="232" y="611"/>
      <point x="216" y="627"/>
      <point x="184" y="627" type="curve" smooth="yes"/>
      <point x="152" y="627"/>
      <point x="130" y="607"/>
      <point x="130" y="577" type="curve"/>
      <point x="36" y="577" type="line"/>
      <point x="36" y="651"/>
      <point x="94" y="708"/>
      <point x="184" y="708" type="curve" smooth="yes"/>
      <point x="278" y="708"/>
      <point x="332" y="657"/>
      <point x="332" y="592" type="curve" smooth="yes"/>
      <point x="332" y="520"/>
      <point x="254" y="483"/>
    </contour>
    <contour>
      <point x="180" y="270" type="curve" smooth="yes"/>
      <point x="78" y="270"/>
      <point x="18" y="340"/>
      <point x="18" y="414" type="curve"/>
      <point x="118" y="414" type="line"/>
      <point x="118" y="372"/>
      <point x="148" y="352"/>
      <point x="183" y="352" type="curve" smooth="yes"/>
      <point x="218" y="352"/>
      <point x="244" y="367"/>
      <point x="244" y="404" type="curve" smooth="yes"/>
      <point x="244" y="439"/>
      <point x="216" y="464"/>
      <point x="154" y="464" type="curve"/>
      <point x="154" y="515" type="line"/>
      <point x="265" y="515"/>
      <point x="344" y="480"/>
      <point x="344" y="395" type="curve" smooth="yes"/>
      <point x="344" y="322"/>
      <point x="283" y="270"/>
    </contour>
  </outline>
</glyph>
<glyph name="mu" format="2">
  <advance width="575"/>
  <unicode hex="00B5"/>
  <outline>
    <contour>
      <point x="218" y="460" type="line"/>
      <point x="218" y="205" type="line" smooth="yes"/>
      <point x="218" y="151"/>
      <point x="235" y="121"/>
      <point x="284" y="121" type="curve" smooth="yes"/>
      <point x="332" y="121"/>
      <point x="364" y="151"/>
      <point x="364" y="205" type="curve" smooth="yes"/>
      <point x="364" y="460" type="line"/>
      <point x="516" y="460" type="line"/>
      <point x="516" y="0" type="line"/>
      <point x="364" y="0" type="line"/>
      <point x="364" y="53" type="line"/>
      <point x="344" y="21"/>
      <point x="311" y="-4"/>
      <point x="271" y="-4" type="curve" smooth="yes"/>
      <point x="249" y="-4"/>
      <point x="229" y="0"/>
      <point x="205" y="16" type="curve"/>
      <point x="205" y="-320" type="line"/>
      <point x="59" y="-320" type="line"/>
      <point x="59" y="460" type="line"/>
    </contour>
  </outline>
</glyph>
<glyph name="periodcentered" format="2">
  <advance width="322"/>
  <unicode hex="00B7"/>
  <outline>
    <contour>
      <point x="67" y="268" type="curve" smooth="yes"/>
      <point x="67" y="319"/>
      <point x="106" y="361"/>
      <point x="161" y="361" type="curve" smooth="yes"/>
      <point x="216" y="361"/>
      <point x="256" y="319"/>
      <point x="256" y="268" type="curve" smooth="yes"/>
      <point x="256" y="217"/>
      <point x="216" y="176"/>
      <point x="161" y="176" type="curve" smooth="yes"/>
      <point x="106" y="176"/>
      <point x="67" y="217"/>
    </contour>
  </outline>
</glyph>
<glyph name="cedilla" format="2">
  <advance width="393"/>
  <unicode hex="00B8"/>
  <outline>
    <contour>
      <point x="184" y="71" type="line"/>
      <point x="294" y="68" type="line"/>
      <point x="207" y="-54" type="line"/>
      <point x="218" y="-51"/>
      <point x="231" y="-51"/>
      <point x="244" y="-51" type="curve" smooth="yes"/>
      <point x="284" y="-51"/>
      <point x="336" y="-82"/>
      <point x="336" y="-148" type="curve" smooth="yes"/>
      <point x="336" y="-220"/>
      <point x="267" y="-258"/>
      <point x="204" y="-258" type="curve" smooth="yes"/>
      <point x="148" y="-258"/>
      <point x="107" y="-248"/>
      <point x="60" y="-218" type="curve"/>
      <point x="106" y="-150" type="line"/>
      <point x="131" y="-168"/>
      <point x="164" y="-175"/>
      <point x="184" y="-175" type="curve" smooth="yes"/>
      <point x="218" y="-175"/>
      <point x="239" y="-164"/>
      <point x="239" y="-140" type="curve" smooth="yes"/>
      <point x="239" y="-114"/>
      <point x="209" y="-108"/>
      <point x="178" y="-108" type="curve" smooth="yes"/>
      <point x="168" y="-108"/>
      <point x="131" y="-110"/>
      <point x="96" y="-124" type="curve"/>
    </contour>
  </outline>
</glyph>
<glyph name="uni00B9" format="2">
  <advance width="482"/>
  <unicode hex="00B9"/>
  <outline>
    <contour>
      <point x="133" y="572" type="line"/>
      <point x="133" y="661" type="line"/>
      <point x="335" y="702" type="line"/>
      <point x="335" y="274" type="line"/>
      <point x="238" y="274" type="line"/>
      <point x="238" y="598" type="line"/>
    </contour>
  </outline>
</glyph>
<glyph name="ordmasculine" format="2">
  <advance width="278"/>
  <unicode hex="00BA"/>
  <outline>
    <contour>
      <point x="19" y="580" type="curve" smooth="yes"/>
      <point x="19" y="652"/>
      <point x="74" y="700"/>
      <point x="150" y="700" type="curve" smooth="yes"/>
      <point x="226" y="700"/>
      <point x="282" y="652"/>
      <point x="282" y="580" type="curve" smooth="yes"/>
      <point x="282" y="508"/>
      <point x="226" y="460"/>
      <point x="150" y="460" type="curve" smooth="yes"/>
      <point x="74" y="460"/>
      <point x="19" y="508"/>
    </contour>
    <contour>
      <point x="96" y="580" type="curve" smooth="yes"/>
      <point x="96" y="544"/>
      <point x="121" y="523"/>
      <point x="150" y="523" type="curve" smooth="yes"/>
      <point x="179" y="523"/>
      <point x="204" y="544"/>
      <point x="204" y="580" type="curve" smooth="yes"/>
      <point x="204" y="616"/>
      <point x="179" y="638"/>
      <point x="150" y="638" type="curve" smooth="yes"/>
      <point x="121" y="638"/>
      <point x="96" y="616"/>
    </contour>
  </outline>
</glyph>
<glyph name="guillemotright" format="2">
  <advance width="541"/>
  <unicode hex="00BB"/>
  <outline>
    <contour>
      <point x="189" y="251" type="line"/>
      <point x="39" y="445" type="line"/>
      <point x="132" y="509" type="line"/>
      <point x="310" y="255" type="line"/>
      <point x="132" y="1" type="line"/>
      <point x="39" y="65" type="line"/>
    </contour>
    <contour>
      <point x="393" y="251" type="line"/>
      <point x="242" y="445" type="line"/>
      <point x="336" y="509" type="line"/>
      <point x="514" y="255" type="line"/>
      <point x="336" y="1" type="line"/>
      <point x="242" y="65" type="line"/>
    </contour>
  </outline>
</glyph>
<glyph name="onehalf" format="2">
  <advance width="894"/>
  <unicode hex="00BD"/>
  <outline>
    <contour>
      <point x="630" y="700" type="line"/>
      <point x="727" y="700" type="line"/>
      <point x="207" y="0" type="line"/>
      <point x="110" y="0" type="line"/>
    </contour>
    <contour>
      <point x="24" y="572" type="line"/>
      <point x="24" y="661" type="line"/>
      <point x="226" y="702" type="line"/>
      <point x="226" y="274" type="line"/>
      <point x="128" y="274" type="line"/>
      <point x="128" y="598" type="line"/>
    </contour>
    <contour>
      <point x="506" y="2" type="line"/>
      <point x="693" y="196" type="line" smooth="yes"/>
      <point x="727" y="232"/>
      <point x="747" y="257"/>
      <point x="747" y="290" type="curve" smooth="yes"/>
      <point x="747" y="317"/>
      <point x="729" y="344"/>
      <point x="691" y="344" type="curve" smooth="yes"/>
      <point x="652" y="344"/>
      <point x="626" y="312"/>
      <point x="626" y="267" type="curve"/>
      <point x="526" y="267" type="line"/>
      <point x="526" y="356"/>
      <point x="584" y="431"/>
      <point x="694" y="431" type="curve" smooth="yes"/>
      <point x="798" y="431"/>
      <point x="851" y="360"/>
      <point x="851" y="295" type="curve" smooth="yes"/>
      <point x="851" y="250"/>
      <point x="827" y="213"/>
      <point x="791" y="182" type="curve" smooth="yes"/>
      <point x="694" y="95" type="line"/>
      <point x="862" y="95" type="line"/>
      <point x="862" y="2" type="line"/>
    </contour>
  </outline>
</glyph>
<glyph name="threequarters" format="2">
  <advance width="879"/>
  <unicode hex="00BE"/>
  <outline>
    <contour>
      <point x="694" y="700" type="line"/>
      <point x="791" y="700" type="line"/>
      <point x="271" y="0" type="line"/>
      <point x="174" y="0" type="line"/>
    </contour>
    <contour>
      <point x="162" y="483" type="curve"/>
      <point x="162" y="529" type="line"/>
      <point x="208" y="529"/>
      <point x="240" y="555"/>
      <point x="240" y="586" type="curve" smooth="yes"/>
      <point x="240" y="611"/>
      <point x="224" y="627"/>
      <point x="192" y="627" type="curve" smooth="yes"/>
      <point x="160" y="627"/>
      <point x="138" y="607"/>
      <point x="138" y="577" type="curve"/>
      <point x="44" y="577" type="line"/>
      <point x="44" y="651"/>
      <point x="103" y="708"/>
      <point x="193" y="708" type="curve" smooth="yes"/>
      <point x="287" y="708"/>
      <point x="340" y="657"/>
      <point x="340" y="592" type="curve" smooth="yes"/>
      <point x="340" y="520"/>
      <point x="262" y="483"/>
    </contour>
    <contour>
      <point x="188" y="270" type="curve" smooth="yes"/>
      <point x="86" y="270"/>
      <point x="26" y="340"/>
      <point x="26" y="414" type="curve"/>
      <point x="126" y="414" type="line"/>
      <point x="126" y="372"/>
      <point x="157" y="352"/>
      <point x="192" y="352" type="curve" smooth="yes"/>
      <point x="227" y="352"/>
      <point x="252" y="367"/>
      <point x="252" y="404" type="curve" smooth="yes"/>
      <point x="252" y="439"/>
      <point x="224" y="464"/>
      <point x="162" y="464" type="curve"/>
      <point x="162" y="515" type="line"/>
      <point x="273" y="515"/>
      <point x="352" y="480"/>
      <point x="352" y="395" type="curve" smooth="yes"/>
      <point x="352" y="322"/>
      <point x="291" y="270"/>
    </contour>
    <contour>
      <point x="464" y="75" type="line"/>
      <point x="548" y="148" type="line"/>
      <point x="733" y="148" type="line" smooth="yes"/>
      <point x="743" y="161" type="line" smooth="yes"/>
      <point x="850" y="161" type="line"/>
      <point x="850" y="75" type="line"/>
    </contour>
    <contour>
      <point x="567" y="105" type="line"/>
      <point x="464" y="75" type="line"/>
      <point x="709" y="420" type="line"/>
      <point x="784" y="420" type="line"/>
      <point x="784" y="0" type="line"/>
      <point x="679" y="0" type="line"/>
      <point x="679" y="97" type="line" smooth="yes"/>
      <point x="690" y="103" type="line" smooth="yes"/>
      <point x="690" y="273" type="line"/>
    </contour>
  </outline>
</glyph>
<glyph name="questiondown" format="2">
  <advance width="627"/>
  <unicode hex="00BF"/>
  <outline>
    <contour>
      <point x="207" y="200" type="curve" smooth="yes"/>
      <point x="207" y="142"/>
      <point x="248" y="109"/>
      <point x="319" y="109" type="curve" smooth="yes"/>
      <point x="380" y="109"/>
      <point x="440" y="140"/>
      <point x="477" y="196" type="curve"/>
      <point x="580" y="111" type="line"/>
      <point x="509" y="29"/>
      <point x="428" y="-19"/>
      <point x="309" y="-19" type="curve" smooth="yes"/>
      <point x="178" y="-19"/>
      <point x="54" y="62"/>
      <point x="54" y="200" type="curve" smooth="yes"/>
      <point x="54" y="322"/>
      <point x="161" y="397"/>
      <point x="268" y="415" type="curve"/>
      <point x="273" y="499" type="line"/>
      <point x="395" y="499" type="line"/>
      <point x="415" y="321" type="line"/>
      <point x="383" y="321" type="line" smooth="yes"/>
      <point x="263" y="321"/>
      <point x="207" y="251"/>
    </contour>
    <contour>
      <point x="428" y="641" type="curve" smooth="yes"/>
      <point x="428" y="597"/>
      <point x="388" y="558"/>
      <point x="333" y="558" type="curve" smooth="yes"/>
      <point x="278" y="558"/>
      <point x="239" y="597"/>
      <point x="239" y="641" type="curve" smooth="yes"/>
      <point x="239" y="685"/>
      <point x="278" y="724"/>
      <point x="333" y="724" type="curve" smooth="yes"/>
      <point x="388" y="724"/>
      <point x="428" y="685"/>
    </contour>
  </outline>
</glyph>
<glyph name="Agrave" format="2">
  <advance width="735"/>
  <unicode hex="00C0"/>
  <outline>
    <contour>
      <point x="184" y="135" type="line"/>
      <point x="196" y="264" type="line"/>
      <point x="543" y="264" type="line"/>
      <point x="554" y="135" type="line"/>
    </contour>
    <contour>
      <point x="368" y="442" type="line"/>
      <point x="270" y="217" type="line"/>
      <point x="277" y="179" type="line"/>
      <point x="191" y="0" type="line"/>
      <point x="-1" y="0" type="line"/>
      <point x="368" y="744" type="line"/>
      <point x="736" y="0" type="line"/>
      <point x="544" y="0" type="line"/>
      <point x="460" y="172" type="line"/>
      <point x="466" y="216" type="line"/>
    </contour>
    <contour>
      <point x="206" y="954" type="line"/>
      <point x="322" y="1007" type="line"/>
      <point x="472" y="847" type="line"/>
      <point x="386" y="804" type="line"/>
    </contour>
  </outline>
</glyph>
<glyph name="Acircumflex" format="2">
  <advance width="735"/>
  <unicode hex="00C2"/>
  <outline>
    <contour>
      <point x="184" y="135" type="line"/>
      <point x="196" y="264" type="line"/>
      <point x="543" y="264" type="line"/>
      <point x="554" y="135" type="line"/>
    </contour>
    <contour>
      <point x="368" y="442" type="line"/>
      <point x="270" y="217" type="line"/>
      <point x="277" y="179" type="line"/>
      <point x="191" y="0" type="line"/>
      <point x="-1" y="0" type="line"/>
      <point x="368" y="744" type="line"/>
      <point x="736" y="0" type="line"/>
      <point x="544" y="0" type="line"/>
      <point x="460" y="172" type="line"/>
      <point x="466" y="216" type="line"/>
    </contour>
    <contour>
      <point x="368" y="875" type="line"/>
      <point x="276" y="789" type="line"/>
      <point x="170" y="861" type="line"/>
      <point x="368" y="1001" type="line"/>
      <point x="565" y="861" type="line"/>
      <point x="459" y="789" type="line"/>
    </contour>
  </outline>
</glyph>
<glyph name="Atilde" format="2">
  <advance width="735"/>
  <unicode hex="00C3"/>
  <outline>
    <contour>
      <point x="184" y="135" type="line"/>
      <point x="196" y="264" type="line"/>
      <point x="543" y="264" type="line"/>
      <point x="554" y="135" type="line"/>
    </contour>
    <contour>
      <point x="368" y="442" type="line"/>
      <point x="270" y="217" type="line"/>
      <point x="277" y="179" type="line"/>
      <point x="191" y="0" type="line"/>
      <point x="-1" y="0" type="line"/>
      <point x="368" y="744" type="line"/>
      <point x="736" y="0" type="line"/>
      <point x="544" y="0" type="line"/>
      <point x="460" y="172" type="line"/>
      <point x="466" y="216" type="line"/>
    </contour>
    <contour>
      <point x="171" y="863" type="line"/>
      <point x="181" y="912"/>
      <point x="227" y="957"/>
      <point x="291" y="957" type="curve" smooth="yes"/>
      <point x="357" y="957"/>
      <point x="371" y="905"/>
      <point x="427" y="905" type="curve" smooth="yes"/>
      <point x="452" y="905"/>
      <point x="473" y="926"/>
      <point x="493" y="958" type="curve"/>
      <point x="564" y="884" type="line"/>
      <point x="548" y="847"/>
      <point x="492" y="798"/>
      <point x="430" y="798" type="curve" smooth="yes"/>
      <point x="375" y="798"/>
      <point x="339" y="852"/>
      <point x="290" y="852" type="curve" smooth="yes"/>
      <point x="252" y="852"/>
      <point x="243" y="816"/>
      <point x="243" y="801" type="curve"/>
    </contour>
  </outline>
</glyph>
<glyph name="Adieresis" format="2">
  <advance width="735"/>
  <unicode hex="00C4"/>
  <outline>
    <contour>
      <point x="184" y="135" type="line"/>
      <point x="196" y="264" type="line"/>
      <point x="543" y="264" type="line"/>
      <point x="554" y="135" type="line"/>
    </contour>
    <contour>
      <point x="368" y="442" type="line"/>
      <point x="270" y="217" type="line"/>
      <point x="277" y="179" type="line"/>
      <point x="191" y="0" type="line"/>
      <point x="-1" y="0" type="line"/>
      <point x="368" y="744" type="line"/>
      <point x="736" y="0" type="line"/>
      <point x="544" y="0" type="line"/>
      <point x="460" y="172" type="line"/>
      <point x="466" y="216" type="line"/>
    </contour>
    <contour>
      <point x="420" y="830" type="curve" smooth="yes"/>
      <point x="420" y="878"/>
      <point x="459" y="912"/>
      <point x="508" y="912" type="curve" smooth="yes"/>
      <point x="557" y="912"/>
      <point x="596" y="878"/>
      <point x="596" y="830" type="curve" smooth="yes"/>
      <point x="596" y="782"/>
      <point x="557" y="748"/>
      <point x="508" y="748" type="curve" smooth="yes"/>
      <point x="459" y="748"/>
      <point x="420" y="782"/>
    </contour>
    <contour>
      <point x="132" y="836" type="curve" smooth="yes"/>
      <point x="132" y="884"/>
      <point x="172" y="918"/>
      <point x="221" y="918" type="curve" smooth="yes"/>
      <point x="270" y="918"/>
      <point x="309" y="884"/>
      <point x="309" y="836" type="curve" smooth="yes"/>
      <point x="309" y="788"/>
      <point x="270" y="754"/>
      <point x="221" y="754" type="curve" smooth="yes"/>
      <point x="172" y="754"/>
      <point x="132" y="788"/>
    </contour>
  </outline>
</glyph>
<glyph name="AE" format="2">
  <advance width="1085"/>
  <unicode hex="00C6"/>
  <outline>
    <contour>
      <point x="270" y="151" type="line"/>
      <point x="276" y="306" type="line"/>
      <point x="576" y="306" type="line"/>
      <point x="576" y="151" type="line"/>
    </contour>
    <contour>
      <point x="438" y="700" type="line"/>
      <point x="601" y="660" type="line"/>
      <point x="228" y="0" type="line"/>
      <point x="14" y="0" type="line"/>
    </contour>
    <contour>
      <point x="631" y="0" type="line"/>
      <point x="631" y="139" type="line"/>
      <point x="1015" y="139" type="line"/>
      <point x="1015" y="0" type="line"/>
    </contour>
    <contour>
      <point x="639" y="561" type="line"/>
      <point x="438" y="700" type="line"/>
      <point x="1015" y="700" type="line"/>
      <point x="1015" y="561" type="line"/>
    </contour>
    <contour>
      <point x="631" y="299" type="line"/>
      <point x="631" y="436" type="line"/>
      <point x="995" y="436" type="line"/>
      <point x="995" y="299" type="line"/>
    </contour>
    <contour>
      <point x="549" y="700" type="line"/>
      <point x="731" y="700" type="line"/>
      <point x="731" y="0" type="line"/>
      <point x="549" y="0" type="line"/>
    </contour>
  </outline>
</glyph>
<glyph name="Ccedilla" format="2">
  <advance width="700"/>
  <unicode hex="00C7"/>
  <outline>
    <contour>
      <point x="219" y="350" type="curve" smooth="yes"/>
      <point x="219" y="221"/>
      <point x="315" y="145"/>
      <point x="428" y="145" type="curve" smooth="yes"/>
      <point x="527" y="145"/>
      <point x="591" y="188"/>
      <point x="637" y="238" type="curve"/>
      <point x="637" y="54" type="line"/>
      <point x="581" y="11"/>
      <point x="520" y="-16"/>
      <point x="418" y="-16" type="curve" smooth="yes"/>
      <point x="193" y="-16"/>
      <point x="34" y="132"/>
      <point x="34" y="350" type="curve" smooth="yes"/>
      <point x="34" y="568"/>
      <point x="193" y="716"/>
      <point x="418" y="716" type="curve" smooth="yes"/>
      <point x="520" y="716"/>
      <point x="581" y="689"/>
      <point x="637" y="646" type="curve"/>
      <point x="637" y="462" type="line"/>
      <point x="591" y="512"/>
      <point x="527" y="555"/>
      <point x="428" y="555" type="curve" smooth="yes"/>
      <point x="315" y="555"/>
      <point x="219" y="479"/>
    </contour>
    <contour>
      <point x="358" y="48" type="line"/>
      <point x="468" y="45" type="line"/>
      <point x="382" y="-77" type="line"/>
      <point x="393" y="-74"/>
      <point x="405" y="-74"/>
      <point x="418" y="-74" type="curve" smooth="yes"/>
      <point x="458" y="-74"/>
      <point x="510" y="-105"/>
      <point x="510" y="-171" type="curve" smooth="yes"/>
      <point x="510" y="-243"/>
      <point x="442" y="-280"/>
      <point x="379" y="-280" type="curve" smooth="yes"/>
      <point x="323" y="-280"/>
      <point x="281" y="-271"/>
      <point x="234" y="-241" type="curve"/>
      <point x="280" y="-172" type="line"/>
      <point x="305" y="-190"/>
      <point x="339" y="-198"/>
      <point x="359" y="-198" type="curve" smooth="yes"/>
      <point x="393" y="-198"/>
      <point x="413" y="-187"/>
      <point x="413" y="-163" type="curve" smooth="yes"/>
      <point x="413" y="-137"/>
      <point x="384" y="-130"/>
      <point x="353" y="-130" type="curve" smooth="yes"/>
      <point x="343" y="-130"/>
      <point x="305" y="-133"/>
      <point x="270" y="-147" type="curve"/>
    </contour>
  </outline>
</glyph>
<glyph name="Egrave" format="2">
  <advance width="603"/>
  <unicode hex="00C8"/>
  <outline>
    <contour>
      <point x="186" y="0" type="line"/>
      <point x="186" y="139" type="line"/>
      <point x="539" y="139" type="line"/>
      <point x="539" y="0" type="line"/>
    </contour>
    <contour>
      <point x="186" y="561" type="line"/>
      <point x="186" y="700" type="line"/>
      <point x="539" y="700" type="line"/>
      <point x="539" y="561" type="line"/>
    </contour>
    <contour>
      <point x="186" y="299" type="line"/>
      <point x="186" y="436" type="line"/>
      <point x="519" y="436" type="line"/>
      <point x="519" y="299" type="line"/>
    </contour>
    <contour>
      <point x="74" y="700" type="line"/>
      <point x="237" y="700" type="line"/>
      <point x="237" y="0" type="line"/>
      <point x="74" y="0" type="line"/>
    </contour>
    <contour>
      <point x="145" y="932" type="line"/>
      <point x="261" y="985" type="line"/>
      <point x="411" y="825" type="line"/>
      <point x="325" y="782" type="line"/>
    </contour>
  </outline>
</glyph>
<glyph name="Eacute" format="2">
  <advance width="603"/>
  <unicode hex="00C9"/>
  <outline>
    <contour>
      <point x="186" y="0" type="line"/>
      <point x="186" y="139" type="line"/>
      <point x="539" y="139" type="line"/>
      <point x="539" y="0" type="line"/>
    </contour>
    <contour>
      <point x="186" y="561" type="line"/>
      <point x="186" y="700" type="line"/>
      <point x="539" y="700" type="line"/>
      <point x="539" y="561" type="line"/>
    </contour>
    <contour>
      <point x="186" y="299" type="line"/>
      <point x="186" y="436" type="line"/>
      <point x="519" y="436" type="line"/>
      <point x="519" y="299" type="line"/>
    </contour>
    <contour>
      <point x="74" y="700" type="line"/>
      <point x="237" y="700" type="line"/>
      <point x="237" y="0" type="line"/>
      <point x="74" y="0" type="line"/>
    </contour>
    <contour>
      <point x="465" y="932" type="line"/>
      <point x="285" y="782" type="line"/>
      <point x="199" y="825" type="line"/>
      <point x="349" y="985" type="line"/>
    </contour>
  </outline>
</glyph>
<glyph name="Ecircumflex" format="2">
  <advance width="603"/>
  <unicode hex="00CA"/>
  <outline>
    <contour>
      <point x="186" y="0" type="line"/>
      <point x="186" y="139" type="line"/>
      <point x="539" y="139" type="line"/>
      <point x="539" y="0" type="line"/>
    </contour>
    <contour>
      <point x="186" y="561" type="line"/>
      <point x="186" y="700" type="line"/>
      <point x="539" y="700" type="line"/>
      <point x="539" y="561" type="line"/>
    </contour>
    <contour>
      <point x="186" y="299" type="line"/>
      <point x="186" y="436" type="line"/>
      <point x="519" y="436" type="line"/>
      <point x="519" y="299" type="line"/>
    </contour>
    <contour>
      <point x="74" y="700" type="line"/>
      <point x="237" y="700" type="line"/>
      <point x="237" y="0" type="line"/>
      <point x="74" y="0" type="line"/>
    </contour>
    <contour>
      <point x="314" y="862" type="line"/>
      <point x="222" y="776" type="line"/>
      <point x="116" y="848" type="line"/>
      <point x="314" y="988" type="line"/>
      <point x="511" y="848" type="line"/>
      <point x="405" y="776" type="line"/>
    </contour>
  </outline>
</glyph>
<glyph name="Edieresis" format="2">
  <advance width="603"/>
  <unicode hex="00CB"/>
  <outline>
    <contour>
      <point x="186" y="0" type="line"/>
      <point x="186" y="139" type="line"/>
      <point x="539" y="139" type="line"/>
      <point x="539" y="0" type="line"/>
    </contour>
    <contour>
      <point x="186" y="561" type="line"/>
      <point x="186" y="700" type="line"/>
      <point x="539" y="700" type="line"/>
      <point x="539" y="561" type="line"/>
    </contour>
    <contour>
      <point x="186" y="299" type="line"/>
      <point x="186" y="436" type="line"/>
      <point x="519" y="436" type="line"/>
      <point x="519" y="299" type="line"/>
    </contour>
    <contour>
      <point x="74" y="700" type="line"/>
      <point x="237" y="700" type="line"/>
      <point x="237" y="0" type="line"/>
      <point x="74" y="0" type="line"/>
    </contour>
    <contour>
      <point x="344" y="866" type="curve" smooth="yes"/>
      <point x="344" y="914"/>
      <point x="383" y="948"/>
      <point x="432" y="948" type="curve" smooth="yes"/>
      <point x="481" y="948"/>
      <point x="521" y="914"/>
      <point x="521" y="866" type="curve" smooth="yes"/>
      <point x="521" y="818"/>
      <point x="481" y="784"/>
      <point x="432" y="784" type="curve" smooth="yes"/>
      <point x="383" y="784"/>
      <point x="344" y="818"/>
    </contour>
    <contour>
      <point x="101" y="866" type="curve" smooth="yes"/>
      <point x="101" y="914"/>
      <point x="140" y="948"/>
      <point x="189" y="948" type="curve" smooth="yes"/>
      <point x="238" y="948"/>
      <point x="277" y="914"/>
      <point x="277" y="866" type="curve" smooth="yes"/>
      <point x="277" y="818"/>
      <point x="238" y="784"/>
      <point x="189" y="784" type="curve" smooth="yes"/>
      <point x="140" y="784"/>
      <point x="101" y="818"/>
    </contour>
  </outline>
</glyph>
<glyph name="Igrave" format="2">
  <advance width="320"/>
  <unicode hex="00CC"/>
  <outline>
    <contour>
      <point x="74" y="700" type="line"/>
      <point x="246" y="700" type="line"/>
      <point x="246" y="0" type="line"/>
      <point x="74" y="0" type="line"/>
    </contour>
    <contour>
      <point x="-8" y="932" type="line"/>
      <point x="108" y="985" type="line"/>
      <point x="258" y="825" type="line"/>
      <point x="172" y="782" type="line"/>
    </contour>
  </outline>
</glyph>
<glyph name="Icircumflex" format="2">
  <advance width="320"/>
  <unicode hex="00CE"/>
  <outline>
    <contour>
      <point x="74" y="700" type="line"/>
      <point x="246" y="700" type="line"/>
      <point x="246" y="0" type="line"/>
      <point x="74" y="0" type="line"/>
    </contour>
    <contour>
      <point x="160" y="862" type="line"/>
      <point x="69" y="776" type="line"/>
      <point x="-38" y="848" type="line"/>
      <point x="160" y="988" type="line"/>
      <point x="357" y="848" type="line"/>
      <point x="251" y="776" type="line"/>
    </contour>
  </outline>
</glyph>
<glyph name="Idieresis" format="2">
  <advance width="320"/>
  <unicode hex="00CF"/>
  <outline>
    <contour>
      <point x="74" y="700" type="line"/>
      <point x="246" y="700" type="line"/>
      <point x="246" y="0" type="line"/>
      <point x="74" y="0" type="line"/>
    </contour>
    <contour>
      <point x="194" y="858" type="curve" smooth="yes"/>
      <point x="194" y="906"/>
      <point x="233" y="940"/>
      <point x="282" y="940" type="curve" smooth="yes"/>
      <point x="331" y="940"/>
      <point x="370" y="906"/>
      <point x="370" y="858" type="curve" smooth="yes"/>
      <point x="370" y="810"/>
      <point x="331" y="776"/>
      <point x="282" y="776" type="curve" smooth="yes"/>
      <point x="233" y="776"/>
      <point x="194" y="810"/>
    </contour>
    <contour>
      <point x="-50" y="858" type="curve" smooth="yes"/>
      <point x="-50" y="906"/>
      <point x="-11" y="940"/>
      <point x="38" y="940" type="curve" smooth="yes"/>
      <point x="87" y="940"/>
      <point x="127" y="906"/>
      <point x="127" y="858" type="curve" smooth="yes"/>
      <point x="127" y="810"/>
      <point x="87" y="776"/>
      <point x="38" y="776" type="curve" smooth="yes"/>
      <point x="-11" y="776"/>
      <point x="-50" y="810"/>
    </contour>
  </outline>
</glyph>
<glyph name="Eth" format="2">
  <advance width="733"/>
  <unicode hex="00D0"/>
  <outline>
    <contour>
      <point x="6" y="302" type="line"/>
      <point x="6" y="402" type="line"/>
      <point x="356" y="402" type="line"/>
      <point x="356" y="302" type="line"/>
    </contour>
    <contour>
      <point x="74" y="700" type="line"/>
      <point x="249" y="700" type="line"/>
      <point x="249" y="0" type="line"/>
      <point x="74" y="0" type="line"/>
    </contour>
    <contour>
      <point x="324" y="0" type="curve" smooth="yes"/>
      <point x="186" y="0" type="line"/>
      <point x="186" y="151" type="line"/>
      <point x="318" y="151" type="line" smooth="yes"/>
      <point x="426" y="151"/>
      <point x="524" y="200"/>
      <point x="524" y="350" type="curve" smooth="yes"/>
      <point x="524" y="500"/>
      <point x="426" y="549"/>
      <point x="318" y="549" type="curve" smooth="yes"/>
      <point x="186" y="549" type="line"/>
      <point x="186" y="700" type="line"/>
      <point x="324" y="700" type="line" smooth="yes"/>
      <point x="553" y="700"/>
      <point x="699" y="565"/>
      <point x="699" y="350" type="curve" smooth="yes"/>
      <point x="699" y="135"/>
      <point x="553" y="0"/>
    </contour>
  </outline>
</glyph>
<glyph name="Ntilde" format="2">
  <advance width="793"/>
  <unicode hex="00D1"/>
  <outline>
    <contour>
      <point x="557" y="700" type="line"/>
      <point x="720" y="700" type="line"/>
      <point x="720" y="-35" type="line"/>
      <point x="237" y="393" type="line"/>
      <point x="237" y="0" type="line"/>
      <point x="74" y="0" type="line"/>
      <point x="74" y="735" type="line"/>
      <point x="557" y="307" type="line"/>
    </contour>
    <contour>
      <point x="171" y="833" type="line"/>
      <point x="181" y="882"/>
      <point x="227" y="928"/>
      <point x="291" y="928" type="curve" smooth="yes"/>
      <point x="357" y="928"/>
      <point x="371" y="876"/>
      <point x="427" y="876" type="curve" smooth="yes"/>
      <point x="452" y="876"/>
      <point x="473" y="897"/>
      <point x="493" y="929" type="curve"/>
      <point x="564" y="854" type="line"/>
      <point x="548" y="817"/>
      <point x="492" y="769"/>
      <point x="430" y="769" type="curve" smooth="yes"/>
      <point x="375" y="769"/>
      <point x="339" y="822"/>
      <point x="290" y="822" type="curve" smooth="yes"/>
      <point x="252" y="822"/>
      <point x="243" y="786"/>
      <point x="243" y="771" type="curve"/>
    </contour>
  </outline>
</glyph>
<glyph name="Otilde" format="2">
  <advance width="821"/>
  <unicode hex="00D5"/>
  <outline>
    <contour>
      <point x="213" y="350" type="curve" smooth="yes"/>
      <point x="213" y="226"/>
      <point x="292" y="139"/>
      <point x="411" y="139" type="curve" smooth="yes"/>
      <point x="530" y="139"/>
      <point x="608" y="226"/>
      <point x="608" y="350" type="curve" smooth="yes"/>
      <point x="608" y="474"/>
      <point x="533" y="561"/>
      <point x="411" y="561" type="curve" smooth="yes"/>
      <point x="292" y="561"/>
      <point x="213" y="474"/>
    </contour>
    <contour>
      <point x="34" y="350" type="curve" smooth="yes"/>
      <point x="34" y="566"/>
      <point x="198" y="716"/>
      <point x="411" y="716" type="curve" smooth="yes"/>
      <point x="627" y="716"/>
      <point x="788" y="566"/>
      <point x="788" y="350" type="curve" smooth="yes"/>
      <point x="788" y="134"/>
      <point x="631" y="-22"/>
      <point x="411" y="-22" type="curve" smooth="yes"/>
      <point x="191" y="-22"/>
      <point x="34" y="134"/>
    </contour>
    <contour>
      <point x="234" y="833" type="line"/>
      <point x="244" y="882"/>
      <point x="290" y="928"/>
      <point x="354" y="928" type="curve" smooth="yes"/>
      <point x="420" y="928"/>
      <point x="434" y="876"/>
      <point x="490" y="876" type="curve" smooth="yes"/>
      <point x="515" y="876"/>
      <point x="536" y="897"/>
      <point x="556" y="929" type="curve"/>
      <point x="627" y="854" type="line"/>
      <point x="611" y="817"/>
      <point x="555" y="769"/>
      <point x="493" y="769" type="curve" smooth="yes"/>
      <point x="438" y="769"/>
      <point x="402" y="822"/>
      <point x="353" y="822" type="curve" smooth="yes"/>
      <point x="315" y="822"/>
      <point x="306" y="786"/>
      <point x="306" y="771" type="curve"/>
    </contour>
  </outline>
</glyph>
<glyph name="Odieresis" format="2">
  <advance width="821"/>
  <unicode hex="00D6"/>
  <outline>
    <contour>
      <point x="213" y="350" type="curve" smooth="yes"/>
      <point x="213" y="226"/>
      <point x="292" y="139"/>
      <point x="411" y="139" type="curve" smooth="yes"/>
      <point x="530" y="139"/>
      <point x="608" y="226"/>
      <point x="608" y="350" type="curve" smooth="yes"/>
      <point x="608" y="474"/>
      <point x="533" y="561"/>
      <point x="411" y="561" type="curve" smooth="yes"/>
      <point x="292" y="561"/>
      <point x="213" y="474"/>
    </contour>
    <contour>
      <point x="34" y="350" type="curve" smooth="yes"/>
      <point x="34" y="566"/>
      <point x="198" y="716"/>
      <point x="411" y="716" type="curve" smooth="yes"/>
      <point x="627" y="716"/>
      <point x="788" y="566"/>
      <point x="788" y="350" type="curve" smooth="yes"/>
      <point x="788" y="134"/>
      <point x="631" y="-22"/>
      <point x="411" y="-22" type="curve" smooth="yes"/>
      <point x="191" y="-22"/>
      <point x="34" y="134"/>
    </contour>
    <contour>
      <point x="444" y="858" type="curve" smooth="yes"/>
      <point x="444" y="906"/>
      <point x="483" y="940"/>
      <point x="532" y="940" type="curve" smooth="yes"/>
      <point x="581" y="940"/>
      <point x="621" y="906"/>
      <point x="621" y="858" type="curve" smooth="yes"/>
      <point x="621" y="810"/>
      <point x="581" y="776"/>
      <point x="532" y="776" type="curve" smooth="yes"/>
      <point x="483" y="776"/>
      <point x="444" y="810"/>
    </contour>
    <contour>
      <point x="201" y="858" type="curve" smooth="yes"/>
      <point x="201" y="906"/>
      <point x="240" y="940"/>
      <point x="289" y="940" type="curve" smooth="yes"/>
      <point x="338" y="940"/>
      <point x="377" y="906"/>
      <point x="377" y="858" type="curve" smooth="yes"/>
      <point x="377" y="810"/>
      <point x="338" y="776"/>
      <point x="289" y="776" type="curve" smooth="yes"/>
      <point x="240" y="776"/>
      <point x="201" y="810"/>
    </contour>
  </outline>
</glyph>
<glyph name="multiply" format="2">
  <advance width="596"/>
  <unicode hex="00D7"/>
  <outline>
    <contour>
      <point x="140" y="3" type="line"/>
      <point x="46" y="97" type="line"/>
      <point x="209" y="255" type="line"/>
      <point x="46" y="413" type="line"/>
      <point x="140" y="507" type="line"/>
      <point x="298" y="344" type="line"/>
      <point x="456" y="507" type="line"/>
      <point x="550" y="413" type="line"/>
      <point x="387" y="255" type="line"/>
      <point x="550" y="97" type="line"/>
      <point x="456" y="3" type="line"/>
      <point x="298" y="166" type="line"/>
    </contour>
  </outline>
</glyph>
<glyph name="Oslash" format="2">
  <advance width="790"/>
  <unicode hex="00D8"/>
  <outline>
    <contour>
      <point x="213" y="350" type="curve" smooth="yes"/>
      <point x="213" y="223"/>
      <point x="292" y="139"/>
      <point x="411" y="139" type="curve" smooth="yes"/>
      <point x="530" y="139"/>
      <point x="608" y="223"/>
      <point x="608" y="350" type="curve" smooth="yes"/>
      <point x="608" y="477"/>
      <point x="530" y="561"/>
      <point x="411" y="561" type="curve" smooth="yes"/>
      <point x="292" y="561"/>
      <point x="213" y="477"/>
    </contour>
    <contour>
      <point x="34" y="350" type="curve" smooth="yes"/>
      <point x="34" y="566"/>
      <point x="195" y="716"/>
      <point x="411" y="716" type="curve" smooth="yes"/>
      <point x="627" y="716"/>
      <point x="788" y="566"/>
      <point x="788" y="350" type="curve" smooth="yes"/>
      <point x="788" y="134"/>
      <point x="627" y="-22"/>
      <point x="411" y="-22" type="curve" smooth="yes"/>
      <point x="195" y="-22"/>
      <point x="34" y="134"/>
    </contour>
    <contour>
      <point x="697" y="756" type="line"/>
      <point x="769" y="704" type="line"/>
      <point x="120" y="-56" type="line"/>
      <point x="49" y="-4" type="line"/>
    </contour>
  </outline>
</glyph>
<glyph name="Udieresis" format="2">
  <advance width="701"/>
  <unicode hex="00DC"/>
  <outline>
    <contour>
      <point x="69" y="700" type="line"/>
      <point x="238" y="700" type="line"/>
      <point x="238" y="242" type="line" smooth="yes"/>
      <point x="238" y="171"/>
      <point x="275" y="123"/>
      <point x="350" y="123" type="curve" smooth="yes"/>
      <point x="425" y="123"/>
      <point x="463" y="171"/>
      <point x="463" y="242" type="curve" smooth="yes"/>
      <point x="463" y="700" type="line"/>
      <point x="632" y="700" type="line"/>
      <point x="632" y="230" type="line" smooth="yes"/>
      <point x="632" y="54"/>
      <point x="508" y="-29"/>
      <point x="350" y="-29" type="curve" smooth="yes"/>
      <point x="192" y="-29"/>
      <point x="69" y="54"/>
      <point x="69" y="230" type="curve" smooth="yes"/>
    </contour>
    <contour>
      <point x="403" y="858" type="curve" smooth="yes"/>
      <point x="403" y="906"/>
      <point x="442" y="940"/>
      <point x="491" y="940" type="curve" smooth="yes"/>
      <point x="540" y="940"/>
      <point x="579" y="906"/>
      <point x="579" y="858" type="curve" smooth="yes"/>
      <point x="579" y="810"/>
      <point x="540" y="776"/>
      <point x="491" y="776" type="curve" smooth="yes"/>
      <point x="442" y="776"/>
      <point x="403" y="810"/>
    </contour>
    <contour>
      <point x="122" y="858" type="curve" smooth="yes"/>
      <point x="122" y="906"/>
      <point x="161" y="940"/>
      <point x="210" y="940" type="curve" smooth="yes"/>
      <point x="259" y="940"/>
      <point x="298" y="906"/>
      <point x="298" y="858" type="curve" smooth="yes"/>
      <point x="298" y="810"/>
      <point x="259" y="776"/>
      <point x="210" y="776" type="curve" smooth="yes"/>
      <point x="161" y="776"/>
      <point x="122" y="810"/>
    </contour>
  </outline>
</glyph>
<glyph name="Yacute" format="2">
  <advance width="660"/>
  <unicode hex="00DD"/>
  <outline>
    <contour>
      <point x="491" y="926" type="line"/>
      <point x="311" y="776" type="line"/>
      <point x="226" y="819" type="line"/>
      <point x="376" y="979" type="line"/>
    </contour>
    <contour>
      <point x="467" y="700" type="line"/>
      <point x="662" y="700" type="line"/>
      <point x="417" y="285" type="line"/>
      <point x="417" y="0" type="line"/>
      <point x="244" y="0" type="line"/>
      <point x="244" y="284" type="line"/>
      <point x="-1" y="700" type="line"/>
      <point x="194" y="700" type="line"/>
      <point x="330" y="437" type="line"/>
    </contour>
  </outline>
</glyph>
<glyph name="Thorn" format="2">
  <advance width="612"/>
  <unicode hex="00DE"/>
  <outline>
    <contour>
      <point x="80" y="700" type="line"/>
      <point x="228" y="700" type="line"/>
      <point x="228" y="0" type="line"/>
      <point x="80" y="0" type="line"/>
    </contour>
    <contour>
      <point x="174" y="446" type="line"/>
      <point x="174" y="579" type="line"/>
      <point x="311" y="579" type="line" smooth="yes"/>
      <point x="490" y="579"/>
      <point x="583" y="495"/>
      <point x="583" y="353" type="curve" smooth="yes"/>
      <point x="583" y="211"/>
      <point x="490" y="128"/>
      <point x="311" y="128" type="curve" smooth="yes"/>
      <point x="174" y="128" type="line"/>
      <point x="174" y="261" type="line"/>
      <point x="311" y="261" type="line" smooth="yes"/>
      <point x="388" y="261"/>
      <point x="432" y="286"/>
      <point x="432" y="353" type="curve" smooth="yes"/>
      <point x="432" y="420"/>
      <point x="388" y="446"/>
      <point x="311" y="446" type="curve" smooth="yes"/>
    </contour>
  </outline>
</glyph>
<glyph name="germandbls" format="2">
  <advance width="603"/>
  <unicode hex="00DF"/>
  <outline>
    <contour>
      <point x="373" y="-12" type="curve" smooth="yes"/>
      <point x="320" y="-12"/>
      <point x="266" y="5"/>
      <point x="232" y="28" type="curve"/>
      <point x="263" y="144" type="line"/>
      <point x="291" y="124"/>
      <point x="328" y="110"/>
      <point x="360" y="110" type="curve" smooth="yes"/>
      <point x="411" y="110"/>
      <point x="446" y="145"/>
      <point x="446" y="192" type="curve" smooth="yes"/>
      <point x="446" y="289"/>
      <point x="294" y="292"/>
      <point x="294" y="386" type="curve" smooth="yes"/>
      <point x="294" y="459"/>
      <point x="384" y="493"/>
      <point x="384" y="582" type="curve" smooth="yes"/>
      <point x="384" y="637"/>
      <point x="347" y="662"/>
      <point x="295" y="662" type="curve" smooth="yes"/>
      <point x="233" y="662"/>
      <point x="197" y="627"/>
      <point x="197" y="550" type="curve" smooth="yes"/>
      <point x="199" y="-2" type="line"/>
      <point x="46" y="-2" type="line"/>
      <point x="46" y="552" type="line" smooth="yes"/>
      <point x="46" y="708"/>
      <point x="139" y="797"/>
      <point x="300" y="797" type="curve" smooth="yes"/>
      <point x="434" y="797"/>
      <point x="541" y="732"/>
      <point x="541" y="611" type="curve" smooth="yes"/>
      <point x="541" y="487"/>
      <point x="454" y="460"/>
      <point x="454" y="401" type="curve" smooth="yes"/>
      <point x="454" y="337"/>
      <point x="604" y="336"/>
      <point x="604" y="193" type="curve" smooth="yes"/>
      <point x="604" y="79"/>
      <point x="491" y="-12"/>
    </contour>
  </outline>
</glyph>
<glyph name="atilde" format="2">
  <advance width="544"/>
  <unicode hex="00E3"/>
  <outline>
    <contour>
      <point x="177" y="138" type="curve" smooth="yes"/>
      <point x="177" y="105"/>
      <point x="202" y="89"/>
      <point x="242" y="89" type="curve" smooth="yes"/>
      <point x="297" y="89"/>
      <point x="345" y="112"/>
      <point x="345" y="186" type="curve"/>
      <point x="361" y="130" type="line"/>
      <point x="361" y="41"/>
      <point x="286" y="-10"/>
      <point x="191" y="-10" type="curve" smooth="yes"/>
      <point x="90" y="-10"/>
      <point x="24" y="41"/>
      <point x="24" y="128" type="curve" smooth="yes"/>
      <point x="24" y="222"/>
      <point x="106" y="279"/>
      <point x="223" y="279" type="curve" smooth="yes"/>
      <point x="292" y="279"/>
      <point x="358" y="251"/>
      <point x="378" y="230" type="curve"/>
      <point x="378" y="159" type="line"/>
      <point x="344" y="185"/>
      <point x="310" y="197"/>
      <point x="258" y="197" type="curve" smooth="yes"/>
      <point x="206" y="197"/>
      <point x="177" y="174"/>
    </contour>
    <contour>
      <point x="117" y="318" type="curve"/>
      <point x="66" y="420" type="line"/>
      <point x="119" y="445"/>
      <point x="193" y="473"/>
      <point x="276" y="473" type="curve" smooth="yes"/>
      <point x="400" y="473"/>
      <point x="491" y="419"/>
      <point x="491" y="324" type="curve" smooth="yes"/>
      <point x="491" y="0" type="line"/>
      <point x="345" y="0" type="line"/>
      <point x="345" y="294" type="line" smooth="yes"/>
      <point x="345" y="333"/>
      <point x="314" y="358"/>
      <point x="264" y="358" type="curve" smooth="yes"/>
      <point x="198" y="358"/>
      <point x="139" y="331"/>
    </contour>
    <contour>
      <point x="80" y="599" type="line"/>
      <point x="90" y="648"/>
      <point x="136" y="693"/>
      <point x="200" y="693" type="curve" smooth="yes"/>
      <point x="266" y="693"/>
      <point x="280" y="641"/>
      <point x="336" y="641" type="curve" smooth="yes"/>
      <point x="361" y="641"/>
      <point x="381" y="662"/>
      <point x="401" y="694" type="curve"/>
      <point x="472" y="620" type="line"/>
      <point x="456" y="583"/>
      <point x="400" y="535"/>
      <point x="338" y="535" type="curve" smooth="yes"/>
      <point x="283" y="535"/>
      <point x="247" y="588"/>
      <point x="198" y="588" type="curve" smooth="yes"/>
      <point x="160" y="588"/>
      <point x="152" y="552"/>
      <point x="152" y="537" type="curve"/>
    </contour>
  </outline>
</glyph>
<glyph name="ae" format="2">
  <advance width="896"/>
  <unicode hex="00E6"/>
  <outline>
    <contour>
      <point x="217" y="-10" type="curve" smooth="yes"/>
      <point x="95" y="-10"/>
      <point x="24" y="41"/>
      <point x="24" y="128" type="curve" smooth="yes"/>
      <point x="24" y="218"/>
      <point x="104" y="279"/>
      <point x="223" y="279" type="curve" smooth="yes"/>
      <point x="281" y="279"/>
      <point x="330" y="265"/>
      <point x="416" y="224" type="curve"/>
      <point x="345" y="224" type="line"/>
      <point x="345" y="282" type="line" smooth="yes"/>
      <point x="345" y="331"/>
      <point x="317" y="358"/>
      <point x="264" y="358" type="curve" smooth="yes"/>
      <point x="220" y="358"/>
      <point x="155" y="340"/>
      <point x="117" y="318" type="curve"/>
      <point x="66" y="420" type="line"/>
      <point x="141" y="456"/>
      <point x="209" y="473"/>
      <point x="276" y="473" type="curve" smooth="yes"/>
      <point x="374" y="473"/>
      <point x="427" y="436"/>
      <point x="437" y="360" type="curve"/>
      <point x="425" y="360" type="line"/>
      <point x="467" y="432"/>
      <point x="541" y="470"/>
      <point x="636" y="470" type="curve" smooth="yes"/>
      <point x="778" y="470"/>
      <point x="862" y="383"/>
      <point x="862" y="237" type="curve" smooth="yes"/>
      <point x="862" y="221"/>
      <point x="861" y="204"/>
      <point x="860" y="198" type="curve"/>
      <point x="488" y="198" type="line"/>
      <point x="508" y="216" type="line"/>
      <point x="512" y="139"/>
      <point x="548" y="99"/>
      <point x="614" y="99" type="curve" smooth="yes"/>
      <point x="664" y="99"/>
      <point x="706" y="121"/>
      <point x="728" y="159" type="curve"/>
      <point x="863" y="126" type="line"/>
      <point x="812" y="35"/>
      <point x="732" y="-10"/>
      <point x="616" y="-10" type="curve" smooth="yes"/>
      <point x="511" y="-10"/>
      <point x="446" y="26"/>
      <point x="412" y="103" type="curve"/>
      <point x="424" y="102" type="line"/>
      <point x="403" y="30"/>
      <point x="327" y="-10"/>
    </contour>
    <contour>
      <point x="242" y="89" type="curve" smooth="yes"/>
      <point x="308" y="89"/>
      <point x="345" y="122"/>
      <point x="349" y="186" type="curve"/>
      <point x="349" y="134" type="line"/>
      <point x="344" y="195" type="line"/>
      <point x="366" y="168" type="line"/>
      <point x="334" y="187"/>
      <point x="296" y="197"/>
      <point x="258" y="197" type="curve" smooth="yes"/>
      <point x="204" y="197"/>
      <point x="177" y="178"/>
      <point x="177" y="138" type="curve" smooth="yes"/>
      <point x="177" y="105"/>
      <point x="197" y="89"/>
    </contour>
    <contour>
      <point x="507" y="236" type="curve"/>
      <point x="488" y="282" type="line"/>
      <point x="722" y="282" type="line"/>
      <point x="699" y="250" type="line"/>
      <point x="701" y="258"/>
      <point x="701" y="259"/>
      <point x="701" y="266" type="curve" smooth="yes"/>
      <point x="701" y="332"/>
      <point x="668" y="369"/>
      <point x="610" y="369" type="curve" smooth="yes"/>
      <point x="544" y="369"/>
      <point x="507" y="322"/>
    </contour>
  </outline>
</glyph>
<glyph name="ccedilla" format="2">
  <advance width="493"/>
  <unicode hex="00E7"/>
  <outline>
    <contour>
      <point x="186" y="230" type="curve" smooth="yes"/>
      <point x="186" y="156"/>
      <point x="241" y="111"/>
      <point x="309" y="111" type="curve" smooth="yes"/>
      <point x="364" y="111"/>
      <point x="417" y="135"/>
      <point x="444" y="179" type="curve"/>
      <point x="444" y="32" type="line"/>
      <point x="412" y="6"/>
      <point x="365" y="-10"/>
      <point x="296" y="-10" type="curve" smooth="yes"/>
      <point x="142" y="-10"/>
      <point x="30" y="85"/>
      <point x="30" y="230" type="curve" smooth="yes"/>
      <point x="30" y="375"/>
      <point x="142" y="470"/>
      <point x="296" y="470" type="curve" smooth="yes"/>
      <point x="365" y="470"/>
      <point x="412" y="453"/>
      <point x="444" y="430" type="curve"/>
      <point x="444" y="282" type="line"/>
      <point x="417" y="326"/>
      <point x="358" y="349"/>
      <point x="309" y="349" type="curve" smooth="yes"/>
      <point x="241" y="349"/>
      <point x="186" y="298"/>
    </contour>
    <contour>
      <point x="237" y="61" type="line"/>
      <point x="347" y="57" type="line"/>
      <point x="261" y="-65" type="line"/>
      <point x="272" y="-62"/>
      <point x="285" y="-61"/>
      <point x="298" y="-61" type="curve" smooth="yes"/>
      <point x="338" y="-61"/>
      <point x="389" y="-93"/>
      <point x="389" y="-159" type="curve" smooth="yes"/>
      <point x="389" y="-231"/>
      <point x="321" y="-268"/>
      <point x="258" y="-268" type="curve" smooth="yes"/>
      <point x="202" y="-268"/>
      <point x="161" y="-259"/>
      <point x="114" y="-229" type="curve"/>
      <point x="160" y="-160" type="line"/>
      <point x="185" y="-178"/>
      <point x="218" y="-185"/>
      <point x="238" y="-185" type="curve" smooth="yes"/>
      <point x="272" y="-185"/>
      <point x="292" y="-174"/>
      <point x="292" y="-150" type="curve" smooth="yes"/>
      <point x="292" y="-124"/>
      <point x="263" y="-118"/>
      <point x="232" y="-118" type="curve" smooth="yes"/>
      <point x="222" y="-118"/>
      <point x="185" y="-120"/>
      <point x="150" y="-134" type="curve"/>
    </contour>
  </outline>
</glyph>
<glyph name="igrave" format="2">
  <advance width="276"/>
  <unicode hex="00EC"/>
  <outline>
    <contour>
      <point x="64" y="460" type="line"/>
      <point x="211" y="460" type="line"/>
      <point x="211" y="0" type="line"/>
      <point x="64" y="0" type="line"/>
    </contour>
    <contour>
      <point x="-42" y="688" type="line"/>
      <point x="73" y="741" type="line"/>
      <point x="223" y="581" type="line"/>
      <point x="138" y="538" type="line"/>
    </contour>
  </outline>
</glyph>
<glyph name="iacute" format="2">
  <advance width="276"/>
  <unicode hex="00ED"/>
  <outline>
    <contour>
      <point x="64" y="460" type="line"/>
      <point x="211" y="460" type="line"/>
      <point x="211" y="0" type="line"/>
      <point x="64" y="0" type="line"/>
    </contour>
    <contour>
      <point x="310" y="688" type="line"/>
      <point x="130" y="538" type="line"/>
      <point x="44" y="581" type="line"/>
      <point x="194" y="741" type="line"/>
    </contour>
  </outline>
</glyph>
<glyph name="idieresis" format="2">
  <advance width="276"/>
  <unicode hex="00EF"/>
  <outline>
    <contour>
      <point x="64" y="460" type="line"/>
      <point x="211" y="460" type="line"/>
      <point x="211" y="0" type="line"/>
      <point x="64" y="0" type="line"/>
    </contour>
    <contour>
      <point x="172" y="624" type="curve" smooth="yes"/>
      <point x="172" y="672"/>
      <point x="211" y="706"/>
      <point x="260" y="706" type="curve" smooth="yes"/>
      <point x="309" y="706"/>
      <point x="348" y="672"/>
      <point x="348" y="624" type="curve" smooth="yes"/>
      <point x="348" y="576"/>
      <point x="309" y="542"/>
      <point x="260" y="542" type="curve" smooth="yes"/>
      <point x="211" y="542"/>
      <point x="172" y="576"/>
    </contour>
    <contour>
      <point x="-72" y="624" type="curve" smooth="yes"/>
      <point x="-72" y="672"/>
      <point x="-33" y="706"/>
      <point x="16" y="706" type="curve" smooth="yes"/>
      <point x="65" y="706"/>
      <point x="104" y="672"/>
      <point x="104" y="624" type="curve" smooth="yes"/>
      <point x="104" y="576"/>
      <point x="65" y="542"/>
      <point x="16" y="542" type="curve" smooth="yes"/>
      <point x="-33" y="542"/>
      <point x="-72" y="576"/>
    </contour>
  </outline>
</glyph>
<glyph name="eth" format="2">
  <advance width="626"/>
  <unicode hex="00F0"/>
  <outline>
    <contour>
      <point x="310" y="-16" type="curve" smooth="yes"/>
      <point x="158" y="-16"/>
      <point x="50" y="93"/>
      <point x="50" y="246" type="curve" smooth="yes"/>
      <point x="50" y="381"/>
      <point x="135" y="473"/>
      <point x="261" y="473" type="curve" smooth="yes"/>
      <point x="346" y="473"/>
      <point x="421" y="430"/>
      <point x="485" y="344" type="curve"/>
      <point x="442" y="345" type="line"/>
      <point x="373" y="475"/>
      <point x="275" y="584"/>
      <point x="139" y="685" type="curve"/>
      <point x="251" y="761" type="line"/>
      <point x="467" y="565"/>
      <point x="577" y="392"/>
      <point x="577" y="246" type="curve" smooth="yes"/>
      <point x="577" y="95"/>
      <point x="463" y="-16"/>
    </contour>
    <contour>
      <point x="313" y="116" type="curve" smooth="yes"/>
      <point x="376" y="116"/>
      <point x="420" y="164"/>
      <point x="420" y="230" type="curve" smooth="yes"/>
      <point x="420" y="297"/>
      <point x="375" y="346"/>
      <point x="313" y="346" type="curve" smooth="yes"/>
      <point x="251" y="346"/>
      <point x="206" y="297"/>
      <point x="206" y="230" type="curve" smooth="yes"/>
      <point x="206" y="164"/>
      <point x="250" y="116"/>
    </contour>
    <contour>
      <point x="156" y="507" type="line"/>
      <point x="140" y="562" type="line"/>
      <point x="488" y="674" type="line"/>
      <point x="505" y="619" type="line"/>
    </contour>
  </outline>
</glyph>
<glyph name="oacute" format="2">
  <advance width="589"/>
  <unicode hex="00F3"/>
  <outline>
    <contour>
      <point x="32" y="230" type="curve" smooth="yes"/>
      <point x="32" y="375"/>
      <point x="144" y="471"/>
      <point x="295" y="471" type="curve" smooth="yes"/>
      <point x="446" y="471"/>
      <point x="558" y="375"/>
      <point x="558" y="230" type="curve" smooth="yes"/>
      <point x="558" y="85"/>
      <point x="446" y="-10"/>
      <point x="295" y="-10" type="curve" smooth="yes"/>
      <point x="144" y="-10"/>
      <point x="32" y="85"/>
    </contour>
    <contour>
      <point x="188" y="230" type="curve" smooth="yes"/>
      <point x="188" y="159"/>
      <point x="236" y="115"/>
      <point x="295" y="115" type="curve" smooth="yes"/>
      <point x="354" y="115"/>
      <point x="402" y="159"/>
      <point x="402" y="230" type="curve" smooth="yes"/>
      <point x="402" y="301"/>
      <point x="354" y="346"/>
      <point x="295" y="346" type="curve" smooth="yes"/>
      <point x="236" y="346"/>
      <point x="188" y="301"/>
    </contour>
    <contour>
      <point x="455" y="688" type="line"/>
      <point x="275" y="538" type="line"/>
      <point x="189" y="581" type="line"/>
      <point x="339" y="741" type="line"/>
    </contour>
  </outline>
</glyph>
<glyph name="odieresis" format="2">
  <advance width="589"/>
  <unicode hex="00F6"/>
  <outline>
    <contour>
      <point x="32" y="230" type="curve" smooth="yes"/>
      <point x="32" y="375"/>
      <point x="144" y="471"/>
      <point x="295" y="471" type="curve" smooth="yes"/>
      <point x="446" y="471"/>
      <point x="558" y="375"/>
      <point x="558" y="230" type="curve" smooth="yes"/>
      <point x="558" y="85"/>
      <point x="446" y="-10"/>
      <point x="295" y="-10" type="curve" smooth="yes"/>
      <point x="144" y="-10"/>
      <point x="32" y="85"/>
    </contour>
    <contour>
      <point x="188" y="230" type="curve" smooth="yes"/>
      <point x="188" y="159"/>
      <point x="236" y="115"/>
      <point x="295" y="115" type="curve" smooth="yes"/>
      <point x="354" y="115"/>
      <point x="402" y="159"/>
      <point x="402" y="230" type="curve" smooth="yes"/>
      <point x="402" y="301"/>
      <point x="354" y="346"/>
      <point x="295" y="346" type="curve" smooth="yes"/>
      <point x="236" y="346"/>
      <point x="188" y="301"/>
    </contour>
    <contour>
      <point x="329" y="624" type="curve" smooth="yes"/>
      <point x="329" y="672"/>
      <point x="368" y="706"/>
      <point x="417" y="706" type="curve" smooth="yes"/>
      <point x="466" y="706"/>
      <point x="505" y="672"/>
      <point x="505" y="624" type="curve" smooth="yes"/>
      <point x="505" y="576"/>
      <point x="466" y="542"/>
      <point x="417" y="542" type="curve" smooth="yes"/>
      <point x="368" y="542"/>
      <point x="329" y="576"/>
    </contour>
    <contour>
      <point x="85" y="624" type="curve" smooth="yes"/>
      <point x="85" y="672"/>
      <point x="124" y="706"/>
      <point x="173" y="706" type="curve" smooth="yes"/>
      <point x="222" y="706"/>
      <point x="261" y="672"/>
      <point x="261" y="624" type="curve" smooth="yes"/>
      <point x="261" y="576"/>
      <point x="222" y="542"/>
      <point x="173" y="542" type="curve" smooth="yes"/>
      <point x="124" y="542"/>
      <point x="85" y="576"/>
    </contour>
  </outline>
</glyph>
<glyph name="divide" format="2">
  <advance width="639"/>
  <unicode hex="00F7"/>
  <outline>
    <contour>
      <point x="225" y="553" type="curve" smooth="yes"/>
      <point x="225" y="604"/>
      <point x="264" y="646"/>
      <point x="319" y="646" type="curve" smooth="yes"/>
      <point x="374" y="646"/>
      <point x="414" y="604"/>
      <point x="414" y="553" type="curve" smooth="yes"/>
      <point x="414" y="502"/>
      <point x="374" y="461"/>
      <point x="319" y="461" type="curve" smooth="yes"/>
      <point x="264" y="461"/>
      <point x="225" y="502"/>
    </contour>
    <contour>
      <point x="225" y="98" type="curve" smooth="yes"/>
      <point x="225" y="149"/>
      <point x="264" y="191"/>
      <point x="319" y="191" type="curve" smooth="yes"/>
      <point x="374" y="191"/>
      <point x="414" y="149"/>
      <point x="414" y="98" type="curve" smooth="yes"/>
      <point x="414" y="47"/>
      <point x="374" y="6"/>
      <point x="319" y="6" type="curve" smooth="yes"/>
      <point x="264" y="6"/>
      <point x="225" y="47"/>
    </contour>
    <contour>
      <point x="26" y="259" type="line"/>
      <point x="26" y="396" type="line"/>
      <point x="613" y="396" type="line"/>
      <point x="613" y="259" type="line"/>
    </contour>
  </outline>
</glyph>
<glyph name="uacute" format="2">
  <advance width="575"/>
  <unicode hex="00FA"/>
  <outline>
    <contour>
      <point x="364" y="0" type="line"/>
      <point x="364" y="460" type="line"/>
      <point x="516" y="460" type="line"/>
      <point x="516" y="0" type="line"/>
    </contour>
    <contour>
      <point x="218" y="180" type="line" smooth="yes"/>
      <point x="218" y="126"/>
      <point x="235" y="96"/>
      <point x="284" y="96" type="curve" smooth="yes"/>
      <point x="332" y="96"/>
      <point x="364" y="126"/>
      <point x="364" y="180" type="curve"/>
      <point x="394" y="186" type="line"/>
      <point x="394" y="77"/>
      <point x="338" y="-11"/>
      <point x="224" y="-11" type="curve" smooth="yes"/>
      <point x="110" y="-11"/>
      <point x="59" y="51"/>
      <point x="59" y="164" type="curve" smooth="yes"/>
      <point x="59" y="460" type="line"/>
      <point x="218" y="460" type="line"/>
    </contour>
    <contour>
      <point x="432" y="688" type="line"/>
      <point x="252" y="538" type="line"/>
      <point x="167" y="581" type="line"/>
      <point x="317" y="741" type="line"/>
    </contour>
  </outline>
</glyph>
<glyph name="ucircumflex" format="2">
  <advance width="575"/>
  <unicode hex="00FB"/>
  <outline>
    <contour>
      <point x="364" y="0" type="line"/>
      <point x="364" y="460" type="line"/>
      <point x="516" y="460" type="line"/>
      <point x="516" y="0" type="line"/>
    </contour>
    <contour>
      <point x="218" y="180" type="line" smooth="yes"/>
      <point x="218" y="126"/>
      <point x="235" y="96"/>
      <point x="284" y="96" type="curve" smooth="yes"/>
      <point x="332" y="96"/>
      <point x="364" y="126"/>
      <point x="364" y="180" type="curve"/>
      <point x="394" y="186" type="line"/>
      <point x="394" y="77"/>
      <point x="338" y="-11"/>
      <point x="224" y="-11" type="curve" smooth="yes"/>
      <point x="110" y="-11"/>
      <point x="59" y="51"/>
      <point x="59" y="164" type="curve" smooth="yes"/>
      <point x="59" y="460" type="line"/>
      <point x="218" y="460" type="line"/>
    </contour>
    <contour>
      <point x="287" y="624" type="line"/>
      <point x="196" y="538" type="line"/>
      <point x="90" y="609" type="line"/>
      <point x="287" y="749" type="line"/>
      <point x="484" y="609" type="line"/>
      <point x="378" y="538" type="line"/>
    </contour>
  </outline>
</glyph>
<glyph name="udieresis" format="2">
  <advance width="575"/>
  <unicode hex="00FC"/>
  <outline>
    <contour>
      <point x="364" y="0" type="line"/>
      <point x="364" y="460" type="line"/>
      <point x="516" y="460" type="line"/>
      <point x="516" y="0" type="line"/>
    </contour>
    <contour>
      <point x="218" y="180" type="line" smooth="yes"/>
      <point x="218" y="126"/>
      <point x="235" y="96"/>
      <point x="284" y="96" type="curve" smooth="yes"/>
      <point x="332" y="96"/>
      <point x="364" y="126"/>
      <point x="364" y="180" type="curve"/>
      <point x="394" y="186" type="line"/>
      <point x="394" y="77"/>
      <point x="338" y="-11"/>
      <point x="224" y="-11" type="curve" smooth="yes"/>
      <point x="110" y="-11"/>
      <point x="59" y="51"/>
      <point x="59" y="164" type="curve" smooth="yes"/>
      <point x="59" y="460" type="line"/>
      <point x="218" y="460" type="line"/>
    </contour>
    <contour>
      <point x="322" y="620" type="curve" smooth="yes"/>
      <point x="322" y="668"/>
      <point x="361" y="702"/>
      <point x="410" y="702" type="curve" smooth="yes"/>
      <point x="459" y="702"/>
      <point x="498" y="668"/>
      <point x="498" y="620" type="curve" smooth="yes"/>
      <point x="498" y="572"/>
      <point x="459" y="538"/>
      <point x="410" y="538" type="curve" smooth="yes"/>
      <point x="361" y="538"/>
      <point x="322" y="572"/>
    </contour>
    <contour>
      <point x="78" y="620" type="curve" smooth="yes"/>
      <point x="78" y="668"/>
      <point x="117" y="702"/>
      <point x="166" y="702" type="curve" smooth="yes"/>
      <point x="215" y="702"/>
      <point x="254" y="668"/>
      <point x="254" y="620" type="curve" smooth="yes"/>
      <point x="254" y="572"/>
      <point x="215" y="538"/>
      <point x="166" y="538" type="curve" smooth="yes"/>
      <point x="117" y="538"/>
      <point x="78" y="572"/>
    </contour>
  </outline>
</glyph>
<glyph name="yacute" format="2">
  <advance width="521"/>
  <unicode hex="00FD"/>
  <outline>
    <contour>
      <point x="531" y="460" type="line"/>
      <point x="231" y="-220" type="line"/>
      <point x="78" y="-220" type="line"/>
      <point x="190" y="37" type="line"/>
      <point x="-9" y="460" type="line"/>
      <point x="158" y="460" type="line"/>
      <point x="306" y="91" type="line"/>
      <point x="228" y="92" type="line"/>
      <point x="375" y="460" type="line"/>
    </contour>
    <contour>
      <point x="422" y="688" type="line"/>
      <point x="242" y="538" type="line"/>
      <point x="156" y="581" type="line"/>
      <point x="306" y="741" type="line"/>
    </contour>
  </outline>
</glyph>
<glyph name="ydieresis" format="2">
  <advance width="521"/>
  <unicode hex="00FF"/>
  <outline>
    <contour>
      <point x="531" y="460" type="line"/>
      <point x="231" y="-220" type="line"/>
      <point x="78" y="-220" type="line"/>
      <point x="190" y="37" type="line"/>
      <point x="-9" y="460" type="line"/>
      <point x="158" y="460" type="line"/>
      <point x="306" y="91" type="line"/>
      <point x="228" y="92" type="line"/>
      <point x="375" y="460" type="line"/>
    </contour>
    <contour>
      <point x="294" y="612" type="curve" smooth="yes"/>
      <point x="294" y="660"/>
      <point x="333" y="694"/>
      <point x="382" y="694" type="curve" smooth="yes"/>
      <point x="431" y="694"/>
      <point x="471" y="660"/>
      <point x="471" y="612" type="curve" smooth="yes"/>
      <point x="471" y="564"/>
      <point x="431" y="531"/>
      <point x="382" y="531" type="curve" smooth="yes"/>
      <point x="333" y="531"/>
      <point x="294" y="564"/>
    </contour>
    <contour>
      <point x="51" y="612" type="curve" smooth="yes"/>
      <point x="51" y="660"/>
      <point x="90" y="694"/>
      <point x="139" y="694" type="curve" smooth="yes"/>
      <point x="188" y="694"/>
      <point x="227" y="660"/>
      <point x="227" y="612" type="curve" smooth="yes"/>
      <point x="227" y="564"/>
      <point x="188" y="531"/>
      <point x="139" y="531" type="curve" smooth="yes"/>
      <point x="90" y="531"/>
      <point x="51" y="564"/>
    </contour>
  </outline>
</glyph>
<glyph name="Abreve" format="2">
  <advance width="735"/>
  <unicode hex="0102"/>
  <outline>
    <contour>
      <point x="184" y="135" type="line"/>
      <point x="196" y="264" type="line"/>
      <point x="543" y="264" type="line"/>
      <point x="554" y="135" type="line"/>
    </contour>
    <contour>
      <point x="368" y="442" type="line"/>
      <point x="270" y="217" type="line"/>
      <point x="277" y="179" type="line"/>
      <point x="191" y="0" type="line"/>
      <point x="-1" y="0" type="line"/>
      <point x="368" y="744" type="line"/>
      <point x="736" y="0" type="line"/>
      <point x="544" y="0" type="line"/>
      <point x="460" y="172" type="line"/>
      <point x="466" y="216" type="line"/>
    </contour>
    <contour>
      <point x="203" y="951" type="curve"/>
      <point x="302" y="951" type="line"/>
      <point x="302" y="916"/>
      <point x="329" y="891"/>
      <point x="368" y="891" type="curve" smooth="yes"/>
      <point x="407" y="891"/>
      <point x="433" y="916"/>
      <point x="433" y="951" type="curve"/>
      <point x="532" y="951" type="line"/>
      <point x="532" y="869"/>
      <point x="473" y="804"/>
      <point x="368" y="804" type="curve" smooth="yes"/>
      <point x="263" y="804"/>
      <point x="203" y="869"/>
    </contour>
  </outline>
</glyph>
<glyph name="abreve" format="2">
  <advance width="544"/>
  <unicode hex="0103"/>
  <outline>
    <contour>
      <point x="177" y="138" type="curve" smooth="yes"/>
      <point x="177" y="105"/>
      <point x="202" y="89"/>
      <point x="242" y="89" type="curve" smooth="yes"/>
      <point x="297" y="89"/>
      <point x="345" y="112"/>
      <point x="345" y="186" type="curve"/>
      <point x="361" y="130" type="line"/>
      <point x="361" y="41"/>
      <point x="286" y="-10"/>
      <point x="191" y="-10" type="curve" smooth="yes"/>
      <point x="90" y="-10"/>
      <point x="24" y="41"/>
      <point x="24" y="128" type="curve" smooth="yes"/>
      <point x="24" y="222"/>
      <point x="106" y="279"/>
      <point x="223" y="279" type="curve" smooth="yes"/>
      <point x="292" y="279"/>
      <point x="358" y="251"/>
      <point x="378" y="230" type="curve"/>
      <point x="378" y="159" type="line"/>
      <point x="344" y="185"/>
      <point x="310" y="197"/>
      <point x="258" y="197" type="curve" smooth="yes"/>
      <point x="206" y="197"/>
      <point x="177" y="174"/>
    </contour>
    <contour>
      <point x="117" y="318" type="curve"/>
      <point x="66" y="420" type="line"/>
      <point x="119" y="445"/>
      <point x="193" y="473"/>
      <point x="276" y="473" type="curve" smooth="yes"/>
      <point x="400" y="473"/>
      <point x="491" y="419"/>
      <point x="491" y="324" type="curve" smooth="yes"/>
      <point x="491" y="0" type="line"/>
      <point x="345" y="0" type="line"/>
      <point x="345" y="294" type="line" smooth="yes"/>
      <point x="345" y="333"/>
      <point x="314" y="358"/>
      <point x="264" y="358" type="curve" smooth="yes"/>
      <point x="198" y="358"/>
      <point x="139" y="331"/>
    </contour>
    <contour>
      <point x="112" y="679" type="curve"/>
      <point x="211" y="679" type="line"/>
      <point x="211" y="644"/>
      <point x="237" y="620"/>
      <point x="276" y="620" type="curve" smooth="yes"/>
      <point x="315" y="620"/>
      <point x="341" y="644"/>
      <point x="341" y="679" type="curve"/>
      <point x="440" y="679" type="line"/>
      <point x="440" y="597"/>
      <point x="381" y="533"/>
      <point x="276" y="533" type="curve" smooth="yes"/>
      <point x="171" y="533"/>
      <point x="112" y="597"/>
    </contour>
  </outline>
</glyph>
<glyph name="Aogonek" format="2">
  <advance width="735"/>
  <unicode hex="0104"/>
  <outline>
    <contour>
      <point x="184" y="135" type="line"/>
      <point x="196" y="264" type="line"/>
      <point x="543" y="264" type="line"/>
      <point x="554" y="135" type="line"/>
    </contour>
    <contour>
      <point x="368" y="442" type="line"/>
      <point x="270" y="217" type="line"/>
      <point x="277" y="179" type="line"/>
      <point x="191" y="0" type="line"/>
      <point x="-1" y="0" type="line"/>
      <point x="368" y="744" type="line"/>
      <point x="736" y="0" type="line"/>
      <point x="544" y="0" type="line"/>
      <point x="460" y="172" type="line"/>
      <point x="466" y="216" type="line"/>
    </contour>
    <contour>
      <point x="691" y="-111" type="curve"/>
      <point x="724" y="-180" type="line"/>
      <point x="709" y="-200"/>
      <point x="680" y="-220"/>
      <point x="624" y="-220" type="curve" smooth="yes"/>
      <point x="559" y="-220"/>
      <point x="507" y="-185"/>
      <point x="507" y="-120" type="curve" smooth="yes"/>
      <point x="507" y="-55"/>
      <point x="575" y="-11"/>
      <point x="645" y="25" type="curve"/>
      <point x="686" y="0" type="line"/>
      <point x="634" y="-28"/>
      <point x="606" y="-63"/>
      <point x="606" y="-94" type="curve" smooth="yes"/>
      <point x="606" y="-119"/>
      <point x="617" y="-131"/>
      <point x="641" y="-131" type="curve" smooth="yes"/>
      <point x="661" y="-131"/>
      <point x="677" y="-124"/>
    </contour>
  </outline>
</glyph>
<glyph name="ccaron" format="2">
  <advance width="493"/>
  <unicode hex="010D"/>
  <outline>
    <contour>
      <point x="186" y="230" type="curve" smooth="yes"/>
      <point x="186" y="156"/>
      <point x="241" y="111"/>
      <point x="309" y="111" type="curve" smooth="yes"/>
      <point x="364" y="111"/>
      <point x="417" y="135"/>
      <point x="444" y="179" type="curve"/>
      <point x="444" y="32" type="line"/>
      <point x="412" y="6"/>
      <point x="365" y="-10"/>
      <point x="296" y="-10" type="curve" smooth="yes"/>
      <point x="142" y="-10"/>
      <point x="30" y="85"/>
      <point x="30" y="230" type="curve" smooth="yes"/>
      <point x="30" y="375"/>
      <point x="142" y="470"/>
      <point x="296" y="470" type="curve" smooth="yes"/>
      <point x="365" y="470"/>
      <point x="412" y="453"/>
      <point x="444" y="430" type="curve"/>
      <point x="444" y="282" type="line"/>
      <point x="417" y="326"/>
      <point x="358" y="349"/>
      <point x="309" y="349" type="curve" smooth="yes"/>
      <point x="241" y="349"/>
      <point x="186" y="298"/>
    </contour>
    <contour>
      <point x="265" y="656" type="line"/>
      <point x="356" y="742" type="line"/>
      <point x="462" y="671" type="line"/>
      <point x="265" y="531" type="line"/>
      <point x="67" y="671" type="line"/>
      <point x="174" y="742" type="line"/>
    </contour>
  </outline>
</glyph>
<glyph name="Dcaron" format="2">
  <advance width="733"/>
  <unicode hex="010E"/>
  <outline>
    <contour>
      <point x="74" y="700" type="line"/>
      <point x="249" y="700" type="line"/>
      <point x="249" y="0" type="line"/>
      <point x="74" y="0" type="line"/>
    </contour>
    <contour>
      <point x="324" y="0" type="curve" smooth="yes"/>
      <point x="186" y="0" type="line"/>
      <point x="186" y="151" type="line"/>
      <point x="318" y="151" type="line" smooth="yes"/>
      <point x="426" y="151"/>
      <point x="524" y="200"/>
      <point x="524" y="350" type="curve" smooth="yes"/>
      <point x="524" y="500"/>
      <point x="426" y="549"/>
      <point x="318" y="549" type="curve" smooth="yes"/>
      <point x="186" y="549" type="line"/>
      <point x="186" y="700" type="line"/>
      <point x="324" y="700" type="line" smooth="yes"/>
      <point x="553" y="700"/>
      <point x="699" y="565"/>
      <point x="699" y="350" type="curve" smooth="yes"/>
      <point x="699" y="135"/>
      <point x="553" y="0"/>
    </contour>
    <contour>
      <point x="375" y="902" type="line"/>
      <point x="467" y="988" type="line"/>
      <point x="573" y="916" type="line"/>
      <point x="375" y="776" type="line"/>
      <point x="178" y="916" type="line"/>
      <point x="284" y="988" type="line"/>
    </contour>
  </outline>
</glyph>
<glyph name="Dcroat" format="2">
  <advance width="733"/>
  <unicode hex="0110"/>
  <outline>
    <contour>
      <point x="5" y="298" type="line"/>
      <point x="5" y="398" type="line"/>
      <point x="349" y="398" type="line"/>
      <point x="349" y="298" type="line"/>
    </contour>
    <contour>
      <point x="74" y="700" type="line"/>
      <point x="249" y="700" type="line"/>
      <point x="249" y="0" type="line"/>
      <point x="74" y="0" type="line"/>
    </contour>
    <contour>
      <point x="324" y="0" type="curve" smooth="yes"/>
      <point x="186" y="0" type="line"/>
      <point x="186" y="151" type="line"/>
      <point x="318" y="151" type="line" smooth="yes"/>
      <point x="426" y="151"/>
      <point x="524" y="200"/>
      <point x="524" y="350" type="curve" smooth="yes"/>
      <point x="524" y="500"/>
      <point x="426" y="549"/>
      <point x="318" y="549" type="curve" smooth="yes"/>
      <point x="186" y="549" type="line"/>
      <point x="186" y="700" type="line"/>
      <point x="324" y="700" type="line" smooth="yes"/>
      <point x="553" y="700"/>
      <point x="699" y="565"/>
      <point x="699" y="350" type="curve" smooth="yes"/>
      <point x="699" y="135"/>
      <point x="553" y="0"/>
    </contour>
  </outline>
</glyph>
<glyph name="Ebreve" format="2">
  <advance width="603"/>
  <unicode hex="0114"/>
  <outline>
    <contour>
      <point x="186" y="0" type="line"/>
      <point x="186" y="139" type="line"/>
      <point x="539" y="139" type="line"/>
      <point x="539" y="0" type="line"/>
    </contour>
    <contour>
      <point x="186" y="561" type="line"/>
      <point x="186" y="700" type="line"/>
      <point x="539" y="700" type="line"/>
      <point x="539" y="561" type="line"/>
    </contour>
    <contour>
      <point x="186" y="299" type="line"/>
      <point x="186" y="436" type="line"/>
      <point x="519" y="436" type="line"/>
      <point x="519" y="299" type="line"/>
    </contour>
    <contour>
      <point x="74" y="700" type="line"/>
      <point x="237" y="700" type="line"/>
      <point x="237" y="0" type="line"/>
      <point x="74" y="0" type="line"/>
    </contour>
    <contour>
      <point x="142" y="922" type="curve"/>
      <point x="241" y="922" type="line"/>
      <point x="241" y="887"/>
      <point x="267" y="863"/>
      <point x="306" y="863" type="curve" smooth="yes"/>
      <point x="345" y="863"/>
      <point x="371" y="887"/>
      <point x="371" y="922" type="curve"/>
      <point x="470" y="922" type="line"/>
      <point x="470" y="840"/>
      <point x="411" y="776"/>
      <point x="306" y="776" type="curve" smooth="yes"/>
      <point x="201" y="776"/>
      <point x="142" y="840"/>
    </contour>
  </outline>
</glyph>
<glyph name="Edotaccent" format="2">
  <advance width="603"/>
  <unicode hex="0116"/>
  <outline>
    <contour>
      <point x="186" y="0" type="line"/>
      <point x="186" y="139" type="line"/>
      <point x="539" y="139" type="line"/>
      <point x="539" y="0" type="line"/>
    </contour>
    <contour>
      <point x="186" y="561" type="line"/>
      <point x="186" y="700" type="line"/>
      <point x="539" y="700" type="line"/>
      <point x="539" y="561" type="line"/>
    </contour>
    <contour>
      <point x="186" y="299" type="line"/>
      <point x="186" y="436" type="line"/>
      <point x="519" y="436" type="line"/>
      <point x="519" y="299" type="line"/>
    </contour>
    <contour>
      <point x="74" y="700" type="line"/>
      <point x="237" y="700" type="line"/>
      <point x="237" y="0" type="line"/>
      <point x="74" y="0" type="line"/>
    </contour>
    <contour>
      <point x="218" y="858" type="curve" smooth="yes"/>
      <point x="218" y="906"/>
      <point x="257" y="940"/>
      <point x="306" y="940" type="curve" smooth="yes"/>
      <point x="355" y="940"/>
      <point x="394" y="906"/>
      <point x="394" y="858" type="curve" smooth="yes"/>
      <point x="394" y="810"/>
      <point x="355" y="776"/>
      <point x="306" y="776" type="curve" smooth="yes"/>
      <point x="257" y="776"/>
      <point x="218" y="810"/>
    </contour>
  </outline>
</glyph>
<glyph name="Eogonek" format="2">
  <advance width="603"/>
  <unicode hex="0118"/>
  <outline>
    <contour>
      <point x="186" y="0" type="line"/>
      <point x="186" y="139" type="line"/>
      <point x="539" y="139" type="line"/>
      <point x="539" y="0" type="line"/>
    </contour>
    <contour>
      <point x="186" y="561" type="line"/>
      <point x="186" y="700" type="line"/>
      <point x="539" y="700" type="line"/>
      <point x="539" y="561" type="line"/>
    </contour>
    <contour>
      <point x="186" y="299" type="line"/>
      <point x="186" y="436" type="line"/>
      <point x="519" y="436" type="line"/>
      <point x="519" y="299" type="line"/>
    </contour>
    <contour>
      <point x="74" y="700" type="line"/>
      <point x="237" y="700" type="line"/>
      <point x="237" y="0" type="line"/>
      <point x="74" y="0" type="line"/>
    </contour>
    <contour>
      <point x="399" y="-111" type="curve"/>
      <point x="432" y="-180" type="line"/>
      <point x="417" y="-200"/>
      <point x="388" y="-220"/>
      <point x="332" y="-220" type="curve" smooth="yes"/>
      <point x="267" y="-220"/>
      <point x="215" y="-185"/>
      <point x="215" y="-120" type="curve" smooth="yes"/>
      <point x="215" y="-55"/>
      <point x="283" y="-11"/>
      <point x="353" y="25" type="curve"/>
      <point x="394" y="0" type="line"/>
      <point x="342" y="-28"/>
      <point x="314" y="-63"/>
      <point x="314" y="-94" type="curve" smooth="yes"/>
      <point x="314" y="-119"/>
      <point x="325" y="-131"/>
      <point x="349" y="-131" type="curve" smooth="yes"/>
      <point x="369" y="-131"/>
      <point x="385" y="-124"/>
    </contour>
  </outline>
</glyph>
<glyph name="eogonek" format="2">
  <advance width="573"/>
  <unicode hex="0119"/>
  <outline>
    <contour>
      <point x="117" y="198" type="line"/>
      <point x="117" y="282" type="line"/>
      <point x="377" y="282" type="line"/>
      <point x="370" y="337"/>
      <point x="342" y="369"/>
      <point x="288" y="369" type="curve" smooth="yes"/>
      <point x="227" y="369"/>
      <point x="187" y="328"/>
      <point x="187" y="254" type="curve"/>
      <point x="185" y="230" type="line"/>
      <point x="185" y="136"/>
      <point x="232" y="99"/>
      <point x="291" y="99" type="curve" smooth="yes"/>
      <point x="345" y="99"/>
      <point x="383" y="121"/>
      <point x="405" y="159" type="curve"/>
      <point x="541" y="126" type="line"/>
      <point x="495" y="44"/>
      <point x="426" y="-10"/>
      <point x="294" y="-10" type="curve" smooth="yes"/>
      <point x="125" y="-10"/>
      <point x="32" y="91"/>
      <point x="32" y="230" type="curve" smooth="yes"/>
      <point x="32" y="247"/>
      <point x="33" y="263"/>
      <point x="36" y="279" type="curve" smooth="yes"/>
      <point x="55" y="392"/>
      <point x="141" y="470"/>
      <point x="291" y="470" type="curve" smooth="yes"/>
      <point x="452" y="470"/>
      <point x="539" y="382"/>
      <point x="539" y="237" type="curve" smooth="yes"/>
      <point x="539" y="229"/>
      <point x="540" y="214"/>
      <point x="538" y="198" type="curve"/>
    </contour>
    <contour>
      <point x="327" y="-103" type="curve"/>
      <point x="360" y="-172" type="line"/>
      <point x="345" y="-192"/>
      <point x="316" y="-212"/>
      <point x="260" y="-212" type="curve" smooth="yes"/>
      <point x="195" y="-212"/>
      <point x="143" y="-177"/>
      <point x="143" y="-112" type="curve" smooth="yes"/>
      <point x="143" y="-47"/>
      <point x="211" y="-3"/>
      <point x="281" y="33" type="curve"/>
      <point x="322" y="8" type="line"/>
      <point x="270" y="-20"/>
      <point x="242" y="-55"/>
      <point x="242" y="-86" type="curve" smooth="yes"/>
      <point x="242" y="-111"/>
      <point x="253" y="-123"/>
      <point x="277" y="-123" type="curve" smooth="yes"/>
      <point x="297" y="-123"/>
      <point x="313" y="-116"/>
    </contour>
  </outline>
</glyph>
<glyph name="Ecaron" format="2">
  <advance width="603"/>
  <unicode hex="011A"/>
  <outline>
    <contour>
      <point x="186" y="0" type="line"/>
      <point x="186" y="139" type="line"/>
      <point x="539" y="139" type="line"/>
      <point x="539" y="0" type="line"/>
    </contour>
    <contour>
      <point x="186" y="561" type="line"/>
      <point x="186" y="700" type="line"/>
      <point x="539" y="700" type="line"/>
      <point x="539" y="561" type="line"/>
    </contour>
    <contour>
      <point x="186" y="299" type="line"/>
      <point x="186" y="436" type="line"/>
      <point x="519" y="436" type="line"/>
      <point x="519" y="299" type="line"/>
    </contour>
    <contour>
      <point x="74" y="700" type="line"/>
      <point x="237" y="700" type="line"/>
      <point x="237" y="0" type="line"/>
      <point x="74" y="0" type="line"/>
    </contour>
    <contour>
      <point x="306" y="902" type="line"/>
      <point x="398" y="988" type="line"/>
      <point x="504" y="916" type="line"/>
      <point x="306" y="776" type="line"/>
      <point x="109" y="916" type="line"/>
      <point x="215" y="988" type="line"/>
    </contour>
  </outline>
</glyph>
<glyph name="ecaron" format="2">
  <advance width="573"/>
  <unicode hex="011B"/>
  <outline>
    <contour>
      <point x="117" y="198" type="line"/>
      <point x="117" y="282" type="line"/>
      <point x="377" y="282" type="line"/>
      <point x="370" y="337"/>
      <point x="342" y="369"/>
      <point x="288" y="369" type="curve" smooth="yes"/>
      <point x="227" y="369"/>
      <point x="187" y="328"/>
      <point x="187" y="254" type="curve"/>
      <point x="185" y="230" type="line"/>
      <point x="185" y="136"/>
      <point x="232" y="99"/>
      <point x="291" y="99" type="curve" smooth="yes"/>
      <point x="345" y="99"/>
      <point x="383" y="121"/>
      <point x="405" y="159" type="curve"/>
      <point x="541" y="126" type="line"/>
      <point x="495" y="44"/>
      <point x="426" y="-10"/>
      <point x="294" y="-10" type="curve" smooth="yes"/>
      <point x="125" y="-10"/>
      <point x="32" y="91"/>
      <point x="32" y="230" type="curve" smooth="yes"/>
      <point x="32" y="247"/>
      <point x="33" y="263"/>
      <point x="36" y="279" type="curve" smooth="yes"/>
      <point x="55" y="392"/>
      <point x="141" y="470"/>
      <point x="291" y="470" type="curve" smooth="yes"/>
      <point x="452" y="470"/>
      <point x="539" y="382"/>
      <point x="539" y="237" type="curve" smooth="yes"/>
      <point x="539" y="229"/>
      <point x="540" y="214"/>
      <point x="538" y="198" type="curve"/>
    </contour>
    <contour>
      <point x="291" y="656" type="line"/>
      <point x="382" y="742" type="line"/>
      <point x="489" y="671" type="line"/>
      <point x="291" y="531" type="line"/>
      <point x="94" y="671" type="line"/>
      <point x="200" y="742" type="line"/>
    </contour>
  </outline>
</glyph>
<glyph name="Gcircumflex" format="2">
  <advance width="814"/>
  <unicode hex="011C"/>
  <outline>
    <contour>
      <point x="421" y="253" type="line"/>
      <point x="421" y="383" type="line"/>
      <point x="775" y="383" type="line"/>
      <point x="787" y="161"/>
      <point x="656" y="-22"/>
      <point x="417" y="-22" type="curve" smooth="yes"/>
      <point x="194" y="-22"/>
      <point x="34" y="128"/>
      <point x="34" y="350" type="curve" smooth="yes"/>
      <point x="34" y="572"/>
      <point x="200" y="716"/>
      <point x="423" y="716" type="curve" smooth="yes"/>
      <point x="571" y="716"/>
      <point x="673" y="647"/>
      <point x="739" y="550" type="curve"/>
      <point x="588" y="472" type="line"/>
      <point x="556" y="527"/>
      <point x="505" y="569"/>
      <point x="423" y="569" type="curve" smooth="yes"/>
      <point x="306" y="569"/>
      <point x="211" y="488"/>
      <point x="211" y="350" type="curve" smooth="yes"/>
      <point x="211" y="212"/>
      <point x="300" y="125"/>
      <point x="423" y="125" type="curve" smooth="yes"/>
      <point x="526" y="125"/>
      <point x="584" y="180"/>
      <point x="607" y="253" type="curve"/>
    </contour>
    <contour>
      <point x="423" y="862" type="line"/>
      <point x="332" y="776" type="line"/>
      <point x="226" y="848" type="line"/>
      <point x="423" y="988" type="line"/>
      <point x="621" y="848" type="line"/>
      <point x="514" y="776" type="line"/>
    </contour>
  </outline>
</glyph>
<glyph name="Hbar" format="2">
  <advance width="786"/>
  <unicode hex="0126"/>
  <outline>
    <contour>
      <point x="121" y="293" type="line"/>
      <point x="121" y="445" type="line"/>
      <point x="651" y="445" type="line"/>
      <point x="651" y="293" type="line"/>
    </contour>
    <contour>
      <point x="544" y="700" type="line"/>
      <point x="713" y="700" type="line"/>
      <point x="713" y="0" type="line"/>
      <point x="544" y="0" type="line"/>
    </contour>
    <contour>
      <point x="74" y="700" type="line"/>
      <point x="243" y="700" type="line"/>
      <point x="243" y="0" type="line"/>
      <point x="74" y="0" type="line"/>
    </contour>
    <contour>
      <point x="5" y="537" type="line"/>
      <point x="5" y="643" type="line"/>
      <point x="782" y="643" type="line"/>
      <point x="782" y="537" type="line"/>
    </contour>
  </outline>
</glyph>
<glyph name="hbar" format="2">
  <advance width="568"/>
  <unicode hex="0127"/>
  <outline>
    <contour>
      <point x="211" y="780" type="line"/>
      <point x="211" y="0" type="line"/>
      <point x="59" y="0" type="line"/>
      <point x="59" y="780" type="line"/>
    </contour>
    <contour>
      <point x="358" y="280" type="line" smooth="yes"/>
      <point x="358" y="334"/>
      <point x="340" y="364"/>
      <point x="291" y="364" type="curve" smooth="yes"/>
      <point x="243" y="364"/>
      <point x="211" y="334"/>
      <point x="211" y="280" type="curve"/>
      <point x="185" y="280" type="line"/>
      <point x="185" y="389"/>
      <point x="237" y="477"/>
      <point x="351" y="477" type="curve" smooth="yes"/>
      <point x="465" y="477"/>
      <point x="509" y="415"/>
      <point x="509" y="302" type="curve" smooth="yes"/>
      <point x="509" y="0" type="line"/>
      <point x="358" y="0" type="line"/>
    </contour>
    <contour>
      <point x="5" y="597" type="line"/>
      <point x="5" y="728" type="line"/>
      <point x="337" y="728" type="line"/>
      <point x="337" y="597" type="line"/>
    </contour>
  </outline>
</glyph>
<glyph name="itilde" format="2">
  <advance width="276"/>
  <unicode hex="0129"/>
  <outline>
    <contour>
      <point x="64" y="460" type="line"/>
      <point x="211" y="460" type="line"/>
      <point x="211" y="0" type="line"/>
      <point x="64" y="0" type="line"/>
    </contour>
    <contour>
      <point x="-58" y="596" type="line"/>
      <point x="-48" y="645"/>
      <point x="-3" y="691"/>
      <point x="61" y="691" type="curve" smooth="yes"/>
      <point x="127" y="691"/>
      <point x="141" y="639"/>
      <point x="197" y="639" type="curve" smooth="yes"/>
      <point x="222" y="639"/>
      <point x="243" y="660"/>
      <point x="263" y="692" type="curve"/>
      <point x="334" y="618" type="line"/>
      <point x="318" y="581"/>
      <point x="262" y="532"/>
      <point x="200" y="532" type="curve" smooth="yes"/>
      <point x="145" y="532"/>
      <point x="109" y="585"/>
      <point x="60" y="585" type="curve" smooth="yes"/>
      <point x="22" y="585"/>
      <point x="13" y="549"/>
      <point x="13" y="534" type="curve"/>
    </contour>
  </outline>
</glyph>
<glyph name="ibreve" format="2">
  <advance width="276"/>
  <unicode hex="012D"/>
  <outline>
    <contour>
      <point x="64" y="460" type="line"/>
      <point x="211" y="460" type="line"/>
      <point x="211" y="0" type="line"/>
      <point x="64" y="0" type="line"/>
    </contour>
    <contour>
      <point x="-27" y="677" type="curve"/>
      <point x="72" y="677" type="line"/>
      <point x="72" y="642"/>
      <point x="99" y="618"/>
      <point x="138" y="618" type="curve" smooth="yes"/>
      <point x="177" y="618"/>
      <point x="203" y="642"/>
      <point x="203" y="677" type="curve"/>
      <point x="302" y="677" type="line"/>
      <point x="302" y="595"/>
      <point x="243" y="531"/>
      <point x="138" y="531" type="curve" smooth="yes"/>
      <point x="33" y="531"/>
      <point x="-27" y="595"/>
    </contour>
  </outline>
</glyph>
<glyph name="Iogonek" format="2">
  <advance width="320"/>
  <unicode hex="012E"/>
  <outline>
    <contour>
      <point x="74" y="700" type="line"/>
      <point x="246" y="700" type="line"/>
      <point x="246" y="0" type="line"/>
      <point x="74" y="0" type="line"/>
    </contour>
    <contour>
      <point x="225" y="-109" type="curve"/>
      <point x="259" y="-178" type="line"/>
      <point x="244" y="-198"/>
      <point x="214" y="-218"/>
      <point x="158" y="-218" type="curve" smooth="yes"/>
      <point x="93" y="-218"/>
      <point x="41" y="-183"/>
      <point x="41" y="-118" type="curve" smooth="yes"/>
      <point x="41" y="-53"/>
      <point x="109" y="-9"/>
      <point x="179" y="27" type="curve"/>
      <point x="221" y="2" type="line"/>
      <point x="169" y="-26"/>
      <point x="140" y="-61"/>
      <point x="140" y="-92" type="curve" smooth="yes"/>
      <point x="140" y="-117"/>
      <point x="151" y="-129"/>
      <point x="175" y="-129" type="curve" smooth="yes"/>
      <point x="195" y="-129"/>
      <point x="211" y="-122"/>
    </contour>
  </outline>
</glyph>
<glyph name="iogonek" format="2">
  <advance width="276"/>
  <unicode hex="012F"/>
  <outline>
    <contour>
      <point x="50" y="632" type="curve" smooth="yes"/>
      <point x="50" y="680"/>
      <point x="89" y="714"/>
      <point x="138" y="714" type="curve" smooth="yes"/>
      <point x="187" y="714"/>
      <point x="226" y="680"/>
      <point x="226" y="632" type="curve" smooth="yes"/>
      <point x="226" y="584"/>
      <point x="187" y="551"/>
      <point x="138" y="551" type="curve" smooth="yes"/>
      <point x="89" y="551"/>
      <point x="50" y="584"/>
    </contour>
    <contour>
      <point x="64" y="460" type="line"/>
      <point x="211" y="460" type="line"/>
      <point x="211" y="0" type="line"/>
      <point x="64" y="0" type="line"/>
    </contour>
    <contour>
      <point x="191" y="-111" type="curve"/>
      <point x="224" y="-180" type="line"/>
      <point x="209" y="-200"/>
      <point x="180" y="-220"/>
      <point x="124" y="-220" type="curve" smooth="yes"/>
      <point x="59" y="-220"/>
      <point x="7" y="-185"/>
      <point x="7" y="-120" type="curve" smooth="yes"/>
      <point x="7" y="-55"/>
      <point x="75" y="-11"/>
      <point x="145" y="25" type="curve"/>
      <point x="186" y="0" type="line"/>
      <point x="134" y="-28"/>
      <point x="106" y="-63"/>
      <point x="106" y="-94" type="curve" smooth="yes"/>
      <point x="106" y="-119"/>
      <point x="117" y="-131"/>
      <point x="141" y="-131" type="curve" smooth="yes"/>
      <point x="161" y="-131"/>
      <point x="177" y="-124"/>
    </contour>
  </outline>
</glyph>
<glyph name="IJ" format="2">
  <advance width="624"/>
  <unicode hex="0132"/>
  <outline>
    <contour>
      <point x="222" y="-63" type="line"/>
      <point x="242" y="-81"/>
      <point x="273" y="-96"/>
      <point x="303" y="-96" type="curve" smooth="yes"/>
      <point x="333" y="-96"/>
      <point x="368" y="-76"/>
      <point x="368" y="-16" type="curve" smooth="yes"/>
      <point x="368" y="700" type="line"/>
      <point x="551" y="700" type="line"/>
      <point x="551" y="-54" type="line" smooth="yes"/>
      <point x="551" y="-188"/>
      <point x="445" y="-239"/>
      <point x="320" y="-239" type="curve" smooth="yes"/>
      <point x="242" y="-239"/>
      <point x="170" y="-208"/>
      <point x="130" y="-182" type="curve"/>
    </contour>
    <contour>
      <point x="74" y="700" type="line"/>
      <point x="246" y="700" type="line"/>
      <point x="246" y="0" type="line"/>
      <point x="74" y="0" type="line"/>
    </contour>
  </outline>
</glyph>
<glyph name="ij" format="2">
  <advance width="545"/>
  <unicode hex="0133"/>
  <outline>
    <contour>
      <point x="319" y="632" type="curve" smooth="yes"/>
      <point x="319" y="680"/>
      <point x="358" y="714"/>
      <point x="407" y="714" type="curve" smooth="yes"/>
      <point x="456" y="714"/>
      <point x="495" y="680"/>
      <point x="495" y="632" type="curve" smooth="yes"/>
      <point x="495" y="584"/>
      <point x="456" y="551"/>
      <point x="407" y="551" type="curve" smooth="yes"/>
      <point x="358" y="551"/>
      <point x="319" y="584"/>
    </contour>
    <contour>
      <point x="239" y="-77" type="line"/>
      <point x="252" y="-95"/>
      <point x="268" y="-102"/>
      <point x="286" y="-102" type="curve" smooth="yes"/>
      <point x="316" y="-102"/>
      <point x="334" y="-81"/>
      <point x="334" y="-34" type="curve" smooth="yes"/>
      <point x="334" y="460" type="line"/>
      <point x="479" y="460" type="line"/>
      <point x="479" y="-72" type="line" smooth="yes"/>
      <point x="479" y="-175"/>
      <point x="421" y="-239"/>
      <point x="306" y="-239" type="curve" smooth="yes"/>
      <point x="238" y="-239"/>
      <point x="199" y="-208"/>
      <point x="178" y="-188" type="curve"/>
    </contour>
    <contour>
      <point x="50" y="632" type="curve" smooth="yes"/>
      <point x="50" y="680"/>
      <point x="89" y="714"/>
      <point x="138" y="714" type="curve" smooth="yes"/>
      <point x="187" y="714"/>
      <point x="226" y="680"/>
      <point x="226" y="632" type="curve" smooth="yes"/>
      <point x="226" y="584"/>
      <point x="187" y="551"/>
      <point x="138" y="551" type="curve" smooth="yes"/>
      <point x="89" y="551"/>
      <point x="50" y="584"/>
    </contour>
    <contour>
      <point x="64" y="460" type="line"/>
      <point x="211" y="460" type="line"/>
      <point x="211" y="0" type="line"/>
      <point x="64" y="0" type="line"/>
    </contour>
  </outline>
</glyph>
<glyph name="jcircumflex" format="2">
  <advance width="271"/>
  <unicode hex="0135"/>
  <outline>
    <contour>
      <point x="-33" y="-77" type="line"/>
      <point x="-20" y="-95"/>
      <point x="-5" y="-102"/>
      <point x="13" y="-102" type="curve" smooth="yes"/>
      <point x="43" y="-102"/>
      <point x="61" y="-81"/>
      <point x="61" y="-34" type="curve" smooth="yes"/>
      <point x="61" y="460" type="line"/>
      <point x="207" y="460" type="line"/>
      <point x="207" y="-72" type="line" smooth="yes"/>
      <point x="207" y="-175"/>
      <point x="148" y="-239"/>
      <point x="33" y="-239" type="curve" smooth="yes"/>
      <point x="-35" y="-239"/>
      <point x="-73" y="-208"/>
      <point x="-94" y="-188" type="curve"/>
    </contour>
    <contour>
      <point x="134" y="616" type="line"/>
      <point x="42" y="531" type="line"/>
      <point x="-64" y="602" type="line"/>
      <point x="134" y="742" type="line"/>
      <point x="331" y="602" type="line"/>
      <point x="225" y="531" type="line"/>
    </contour>
  </outline>
</glyph>
<glyph name="Lacute" format="2">
  <advance width="528"/>
  <unicode hex="0139"/>
  <outline>
    <contour>
      <point x="74" y="700" type="line"/>
      <point x="243" y="700" type="line"/>
      <point x="243" y="146" type="line"/>
      <point x="524" y="146" type="line"/>
      <point x="524" y="0" type="line"/>
      <point x="74" y="0" type="line"/>
    </contour>
    <contour>
      <point x="460" y="926" type="line"/>
      <point x="280" y="776" type="line"/>
      <point x="195" y="819" type="line"/>
      <point x="345" y="979" type="line"/>
    </contour>
  </outline>
</glyph>
<glyph name="lacute" format="2">
  <advance width="270"/>
  <unicode hex="013A"/>
  <outline>
    <contour>
      <point x="59" y="780" type="line"/>
      <point x="211" y="780" type="line"/>
      <point x="211" y="0" type="line"/>
      <point x="59" y="0" type="line"/>
    </contour>
    <contour>
      <point x="297" y="990" type="line"/>
      <point x="117" y="840" type="line"/>
      <point x="31" y="882" type="line"/>
      <point x="181" y="1042" type="line"/>
    </contour>
  </outline>
</glyph>
<glyph name="uni013C" format="2">
  <advance width="270"/>
  <unicode hex="013C"/>
  <outline>
    <contour>
      <point x="59" y="780" type="line"/>
      <point x="211" y="780" type="line"/>
      <point x="211" y="0" type="line"/>
      <point x="59" y="0" type="line"/>
    </contour>
    <contour>
      <point x="103" y="-60" type="line"/>
      <point x="255" y="-92" type="line"/>
      <point x="130" y="-342" type="line"/>
      <point x="15" y="-319" type="line"/>
    </contour>
  </outline>
</glyph>
<glyph name="Lcaron" format="2">
  <advance width="528"/>
  <unicode hex="013D"/>
  <outline>
    <contour>
      <point x="74" y="700" type="line"/>
      <point x="243" y="700" type="line"/>
      <point x="243" y="146" type="line"/>
      <point x="524" y="146" type="line"/>
      <point x="524" y="0" type="line"/>
      <point x="74" y="0" type="line"/>
    </contour>
    <contour>
      <point x="412" y="716" type="line"/>
      <point x="564" y="684" type="line"/>
      <point x="439" y="434" type="line"/>
      <point x="324" y="457" type="line"/>
    </contour>
  </outline>
</glyph>
<glyph name="lcaron" format="2">
  <advance width="270"/>
  <unicode hex="013E"/>
  <outline>
    <contour>
      <point x="59" y="780" type="line"/>
      <point x="211" y="780" type="line"/>
      <point x="211" y="0" type="line"/>
      <point x="59" y="0" type="line"/>
    </contour>
    <contour>
      <point x="349" y="780" type="line"/>
      <point x="501" y="748" type="line"/>
      <point x="376" y="498" type="line"/>
      <point x="261" y="521" type="line"/>
    </contour>
  </outline>
</glyph>
<glyph name="Ldot" format="2">
  <advance width="528"/>
  <unicode hex="013F"/>
  <outline>
    <contour>
      <point x="74" y="700" type="line"/>
      <point x="243" y="700" type="line"/>
      <point x="243" y="146" type="line"/>
      <point x="524" y="146" type="line"/>
      <point x="524" y="0" type="line"/>
      <point x="74" y="0" type="line"/>
    </contour>
    <contour>
      <point x="323" y="431" type="curve" smooth="yes"/>
      <point x="323" y="482"/>
      <point x="363" y="523"/>
      <point x="418" y="523" type="curve" smooth="yes"/>
      <point x="473" y="523"/>
      <point x="512" y="482"/>
      <point x="512" y="431" type="curve" smooth="yes"/>
      <point x="512" y="380"/>
      <point x="473" y="338"/>
      <point x="418" y="338" type="curve" smooth="yes"/>
      <point x="363" y="338"/>
      <point x="323" y="380"/>
    </contour>
  </outline>
</glyph>
<glyph name="ldot" format="2">
  <advance width="476"/>
  <unicode hex="0140"/>
  <outline>
    <contour>
      <point x="59" y="780" type="line"/>
      <point x="211" y="780" type="line"/>
      <point x="211" y="0" type="line"/>
      <point x="59" y="0" type="line"/>
    </contour>
    <contour>
      <point x="252" y="409" type="curve" smooth="yes"/>
      <point x="252" y="460"/>
      <point x="292" y="501"/>
      <point x="347" y="501" type="curve" smooth="yes"/>
      <point x="402" y="501"/>
      <point x="441" y="460"/>
      <point x="441" y="409" type="curve" smooth="yes"/>
      <point x="441" y="358"/>
      <point x="402" y="316"/>
      <point x="347" y="316" type="curve" smooth="yes"/>
      <point x="292" y="316"/>
      <point x="252" y="358"/>
    </contour>
  </outline>
</glyph>
<glyph name="Lslash" format="2">
  <advance width="534"/>
  <unicode hex="0141"/>
  <outline>
    <contour>
      <point x="5" y="309" type="line"/>
      <point x="-34" y="382" type="line"/>
      <point x="330" y="628" type="line"/>
      <point x="369" y="554" type="line"/>
    </contour>
    <contour>
      <point x="74" y="700" type="line"/>
      <point x="243" y="700" type="line"/>
      <point x="243" y="146" type="line"/>
      <point x="524" y="146" type="line"/>
      <point x="524" y="0" type="line"/>
      <point x="74" y="0" type="line"/>
    </contour>
  </outline>
</glyph>
<glyph name="Nacute" format="2">
  <advance width="793"/>
  <unicode hex="0143"/>
  <outline>
    <contour>
      <point x="557" y="700" type="line"/>
      <point x="720" y="700" type="line"/>
      <point x="720" y="-35" type="line"/>
      <point x="237" y="393" type="line"/>
      <point x="237" y="0" type="line"/>
      <point x="74" y="0" type="line"/>
      <point x="74" y="735" type="line"/>
      <point x="557" y="307" type="line"/>
    </contour>
    <contour>
      <point x="548" y="911" type="line"/>
      <point x="368" y="761" type="line"/>
      <point x="282" y="804" type="line"/>
      <point x="432" y="964" type="line"/>
    </contour>
  </outline>
</glyph>
<glyph name="nacute" format="2">
  <advance width="575"/>
  <unicode hex="0144"/>
  <outline>
    <contour>
      <point x="211" y="460" type="line"/>
      <point x="211" y="0" type="line"/>
      <point x="59" y="0" type="line"/>
      <point x="59" y="460" type="line"/>
    </contour>
    <contour>
      <point x="358" y="280" type="line" smooth="yes"/>
      <point x="358" y="334"/>
      <point x="340" y="364"/>
      <point x="291" y="364" type="curve" smooth="yes"/>
      <point x="243" y="364"/>
      <point x="211" y="334"/>
      <point x="211" y="280" type="curve"/>
      <point x="185" y="274" type="line"/>
      <point x="185" y="383"/>
      <point x="237" y="471"/>
      <point x="351" y="471" type="curve" smooth="yes"/>
      <point x="465" y="471"/>
      <point x="516" y="409"/>
      <point x="516" y="296" type="curve" smooth="yes"/>
      <point x="516" y="0" type="line"/>
      <point x="358" y="0" type="line"/>
    </contour>
    <contour>
      <point x="452" y="681" type="line"/>
      <point x="272" y="531" type="line"/>
      <point x="187" y="573" type="line"/>
      <point x="337" y="733" type="line"/>
    </contour>
  </outline>
</glyph>
<glyph name="uni0145" format="2">
  <advance width="793"/>
  <unicode hex="0145"/>
  <outline>
    <contour>
      <point x="363" y="-54" type="line"/>
      <point x="515" y="-86" type="line"/>
      <point x="390" y="-336" type="line"/>
      <point x="275" y="-313" type="line"/>
    </contour>
    <contour>
      <point x="557" y="700" type="line"/>
      <point x="720" y="700" type="line"/>
      <point x="720" y="-35" type="line"/>
      <point x="237" y="393" type="line"/>
      <point x="237" y="0" type="line"/>
      <point x="74" y="0" type="line"/>
      <point x="74" y="735" type="line"/>
      <point x="557" y="307" type="line"/>
    </contour>
  </outline>
</glyph>
<glyph name="uni0146" format="2">
  <advance width="575"/>
  <unicode hex="0146"/>
  <outline>
    <contour>
      <point x="211" y="460" type="line"/>
      <point x="211" y="0" type="line"/>
      <point x="59" y="0" type="line"/>
      <point x="59" y="460" type="line"/>
    </contour>
    <contour>
      <point x="358" y="280" type="line" smooth="yes"/>
      <point x="358" y="334"/>
      <point x="340" y="364"/>
      <point x="291" y="364" type="curve" smooth="yes"/>
      <point x="243" y="364"/>
      <point x="211" y="334"/>
      <point x="211" y="280" type="curve"/>
      <point x="182" y="274" type="line"/>
      <point x="182" y="383"/>
      <point x="237" y="471"/>
      <point x="351" y="471" type="curve" smooth="yes"/>
      <point x="465" y="471"/>
      <point x="516" y="409"/>
      <point x="516" y="296" type="curve" smooth="yes"/>
      <point x="516" y="0" type="line"/>
      <point x="358" y="0" type="line"/>
    </contour>
    <contour>
      <point x="255" y="-60" type="line"/>
      <point x="407" y="-92" type="line"/>
      <point x="282" y="-342" type="line"/>
      <point x="167" y="-319" type="line"/>
    </contour>
  </outline>
</glyph>
<glyph name="napostrophe" format="2">
  <advance width="747"/>
  <unicode hex="0149"/>
  <outline>
    <contour>
      <point x="384" y="460" type="line"/>
      <point x="384" y="0" type="line"/>
      <point x="232" y="0" type="line"/>
      <point x="232" y="460" type="line"/>
    </contour>
    <contour>
      <point x="530" y="280" type="line" smooth="yes"/>
      <point x="530" y="334"/>
      <point x="512" y="364"/>
      <point x="463" y="364" type="curve" smooth="yes"/>
      <point x="415" y="364"/>
      <point x="384" y="334"/>
      <point x="384" y="280" type="curve"/>
      <point x="354" y="274" type="line"/>
      <point x="354" y="383"/>
      <point x="410" y="471"/>
      <point x="524" y="471" type="curve" smooth="yes"/>
      <point x="638" y="471"/>
      <point x="688" y="409"/>
      <point x="688" y="296" type="curve" smooth="yes"/>
      <point x="688" y="0" type="line"/>
      <point x="530" y="0" type="line"/>
    </contour>
    <contour>
      <point x="111" y="700" type="line"/>
      <point x="269" y="700" type="line"/>
      <point x="166" y="445" type="line"/>
      <point x="58" y="445" type="line"/>
    </contour>
  </outline>
</glyph>
<glyph name="Eng" format="2">
  <advance width="793"/>
  <unicode hex="014A"/>
  <outline>
    <contour>
      <point x="546" y="-215" type="curve" smooth="yes"/>
      <point x="495" y="-215"/>
      <point x="459" y="-200"/>
      <point x="419" y="-164" type="curve"/>
      <point x="480" y="-53" type="line"/>
      <point x="494" y="-70"/>
      <point x="508" y="-79"/>
      <point x="526" y="-79" type="curve" smooth="yes"/>
      <point x="558" y="-79"/>
      <point x="574" y="-56"/>
      <point x="574" y="-11" type="curve" smooth="yes"/>
      <point x="574" y="86" type="line"/>
      <point x="237" y="393" type="line"/>
      <point x="237" y="0" type="line"/>
      <point x="74" y="0" type="line"/>
      <point x="74" y="735" type="line"/>
      <point x="557" y="307" type="line"/>
      <point x="557" y="700" type="line"/>
      <point x="720" y="700" type="line"/>
      <point x="720" y="-49" type="line" smooth="yes"/>
      <point x="720" y="-152"/>
      <point x="654" y="-215"/>
    </contour>
  </outline>
</glyph>
<glyph name="eng" format="2">
  <advance width="575"/>
  <unicode hex="014B"/>
  <outline>
    <contour>
      <point x="330" y="-239" type="curve" smooth="yes"/>
      <point x="282" y="-239"/>
      <point x="240" y="-222"/>
      <point x="202" y="-188" type="curve"/>
      <point x="263" y="-77" type="line"/>
      <point x="277" y="-95"/>
      <point x="292" y="-102"/>
      <point x="310" y="-102" type="curve" smooth="yes"/>
      <point x="341" y="-102"/>
      <point x="358" y="-79"/>
      <point x="358" y="-34" type="curve" smooth="yes"/>
      <point x="358" y="280" type="line" smooth="yes"/>
      <point x="358" y="338"/>
      <point x="337" y="364"/>
      <point x="291" y="364" type="curve" smooth="yes"/>
      <point x="242" y="364"/>
      <point x="211" y="333"/>
      <point x="211" y="277" type="curve" smooth="yes"/>
      <point x="211" y="0" type="line"/>
      <point x="59" y="0" type="line"/>
      <point x="59" y="460" type="line"/>
      <point x="211" y="460" type="line"/>
      <point x="211" y="392" type="line"/>
      <point x="240" y="443"/>
      <point x="288" y="471"/>
      <point x="351" y="471" type="curve" smooth="yes"/>
      <point x="461" y="471"/>
      <point x="516" y="412"/>
      <point x="516" y="296" type="curve" smooth="yes"/>
      <point x="516" y="-72" type="line" smooth="yes"/>
      <point x="516" y="-178"/>
      <point x="449" y="-239"/>
    </contour>
  </outline>
</glyph>
<glyph name="obreve" format="2">
  <advance width="589"/>
  <unicode hex="014F"/>
  <outline>
    <contour>
      <point x="32" y="230" type="curve" smooth="yes"/>
      <point x="32" y="375"/>
      <point x="144" y="471"/>
      <point x="295" y="471" type="curve" smooth="yes"/>
      <point x="446" y="471"/>
      <point x="558" y="375"/>
      <point x="558" y="230" type="curve" smooth="yes"/>
      <point x="558" y="85"/>
      <point x="446" y="-10"/>
      <point x="295" y="-10" type="curve" smooth="yes"/>
      <point x="144" y="-10"/>
      <point x="32" y="85"/>
    </contour>
    <contour>
      <point x="188" y="230" type="curve" smooth="yes"/>
      <point x="188" y="159"/>
      <point x="236" y="115"/>
      <point x="295" y="115" type="curve" smooth="yes"/>
      <point x="354" y="115"/>
      <point x="402" y="159"/>
      <point x="402" y="230" type="curve" smooth="yes"/>
      <point x="402" y="301"/>
      <point x="354" y="346"/>
      <point x="295" y="346" type="curve" smooth="yes"/>
      <point x="236" y="346"/>
      <point x="188" y="301"/>
    </contour>
    <contour>
      <point x="131" y="677" type="curve"/>
      <point x="230" y="677" type="line"/>
      <point x="230" y="642"/>
      <point x="256" y="618"/>
      <point x="295" y="618" type="curve" smooth="yes"/>
      <point x="334" y="618"/>
      <point x="360" y="642"/>
      <point x="360" y="677" type="curve"/>
      <point x="459" y="677" type="line"/>
      <point x="459" y="595"/>
      <point x="400" y="531"/>
      <point x="295" y="531" type="curve" smooth="yes"/>
      <point x="190" y="531"/>
      <point x="131" y="595"/>
    </contour>
  </outline>
</glyph>
<glyph name="racute" format="2">
  <advance width="411"/>
  <unicode hex="0155"/>
  <outline>
    <contour>
      <point x="208" y="460" type="line"/>
      <point x="208" y="0" type="line"/>
      <point x="59" y="0" type="line"/>
      <point x="59" y="460" type="line"/>
    </contour>
    <contour>
      <point x="341" y="303" type="line"/>
      <point x="325" y="319"/>
      <point x="308" y="329"/>
      <point x="282" y="329" type="curve" smooth="yes"/>
      <point x="238" y="329"/>
      <point x="208" y="293"/>
      <point x="208" y="227" type="curve"/>
      <point x="172" y="280" type="line"/>
      <point x="172" y="389"/>
      <point x="246" y="471"/>
      <point x="324" y="471" type="curve" smooth="yes"/>
      <point x="357" y="471"/>
      <point x="391" y="456"/>
      <point x="407" y="433" type="curve"/>
    </contour>
    <contour>
      <point x="394" y="681" type="line"/>
      <point x="214" y="531" type="line"/>
      <point x="129" y="574" type="line"/>
      <point x="279" y="734" type="line"/>
    </contour>
  </outline>
</glyph>
<glyph name="scircumflex" format="2">
  <advance width="456"/>
  <unicode hex="015D"/>
  <outline>
    <contour>
      <point x="83" y="175" type="line"/>
      <point x="151" y="115"/>
      <point x="203" y="98"/>
      <point x="235" y="98" type="curve" smooth="yes"/>
      <point x="262" y="98"/>
      <point x="281" y="105"/>
      <point x="281" y="128" type="curve" smooth="yes"/>
      <point x="281" y="162"/>
      <point x="212" y="172"/>
      <point x="158" y="197" type="curve" smooth="yes"/>
      <point x="98" y="225"/>
      <point x="42" y="256"/>
      <point x="42" y="336" type="curve" smooth="yes"/>
      <point x="42" y="424"/>
      <point x="126" y="470"/>
      <point x="225" y="470" type="curve" smooth="yes"/>
      <point x="304" y="470"/>
      <point x="373" y="440"/>
      <point x="422" y="402" type="curve"/>
      <point x="368" y="303" type="line"/>
      <point x="332" y="338"/>
      <point x="272" y="360"/>
      <point x="235" y="360" type="curve" smooth="yes"/>
      <point x="203" y="360"/>
      <point x="187" y="352"/>
      <point x="187" y="332" type="curve" smooth="yes"/>
      <point x="187" y="305"/>
      <point x="247" y="290"/>
      <point x="305" y="268" type="curve" smooth="yes"/>
      <point x="370" y="243"/>
      <point x="432" y="210"/>
      <point x="432" y="130" type="curve" smooth="yes"/>
      <point x="432" y="25"/>
      <point x="367" y="-19"/>
      <point x="255" y="-19" type="curve" smooth="yes"/>
      <point x="157" y="-19"/>
      <point x="77" y="19"/>
      <point x="19" y="75" type="curve"/>
    </contour>
    <contour>
      <point x="237" y="616" type="line"/>
      <point x="146" y="531" type="line"/>
      <point x="40" y="602" type="line"/>
      <point x="237" y="742" type="line"/>
      <point x="435" y="602" type="line"/>
      <point x="329" y="531" type="line"/>
    </contour>
  </outline>
</glyph>
<glyph name="Scedilla" format="2">
  <advance width="625"/>
  <unicode hex="015E"/>
  <outline>
    <contour>
      <point x="153" y="251" type="line"/>
      <point x="201" y="167"/>
      <point x="249" y="125"/>
      <point x="323" y="125" type="curve" smooth="yes"/>
      <point x="378" y="125"/>
      <point x="408" y="148"/>
      <point x="408" y="193" type="curve" smooth="yes"/>
      <point x="408" y="252"/>
      <point x="344" y="270"/>
      <point x="264" y="302" type="curve" smooth="yes"/>
      <point x="195" y="329"/>
      <point x="74" y="378"/>
      <point x="74" y="518" type="curve" smooth="yes"/>
      <point x="74" y="636"/>
      <point x="172" y="716"/>
      <point x="321" y="716" type="curve" smooth="yes"/>
      <point x="471" y="716"/>
      <point x="546" y="637"/>
      <point x="577" y="562" type="curve"/>
      <point x="449" y="489" type="line"/>
      <point x="419" y="541"/>
      <point x="379" y="573"/>
      <point x="325" y="573" type="curve" smooth="yes"/>
      <point x="276" y="573"/>
      <point x="248" y="549"/>
      <point x="248" y="513" type="curve" smooth="yes"/>
      <point x="248" y="465"/>
      <point x="325" y="443"/>
      <point x="408" y="413" type="curve" smooth="yes"/>
      <point x="505" y="379"/>
      <point x="587" y="317"/>
      <point x="587" y="196" type="curve" smooth="yes"/>
      <point x="587" y="53"/>
      <point x="479" y="-22"/>
      <point x="319" y="-22" type="curve" smooth="yes"/>
      <point x="191" y="-22"/>
      <point x="78" y="52"/>
      <point x="34" y="167" type="curve"/>
    </contour>
    <contour>
      <point x="291" y="61" type="line"/>
      <point x="401" y="57" type="line"/>
      <point x="315" y="-65" type="line"/>
      <point x="326" y="-62"/>
      <point x="339" y="-61"/>
      <point x="352" y="-61" type="curve" smooth="yes"/>
      <point x="392" y="-61"/>
      <point x="443" y="-93"/>
      <point x="443" y="-159" type="curve" smooth="yes"/>
      <point x="443" y="-231"/>
      <point x="375" y="-268"/>
      <point x="312" y="-268" type="curve" smooth="yes"/>
      <point x="256" y="-268"/>
      <point x="215" y="-259"/>
      <point x="168" y="-229" type="curve"/>
      <point x="214" y="-160" type="line"/>
      <point x="239" y="-178"/>
      <point x="272" y="-185"/>
      <point x="292" y="-185" type="curve" smooth="yes"/>
      <point x="326" y="-185"/>
      <point x="346" y="-174"/>
      <point x="346" y="-150" type="curve" smooth="yes"/>
      <point x="346" y="-124"/>
      <point x="317" y="-118"/>
      <point x="286" y="-118" type="curve" smooth="yes"/>
      <point x="276" y="-118"/>
      <point x="238" y="-120"/>
      <point x="203" y="-134" type="curve"/>
    </contour>
  </outline>
</glyph>
<glyph name="scedilla" format="2">
  <advance width="456"/>
  <unicode hex="015F"/>
  <outline>
    <contour>
      <point x="82" y="176" type="line"/>
      <point x="158" y="110"/>
      <point x="210" y="94"/>
      <point x="237" y="94" type="curve" smooth="yes"/>
      <point x="263" y="94"/>
      <point x="281" y="106"/>
      <point x="281" y="129" type="curve" smooth="yes"/>
      <point x="281" y="165"/>
      <point x="235" y="178"/>
      <point x="183" y="196" type="curve" smooth="yes"/>
      <point x="117" y="220"/>
      <point x="53" y="249"/>
      <point x="53" y="339" type="curve" smooth="yes"/>
      <point x="53" y="425"/>
      <point x="126" y="470"/>
      <point x="225" y="470" type="curve" smooth="yes"/>
      <point x="304" y="470"/>
      <point x="369" y="440"/>
      <point x="422" y="402" type="curve"/>
      <point x="368" y="304" type="line"/>
      <point x="332" y="339"/>
      <point x="279" y="366"/>
      <point x="242" y="366" type="curve" smooth="yes"/>
      <point x="210" y="366"/>
      <point x="193" y="355"/>
      <point x="193" y="336" type="curve" smooth="yes"/>
      <point x="193" y="301"/>
      <point x="247" y="292"/>
      <point x="305" y="270" type="curve" smooth="yes"/>
      <point x="370" y="245"/>
      <point x="432" y="213"/>
      <point x="432" y="130" type="curve" smooth="yes"/>
      <point x="432" y="25"/>
      <point x="367" y="-19"/>
      <point x="259" y="-19" type="curve" smooth="yes"/>
      <point x="161" y="-19"/>
      <point x="84" y="19"/>
      <point x="19" y="75" type="curve"/>
    </contour>
    <contour>
      <point x="225" y="64" type="line"/>
      <point x="335" y="61" type="line"/>
      <point x="249" y="-61" type="line"/>
      <point x="260" y="-58"/>
      <point x="272" y="-58"/>
      <point x="285" y="-58" type="curve" smooth="yes"/>
      <point x="325" y="-58"/>
      <point x="377" y="-89"/>
      <point x="377" y="-155" type="curve" smooth="yes"/>
      <point x="377" y="-227"/>
      <point x="308" y="-264"/>
      <point x="245" y="-264" type="curve" smooth="yes"/>
      <point x="189" y="-264"/>
      <point x="149" y="-255"/>
      <point x="102" y="-225" type="curve"/>
      <point x="147" y="-156" type="line"/>
      <point x="172" y="-174"/>
      <point x="205" y="-182"/>
      <point x="225" y="-182" type="curve" smooth="yes"/>
      <point x="259" y="-182"/>
      <point x="280" y="-171"/>
      <point x="280" y="-147" type="curve" smooth="yes"/>
      <point x="280" y="-121"/>
      <point x="250" y="-114"/>
      <point x="219" y="-114" type="curve" smooth="yes"/>
      <point x="209" y="-114"/>
      <point x="173" y="-117"/>
      <point x="138" y="-131" type="curve"/>
    </contour>
  </outline>
</glyph>
<glyph name="Tcaron" format="2">
  <advance width="561"/>
  <unicode hex="0164"/>
  <outline>
    <contour>
      <point x="4" y="548" type="line"/>
      <point x="4" y="700" type="line"/>
      <point x="558" y="700" type="line"/>
      <point x="558" y="548" type="line"/>
      <point x="366" y="548" type="line"/>
      <point x="366" y="0" type="line"/>
      <point x="196" y="0" type="line"/>
      <point x="196" y="548" type="line"/>
    </contour>
    <contour>
      <point x="281" y="902" type="line"/>
      <point x="372" y="988" type="line"/>
      <point x="478" y="916" type="line"/>
      <point x="281" y="776" type="line"/>
      <point x="83" y="916" type="line"/>
      <point x="190" y="988" type="line"/>
    </contour>
  </outline>
</glyph>
<glyph name="tcaron" format="2">
  <advance width="484"/>
  <unicode hex="0165"/>
  <outline>
    <contour>
      <point x="5" y="460" type="line"/>
      <point x="313" y="460" type="line"/>
      <point x="313" y="335" type="line"/>
      <point x="5" y="335" type="line"/>
    </contour>
    <contour>
      <point x="86" y="620" type="line"/>
      <point x="232" y="620" type="line"/>
      <point x="232" y="0" type="line"/>
      <point x="86" y="0" type="line"/>
    </contour>
    <contour>
      <point x="381" y="786" type="line"/>
      <point x="532" y="754" type="line"/>
      <point x="407" y="504" type="line"/>
      <point x="293" y="527" type="line"/>
    </contour>
  </outline>
</glyph>
<glyph name="Utilde" format="2">
  <advance width="701"/>
  <unicode hex="0168"/>
  <outline>
    <contour>
      <point x="69" y="700" type="line"/>
      <point x="238" y="700" type="line"/>
      <point x="238" y="242" type="line" smooth="yes"/>
      <point x="238" y="171"/>
      <point x="275" y="123"/>
      <point x="350" y="123" type="curve" smooth="yes"/>
      <point x="425" y="123"/>
      <point x="463" y="171"/>
      <point x="463" y="242" type="curve" smooth="yes"/>
      <point x="463" y="700" type="line"/>
      <point x="632" y="700" type="line"/>
      <point x="632" y="230" type="line" smooth="yes"/>
      <point x="632" y="54"/>
      <point x="508" y="-29"/>
      <point x="350" y="-29" type="curve" smooth="yes"/>
      <point x="192" y="-29"/>
      <point x="69" y="54"/>
      <point x="69" y="230" type="curve" smooth="yes"/>
    </contour>
    <contour>
      <point x="154" y="842" type="line"/>
      <point x="164" y="891"/>
      <point x="210" y="936"/>
      <point x="274" y="936" type="curve" smooth="yes"/>
      <point x="340" y="936"/>
      <point x="354" y="884"/>
      <point x="410" y="884" type="curve" smooth="yes"/>
      <point x="435" y="884"/>
      <point x="456" y="906"/>
      <point x="476" y="938" type="curve"/>
      <point x="547" y="863" type="line"/>
      <point x="531" y="826"/>
      <point x="475" y="778"/>
      <point x="413" y="778" type="curve" smooth="yes"/>
      <point x="358" y="778"/>
      <point x="322" y="831"/>
      <point x="273" y="831" type="curve" smooth="yes"/>
      <point x="235" y="831"/>
      <point x="226" y="795"/>
      <point x="226" y="780" type="curve"/>
    </contour>
  </outline>
</glyph>
<glyph name="utilde" format="2">
  <advance width="575"/>
  <unicode hex="0169"/>
  <outline>
    <contour>
      <point x="364" y="0" type="line"/>
      <point x="364" y="460" type="line"/>
      <point x="516" y="460" type="line"/>
      <point x="516" y="0" type="line"/>
    </contour>
    <contour>
      <point x="218" y="180" type="line" smooth="yes"/>
      <point x="218" y="126"/>
      <point x="235" y="96"/>
      <point x="284" y="96" type="curve" smooth="yes"/>
      <point x="332" y="96"/>
      <point x="364" y="126"/>
      <point x="364" y="180" type="curve"/>
      <point x="390" y="186" type="line"/>
      <point x="390" y="77"/>
      <point x="338" y="-11"/>
      <point x="224" y="-11" type="curve" smooth="yes"/>
      <point x="110" y="-11"/>
      <point x="59" y="51"/>
      <point x="59" y="164" type="curve" smooth="yes"/>
      <point x="59" y="460" type="line"/>
      <point x="218" y="460" type="line"/>
    </contour>
    <contour>
      <point x="91" y="596" type="line"/>
      <point x="101" y="645"/>
      <point x="147" y="691"/>
      <point x="211" y="691" type="curve" smooth="yes"/>
      <point x="277" y="691"/>
      <point x="291" y="639"/>
      <point x="347" y="639" type="curve" smooth="yes"/>
      <point x="372" y="639"/>
      <point x="393" y="660"/>
      <point x="413" y="692" type="curve"/>
      <point x="484" y="618" type="line"/>
      <point x="468" y="581"/>
      <point x="412" y="532"/>
      <point x="350" y="532" type="curve" smooth="yes"/>
      <point x="295" y="532"/>
      <point x="259" y="585"/>
      <point x="210" y="585" type="curve" smooth="yes"/>
      <point x="172" y="585"/>
      <point x="163" y="549"/>
      <point x="163" y="534" type="curve"/>
    </contour>
  </outline>
</glyph>
<glyph name="umacron" format="2">
  <advance width="575"/>
  <unicode hex="016B"/>
  <outline>
    <contour>
      <point x="364" y="0" type="line"/>
      <point x="364" y="460" type="line"/>
      <point x="516" y="460" type="line"/>
      <point x="516" y="0" type="line"/>
    </contour>
    <contour>
      <point x="218" y="180" type="line" smooth="yes"/>
      <point x="218" y="126"/>
      <point x="235" y="96"/>
      <point x="284" y="96" type="curve" smooth="yes"/>
      <point x="332" y="96"/>
      <point x="364" y="126"/>
      <point x="364" y="180" type="curve"/>
      <point x="390" y="186" type="line"/>
      <point x="390" y="77"/>
      <point x="338" y="-11"/>
      <point x="224" y="-11" type="curve" smooth="yes"/>
      <point x="110" y="-11"/>
      <point x="59" y="51"/>
      <point x="59" y="164" type="curve" smooth="yes"/>
      <point x="59" y="460" type="line"/>
      <point x="218" y="460" type="line"/>
    </contour>
    <contour>
      <point x="102" y="531" type="line"/>
      <point x="102" y="662" type="line"/>
      <point x="474" y="662" type="line"/>
      <point x="474" y="531" type="line"/>
    </contour>
  </outline>
</glyph>
<glyph name="ubreve" format="2">
  <advance width="575"/>
  <unicode hex="016D"/>
  <outline>
    <contour>
      <point x="364" y="0" type="line"/>
      <point x="364" y="460" type="line"/>
      <point x="516" y="460" type="line"/>
      <point x="516" y="0" type="line"/>
    </contour>
    <contour>
      <point x="218" y="180" type="line" smooth="yes"/>
      <point x="218" y="126"/>
      <point x="235" y="96"/>
      <point x="284" y="96" type="curve" smooth="yes"/>
      <point x="332" y="96"/>
      <point x="364" y="126"/>
      <point x="364" y="180" type="curve"/>
      <point x="390" y="186" type="line"/>
      <point x="390" y="77"/>
      <point x="338" y="-11"/>
      <point x="224" y="-11" type="curve" smooth="yes"/>
      <point x="110" y="-11"/>
      <point x="59" y="51"/>
      <point x="59" y="164" type="curve" smooth="yes"/>
      <point x="59" y="460" type="line"/>
      <point x="218" y="460" type="line"/>
    </contour>
    <contour>
      <point x="123" y="677" type="curve"/>
      <point x="222" y="677" type="line"/>
      <point x="222" y="642"/>
      <point x="249" y="618"/>
      <point x="288" y="618" type="curve" smooth="yes"/>
      <point x="327" y="618"/>
      <point x="353" y="642"/>
      <point x="353" y="677" type="curve"/>
      <point x="452" y="677" type="line"/>
      <point x="452" y="595"/>
      <point x="393" y="531"/>
      <point x="288" y="531" type="curve" smooth="yes"/>
      <point x="183" y="531"/>
      <point x="123" y="595"/>
    </contour>
  </outline>
</glyph>
<glyph name="Uring" format="2">
  <advance width="701"/>
  <unicode hex="016E"/>
  <outline>
    <contour>
      <point x="69" y="700" type="line"/>
      <point x="238" y="700" type="line"/>
      <point x="238" y="242" type="line" smooth="yes"/>
      <point x="238" y="171"/>
      <point x="275" y="123"/>
      <point x="350" y="123" type="curve" smooth="yes"/>
      <point x="425" y="123"/>
      <point x="463" y="171"/>
      <point x="463" y="242" type="curve" smooth="yes"/>
      <point x="463" y="700" type="line"/>
      <point x="632" y="700" type="line"/>
      <point x="632" y="230" type="line" smooth="yes"/>
      <point x="632" y="54"/>
      <point x="508" y="-29"/>
      <point x="350" y="-29" type="curve" smooth="yes"/>
      <point x="192" y="-29"/>
      <point x="69" y="54"/>
      <point x="69" y="230" type="curve" smooth="yes"/>
    </contour>
    <contour>
      <point x="225" y="892" type="curve" smooth="yes"/>
      <point x="225" y="961"/>
      <point x="280" y="1008"/>
      <point x="350" y="1008" type="curve" smooth="yes"/>
      <point x="420" y="1008"/>
      <point x="476" y="961"/>
      <point x="476" y="892" type="curve" smooth="yes"/>
      <point x="476" y="823"/>
      <point x="420" y="776"/>
      <point x="350" y="776" type="curve" smooth="yes"/>
      <point x="280" y="776"/>
      <point x="225" y="823"/>
    </contour>
    <contour>
      <point x="304" y="892" type="curve" smooth="yes"/>
      <point x="304" y="862"/>
      <point x="325" y="844"/>
      <point x="350" y="844" type="curve" smooth="yes"/>
      <point x="375" y="844"/>
      <point x="396" y="862"/>
      <point x="396" y="892" type="curve" smooth="yes"/>
      <point x="396" y="922"/>
      <point x="375" y="940"/>
      <point x="350" y="940" type="curve" smooth="yes"/>
      <point x="325" y="940"/>
      <point x="304" y="922"/>
    </contour>
  </outline>
</glyph>
<glyph name="uring" format="2">
  <advance width="575"/>
  <unicode hex="016F"/>
  <outline>
    <contour>
      <point x="364" y="0" type="line"/>
      <point x="364" y="460" type="line"/>
      <point x="516" y="460" type="line"/>
      <point x="516" y="0" type="line"/>
    </contour>
    <contour>
      <point x="218" y="180" type="line" smooth="yes"/>
      <point x="218" y="126"/>
      <point x="235" y="96"/>
      <point x="284" y="96" type="curve" smooth="yes"/>
      <point x="332" y="96"/>
      <point x="364" y="126"/>
      <point x="364" y="180" type="curve"/>
      <point x="390" y="186" type="line"/>
      <point x="390" y="77"/>
      <point x="338" y="-11"/>
      <point x="224" y="-11" type="curve" smooth="yes"/>
      <point x="110" y="-11"/>
      <point x="59" y="51"/>
      <point x="59" y="164" type="curve" smooth="yes"/>
      <point x="59" y="460" type="line"/>
      <point x="218" y="460" type="line"/>
    </contour>
    <contour>
      <point x="162" y="646" type="curve" smooth="yes"/>
      <point x="162" y="715"/>
      <point x="217" y="762"/>
      <point x="287" y="762" type="curve" smooth="yes"/>
      <point x="357" y="762"/>
      <point x="413" y="715"/>
      <point x="413" y="646" type="curve" smooth="yes"/>
      <point x="413" y="577"/>
      <point x="357" y="531"/>
      <point x="287" y="531" type="curve" smooth="yes"/>
      <point x="217" y="531"/>
      <point x="162" y="577"/>
    </contour>
    <contour>
      <point x="241" y="646" type="curve" smooth="yes"/>
      <point x="241" y="616"/>
      <point x="262" y="599"/>
      <point x="287" y="599" type="curve" smooth="yes"/>
      <point x="312" y="599"/>
      <point x="334" y="616"/>
      <point x="334" y="646" type="curve" smooth="yes"/>
      <point x="334" y="676"/>
      <point x="312" y="694"/>
      <point x="287" y="694" type="curve" smooth="yes"/>
      <point x="262" y="694"/>
      <point x="241" y="676"/>
    </contour>
  </outline>
</glyph>
<glyph name="wcircumflex" format="2">
  <advance width="761"/>
  <unicode hex="0175"/>
  <outline>
    <contour>
      <point x="-8" y="460" type="line"/>
      <point x="151" y="460" type="line"/>
      <point x="247" y="225" type="line"/>
      <point x="379" y="495" type="line"/>
      <point x="514" y="224" type="line"/>
      <point x="610" y="460" type="line"/>
      <point x="769" y="460" type="line"/>
      <point x="531" y="-29" type="line"/>
      <point x="379" y="244" type="line"/>
      <point x="230" y="-29" type="line"/>
    </contour>
    <contour>
      <point x="379" y="641" type="line"/>
      <point x="288" y="555" type="line"/>
      <point x="181" y="626" type="line"/>
      <point x="379" y="766" type="line"/>
      <point x="576" y="626" type="line"/>
      <point x="470" y="555" type="line"/>
    </contour>
  </outline>
</glyph>
<glyph name="Ycircumflex" format="2">
  <advance width="660"/>
  <unicode hex="0176"/>
  <outline>
    <contour>
      <point x="467" y="700" type="line"/>
      <point x="662" y="700" type="line"/>
      <point x="417" y="285" type="line"/>
      <point x="417" y="0" type="line"/>
      <point x="244" y="0" type="line"/>
      <point x="244" y="284" type="line"/>
      <point x="-1" y="700" type="line"/>
      <point x="194" y="700" type="line"/>
      <point x="330" y="437" type="line"/>
    </contour>
    <contour>
      <point x="330" y="862" type="line"/>
      <point x="239" y="776" type="line"/>
      <point x="133" y="848" type="line"/>
      <point x="330" y="988" type="line"/>
      <point x="528" y="848" type="line"/>
      <point x="421" y="776" type="line"/>
    </contour>
  </outline>
</glyph>
<glyph name="ycircumflex" format="2">
  <advance width="521"/>
  <unicode hex="0177"/>
  <outline>
    <contour>
      <point x="531" y="460" type="line"/>
      <point x="231" y="-220" type="line"/>
      <point x="78" y="-220" type="line"/>
      <point x="190" y="37" type="line"/>
      <point x="-9" y="460" type="line"/>
      <point x="158" y="460" type="line"/>
      <point x="306" y="91" type="line"/>
      <point x="228" y="92" type="line"/>
      <point x="375" y="460" type="line"/>
    </contour>
    <contour>
      <point x="261" y="616" type="line"/>
      <point x="169" y="531" type="line"/>
      <point x="63" y="602" type="line"/>
      <point x="261" y="742" type="line"/>
      <point x="458" y="602" type="line"/>
      <point x="352" y="531" type="line"/>
    </contour>
  </outline>
</glyph>
<glyph name="Ydieresis" format="2">
  <advance width="660"/>
  <unicode hex="0178"/>
  <outline>
    <contour>
      <point x="102" y="869" type="curve" smooth="yes"/>
      <point x="102" y="917"/>
      <point x="140" y="951"/>
      <point x="189" y="951" type="curve" smooth="yes"/>
      <point x="238" y="951"/>
      <point x="278" y="917"/>
      <point x="278" y="869" type="curve" smooth="yes"/>
      <point x="278" y="821"/>
      <point x="238" y="787"/>
      <point x="189" y="787" type="curve" smooth="yes"/>
      <point x="140" y="787"/>
      <point x="102" y="821"/>
    </contour>
    <contour>
      <point x="383" y="869" type="curve" smooth="yes"/>
      <point x="383" y="917"/>
      <point x="422" y="951"/>
      <point x="471" y="951" type="curve" smooth="yes"/>
      <point x="520" y="951"/>
      <point x="559" y="917"/>
      <point x="559" y="869" type="curve" smooth="yes"/>
      <point x="559" y="821"/>
      <point x="520" y="787"/>
      <point x="471" y="787" type="curve" smooth="yes"/>
      <point x="422" y="787"/>
      <point x="383" y="821"/>
    </contour>
    <contour>
      <point x="467" y="700" type="line"/>
      <point x="662" y="700" type="line"/>
      <point x="417" y="285" type="line"/>
      <point x="417" y="0" type="line"/>
      <point x="244" y="0" type="line"/>
      <point x="244" y="284" type="line"/>
      <point x="-1" y="700" type="line"/>
      <point x="194" y="700" type="line"/>
      <point x="330" y="437" type="line"/>
    </contour>
  </outline>
</glyph>
<glyph name="Zacute" format="2">
  <advance width="620"/>
  <unicode hex="0179"/>
  <outline>
    <contour>
      <point x="57" y="548" type="line"/>
      <point x="57" y="700" type="line"/>
      <point x="606" y="700" type="line"/>
      <point x="276" y="146" type="line"/>
      <point x="571" y="146" type="line"/>
      <point x="571" y="0" type="line"/>
      <point x="9" y="0" type="line"/>
      <point x="335" y="548" type="line"/>
    </contour>
    <contour>
      <point x="504" y="926" type="line"/>
      <point x="324" y="776" type="line"/>
      <point x="238" y="819" type="line"/>
      <point x="388" y="979" type="line"/>
    </contour>
  </outline>
</glyph>
<glyph name="zacute" format="2">
  <advance width="522"/>
  <unicode hex="017A"/>
  <outline>
    <contour>
      <point x="256" y="322" type="line"/>
      <point x="58" y="322" type="line"/>
      <point x="58" y="460" type="line"/>
      <point x="508" y="460" type="line"/>
      <point x="278" y="138" type="line"/>
      <point x="475" y="138" type="line"/>
      <point x="475" y="0" type="line"/>
      <point x="15" y="0" type="line"/>
    </contour>
    <contour>
      <point x="455" y="688" type="line"/>
      <point x="275" y="538" type="line"/>
      <point x="189" y="581" type="line"/>
      <point x="339" y="741" type="line"/>
    </contour>
  </outline>
</glyph>
